<svg id="Layer_1" data-name="Layer 1" xmlns="http://www.w3.org/2000/svg" xmlns:xlink="http://www.w3.org/1999/xlink" viewBox="0 0 157.99 92.17"><defs><style>.cls-1{fill:url(#linear-gradient);}</style><linearGradient id="linear-gradient" y1="46.09" x2="157.99" y2="46.09" gradientUnits="userSpaceOnUse"><stop offset="0.05" stop-color="#980071"/><stop offset="0.77" stop-color="#ed1e79"/></linearGradient></defs><path class="cls-1" d="M63.93,15.45l-6.65,6.33c4.61,5.4,9.09,10.68,13.62,15.93Q87.72,57.2,104.57,76.65a28.58,28.58,0,0,1,2.51,3.1c1.92,2.93,1.59,6-.75,8.15a6.14,6.14,0,0,1-8.59-.3c-1.69-1.6-3.1-3.48-4.63-5.24L70.38,56C68.05,61.75,66,66.83,63.8,72.26c5.69,2.79,10.88,5.37,16.1,7.87,2.64,1.26,4.34,3.16,4.3,6.15a6,6,0,0,1-8.64,5.33C67.94,88.26,60.48,84.54,53,80.82c-3.1-1.56-3.94-4.34-3-7.64.14-.48.4-.92.57-1.39,1.43-4.05,4.49-8.41,3.81-12.07s-5.09-6.71-7.88-10-5.82-6.8-9.08-10.61c-4.21,3.95-8.16,7.67-12.13,11.37-4.15,3.87-6.74,3.84-10.55-.31Q8.37,43.17,2.14,36c-2.75-3.15-2.81-6.14-.39-8.38s5.38-1.84,8.26,1.2c3.42,3.61,6.7,7.35,10.36,11.4,4.14-3.85,8-7.5,11.88-11C41,21.28,49.9,13.45,58.71,5.56c5-4.46,6.78-4.46,11.16.34C74,10.46,78.18,15,82.2,19.69c2.78,3.23,2.82,6.23.46,8.39-2.59,2.36-5.49,1.9-8.64-1.5S67.55,19.45,63.93,15.45ZM43.3,11.92A12,12,0,0,0,31.19,0,11.68,11.68,0,0,0,19.27,12a11.84,11.84,0,0,0,12,12A12,12,0,0,0,43.3,11.92Zm80,17.79c-9.32,0-18.64,0-28,0-2.65,0-6.45-1-6.48,3.28s3.83,3.31,6.44,3.32c18.82.07,37.63,0,56.44,0,1.33,0,2.89.27,3.92-.32A5,5,0,0,0,158,32.8c.08-.87-1.23-2.33-2.25-2.74a12.23,12.23,0,0,0-4.43-.35c-9.32,0-18.64,0-28,0ZM118.57,53.3c8.31,0,16.62,0,24.93,0,2.28,0,5,.4,5.05-3.15.08-3.37-2.3-3.6-4.76-3.6q-25.18,0-50.37,0c-2.33,0-4.52.29-4.58,3.26-.08,3.3,2.27,3.5,4.79,3.49,8.31,0,16.62,0,24.94,0Zm25.86-33.83c2.52,0,4.21-.89,4.12-3.76s-2-3.2-4.13-3.2q-25.69,0-51.4,0c-2.57,0-4.27,1-4.18,3.75s2,3.16,4.19,3.19c1,0,2,0,3,0h48.41Z" transform="translate(0)"/></svg>