<svg id="Layer_1" data-name="Layer 1" xmlns="http://www.w3.org/2000/svg" xmlns:xlink="http://www.w3.org/1999/xlink" viewBox="0 0 282.13 200.6"><defs><style>.cls-1{fill:url(#linear-gradient);}</style><linearGradient id="linear-gradient" x1="-47.83" y1="225.12" x2="445.99" y2="-61.38" gradientUnits="userSpaceOnUse"><stop offset="0" stop-color="#f08800"/><stop offset="0.1" stop-color="#f3a309"/><stop offset="0.23" stop-color="#f6be11"/><stop offset="0.38" stop-color="#f9d318"/><stop offset="0.53" stop-color="#fbe21d"/><stop offset="0.72" stop-color="#fceb20"/><stop offset="1" stop-color="#fcee21"/></linearGradient></defs><path class="cls-1" d="M140.23,200.59h-113C10.52,200.6,0,190.23,0,173.63,0,134.31,0,95,.09,55.68a24.34,24.34,0,0,1,19.2-24.27,36.89,36.89,0,0,1,8.42-.65c18-.05,36-.1,54,.06,3.08,0,4.79-.9,6.19-3.63,3.57-7,7.6-13.68,11.13-20.66C101.33,2,104.79,0,109.79,0c20.83.05,41.65,0,62.48,0,4.7,0,8.21,1.76,10.46,6.22,3.61,7.13,7.7,14,11.35,21.11a5.6,5.6,0,0,0,5.79,3.5c18.47-.12,36.95-.1,55.42-.09,16.17,0,26.84,10.74,26.84,27q0,57.48,0,115c0,17.53-10.39,27.9-27.93,27.9Zm85.5-85.32c-.29-10.37-3-20.68-11.2-28.76C204,76.12,191.06,74.43,177.46,78.16s-21,13.63-24.08,26.82c-4.72,20,3.3,39.19,19.27,46.34C195.26,161.44,225.29,150.17,225.73,115.27ZM142.9,100.38c-.08-8.87-3.51-15.6-10.85-19.37-12.31-6.32-25-6.67-37.17.51-6.95,4.11-10.24,10.67-9.74,19,.48,7.84,4.69,13.11,11.6,16,5.17,2.19,10.7,3.54,16.07,5.25,3.78,1.21,7.65,2.21,11.34,3.66,3.51,1.38,5.66,3.94,5.38,8.07s-3,6.15-6.39,7.46c-11.73,4.46-21.61-.24-25.46-12.19h-15c-.2,7,1.81,12.87,6.79,17.23,12.23,10.69,26.39,10.82,40.83,6,10.48-3.5,15.59-11.92,15.09-22.69-.42-8.88-6.94-16-17.27-18.8-6.89-1.89-13.8-3.75-20.67-5.71-3.75-1.08-6.84-2.92-6.5-7.54.36-4.79,3.53-6.84,7.8-7.74,9.42-2,14.4.79,19.39,10.87ZM72.15,152.76V78.64H56.64v74.12ZM244.54,74.51v0c4,0,8-.07,12,0,3.33.08,4.88-1.35,4.81-4.75-.09-4.81-.1-9.63,0-14.44.09-3.35-1.28-4.87-4.69-4.84q-12,.14-23.9,0c-3.14,0-4.58,1.21-4.52,4.42.09,5,.07,10,0,14.94-.05,3.4,1.55,4.79,4.87,4.69C236.9,74.43,240.72,74.51,244.54,74.51Zm-36.48,31c-2.44-9.5-8.93-14.87-18-15.22-9.56-.38-16.5,4.11-19.6,13a37.06,37.06,0,0,0-.17,24.51c3,8.95,9.48,13.41,18.89,13.37,9.05,0,15.68-4.94,18.36-14a105.21,105.21,0,0,0,2.12-10.94C209.13,112.39,208.92,108.86,208.06,105.51Z"/></svg>