<svg id="Layer_1" data-name="Layer 1" xmlns="http://www.w3.org/2000/svg" xmlns:xlink="http://www.w3.org/1999/xlink" viewBox="0 0 47.18 47.18"><defs><style>.cls-1{fill:url(#radial-gradient);}</style><radialGradient id="radial-gradient" cx="23.59" cy="23.59" r="23.59" gradientUnits="userSpaceOnUse"><stop offset="0" stop-color="#66f5ff"/><stop offset="0.94" stop-color="#00598e"/></radialGradient></defs><path class="cls-1" d="M20.36.25a21.67,21.67,0,0,1,7.19.1A23.44,23.44,0,0,1,39.82,6.49l.14.13L31.84,20.46Zm10,29,16.09.11a3.31,3.31,0,0,0,.13-.41,23.07,23.07,0,0,0-.93-13.82,21.08,21.08,0,0,0-3.45-6.06Zm-5-14L17.12.89A23.54,23.54,0,0,0,5.63,8.28a22.26,22.26,0,0,0-4,6.79ZM22.64,32.34l7.83,13.79h0a23.47,23.47,0,0,0,10.46-6.61,22.4,22.4,0,0,0,4.45-7Zm-5.74-14L.61,18.2A23.43,23.43,0,0,0,2.26,33.62,20.32,20.32,0,0,0,5.17,38.3Zm-1.18,8.21L7.4,40.7a3.12,3.12,0,0,0,.54.57,24.11,24.11,0,0,0,12,5.6,20.41,20.41,0,0,0,7.35,0Z" transform="translate(0 0)"/></svg>