<svg id="Layer_1" data-name="Layer 1" xmlns="http://www.w3.org/2000/svg" viewBox="0 0 70.98 172.15"><path d="M47.87,150.05c0-.11,0-.22,0-.34-7-48.71-.8-141.52-.8-142.47C47.07,3.33,43.59.1,39.21,0S30,2,29.82,6.71c0,.5,1,24.49,1,56.47,0,33-1.36,63.57,1.17,87.21.29,2.76,4.08,4.84,8.47,4.66C44.66,154.87,47.87,152.67,47.87,150.05Z"/><path d="M0,87.76c-.26-3.59.94-8.64,6.39-10.22a8,8,0,0,1,10,5.2C25.91,113,33.12,131.68,38.09,143c.93-3.46,1.85-6.92,2.75-10.34,4.53-17.15,9.22-34.88,16-50.54A8,8,0,0,1,67.24,78c4,1.74,4.28,6.28,3.17,10.52-4.24,16.21-8.82,31.58-13.2,48.17-2.62,9.93-5.63,21.38-9.4,29.93-1.16,2.64-3.17,4.82-6,5.39a8,8,0,0,1-7.62-2.62C33,168,21.36,156.2.38,89.57A8.27,8.27,0,0,1,0,87.76Z"/></svg>