<svg id="Layer_1" data-name="Layer 1" xmlns="http://www.w3.org/2000/svg" viewBox="0 0 670.83 162.48"><path d="M401.39,160.81V1.57a20.59,20.59,0,0,1,2.93-.39c22.82.05,45.64,0,68.45.35A65.32,65.32,0,0,1,488.93,4.3c22.53,6.3,30.2,24,27.8,44.47-1.28,10.83-5.92,20-14.62,27,.28.52.39,1.09.73,1.31,17.37,11.6,20.63,28.55,17.3,47.49-3.2,18.16-15,28.94-32.33,33.51A94.67,94.67,0,0,1,465.62,161c-20.15.38-40.31.14-60.46.13C404,161.09,402.89,160.92,401.39,160.81Zm34.8-31.21c12.58,0,24.73.77,36.74-.25,9.31-.79,13.67-7.64,13.72-17.78,0-9.29-4.43-15.86-13.57-16.87-12.13-1.34-24.41-1.24-36.89-1.77Zm0-67.19c10.34,0,20.14.14,29.92-.09a22.52,22.52,0,0,0,8.16-1.94c6.28-2.73,8.95-9,8-17.71-.68-6-4.42-10.56-11.07-10.91-11.54-.62-23.14-.17-35-.17Z"/><path d="M86.75,72.32c-6-15.56-11.56-30-16.9-44.47-.5-1.35.23-3.54,1.06-4.92C80.19,7.59,94,.21,111.79,1c19.07.84,31.1,11.58,37.48,28.84,10.84,29.33,21.27,58.81,31.89,88.22a21.71,21.71,0,0,0,2.8,5.7V40l-.64-.26-12.65,35C165,58.9,159.72,44,154.5,29.14a5.86,5.86,0,0,1,.1-3.39C160.22,7.43,179.52-6.52,201.73,5.1c11,5.77,14,16,14.25,27.29.32,13.49.14,27,.15,40.49,0,18.83.08,37.66,0,56.49-.07,13.92-8.41,26.14-20.75,30.82-11.49,4.37-26.23,1.28-34.25-8.58-4.39-5.42-7.4-12.23-10-18.82-10.82-27.92-21.23-56-31.81-84A40.52,40.52,0,0,0,117,43.3c-2.3-4-5.67-6.49-10.56-6.2s-7.49,3.25-9.09,7.41C93.92,53.35,90.59,62.21,86.75,72.32Z"/><path d="M45.43,88.41c5.71,16.14,11,31,16.11,45.82a7.59,7.59,0,0,1-.39,4.3,32.63,32.63,0,0,1-41.71,21.63C7,156,.43,146.79.25,131.75,0,107.43.1,83.1.07,58.77c0-9-.2-18,.09-27A32.54,32.54,0,0,1,22.54,2.21C34-1.49,48.71,2.55,55.82,12.45c4,5.59,6.87,12.17,9.38,18.64,10.74,27.76,21.16,55.65,31.72,83.48a29.65,29.65,0,0,0,2.5,5.42c2.5,3.94,6,6.14,10.88,5.69,4.52-.42,7.21-3.27,8.73-7.23,2.8-7.29,5.4-14.67,8.1-22,.55-1.5,1.19-3,2.25-5.62,2.91,7.65,5.42,14.22,7.92,20.79,2.78,7.31,5.44,14.67,8.41,21.89a7.12,7.12,0,0,1-.73,7.35c-10,15.51-24.45,22.25-42.48,20.91-18.59-1.37-30-12.5-36.08-29.33-10.6-29.24-20.84-58.61-31.23-87.92a19.07,19.07,0,0,0-2.65-5.35V123l.71.21Z"/><path d="M243.67,161.09c5.1-14.57,9.85-28.19,14.64-41.8Q278.26,62.61,298.16,5.9c1.22-3.49,2.72-5,6.64-4.86,10.15.31,20.31,0,30.47.24,1.6.05,4.09,1.6,4.59,3q27.31,76.83,54.27,153.78c.26.74.38,1.54.73,3-11.75,0-23,.1-34.26-.16-1.13,0-2.72-2.1-3.23-3.54-3.41-9.54-6.72-19.13-9.75-28.81-1-3.18-2.3-4.46-5.85-4.41q-22.49.34-45,0c-3.57-.06-4.82,1.27-5.81,4.41-3.06,9.67-6.36,19.26-9.82,28.79-.54,1.49-2.38,3.54-3.66,3.57C266.55,161.21,255.59,161.09,243.67,161.09Zm91.85-67.83C330.21,78.35,325,63.84,319.37,48c-5.79,15.93-11.07,30.46-16.47,45.3Z"/><path d="M670.14,46.34l-29,13.82c-.69-2-1.32-3.77-1.93-5.57-4.76-14.07-16.22-23.32-30-24.2-17.67-1.13-30.82,5.53-37.13,20.38-8.71,20.46-8.41,41.29,1.23,61.41,6.35,13.24,17.61,19.62,32.35,19.19S631,124,637.62,111c1.13-2.21,2.07-4.51,3.34-7.3l29.87,13.59A67.86,67.86,0,0,1,645.38,150c-31.1,21.33-76.75,14.58-98.24-14.71C535,118.74,531.51,99.57,531.72,79.53c.17-15.48,2.79-30.46,10.28-44.28C556.84,7.88,586.77-3.67,617.39,1c25.34,3.88,43.42,17.51,52.32,42.16a9.08,9.08,0,0,1,.41,1.44A11.36,11.36,0,0,1,670.14,46.34Z"/></svg>