<svg width="179" height="165" viewBox="0 0 179 165" fill="none" xmlns="http://www.w3.org/2000/svg">
<path d="M178.041 72.7282C176.468 59.9962 171.406 47.8542 164.739 36.8764C143.597 2.09431 105.401 -3.58142 67.335 1.72065C49.7689 4.16715 31.7308 10.2126 20.1355 23.6212C-5.63539 53.3726 -9.26188 124.884 24.5644 149.416C51.1731 168.689 93.511 168.295 123.435 157.935C153.914 147.378 181.432 106.452 178.234 74.2741C178.163 73.7588 178.104 73.2435 178.041 72.7282Z" fill="#D9CCA7"/>
<path d="M112.5 86.4099C96.98 94.1599 86.55 103.24 79.45 111.87" stroke="#73A641" stroke-width="3" stroke-linecap="round" stroke-linejoin="round"/>
<path d="M73.35 118.36C70.6905 115.104 69.101 111.106 68.7986 106.912C68.4961 102.719 69.4954 98.5342 71.66 94.9299C76.23 87.0199 84.66 82.2699 93.28 79.9299C104.22 77.0299 116.43 77.1599 127.5 79.4199C123.86 84.6899 122.04 91.0999 119.7 96.9999C116.92 104 113.56 110.92 108.25 116.4C98.89 126.12 82.95 130.01 73.35 118.36Z" stroke="#73A641" stroke-width="3" stroke-linecap="round" stroke-linejoin="round"/>
<path d="M54.07 72.6599C57.407 79.4383 62.1086 85.4541 67.88 90.3299" stroke="#73A641" stroke-width="3" stroke-linecap="round" stroke-linejoin="round"/>
<path d="M63.36 99.4099C62.3235 99.1697 61.3172 98.8142 60.36 98.3499C55.1 95.7999 51.68 90.6199 49.82 85.2199C47.543 78.1773 46.8933 70.7099 47.92 63.3799C51.5 65.5199 55.66 66.3399 59.5 67.5199C64.11 68.9699 68.68 70.8099 72.42 73.9499C74.6296 75.7885 76.414 78.0847 77.65 80.6799" stroke="#73A641" stroke-width="3" stroke-linecap="round" stroke-linejoin="round"/>
<path d="M88.67 59.11C85.7507 65.1861 83.7553 71.6643 82.75 78.33" stroke="#73A641" stroke-width="3" stroke-linecap="round" stroke-linejoin="round"/>
<path d="M74.5 68.36C75.2723 65.4524 76.6603 62.7446 78.57 60.42C82.4356 55.7568 87.3076 52.0302 92.82 49.52C92.93 52.88 94.17 56.14 95.03 59.36C96.2168 63.1561 96.6416 67.1492 96.28 71.11C96.168 71.987 95.9841 72.8532 95.73 73.7" stroke="#73A641" stroke-width="3" stroke-linecap="round" stroke-linejoin="round"/>
<path d="M69.1379 75.9922C69.1061 77.4002 69.0509 78.8063 69.0541 80.2132C69.0507 80.8138 68.8305 81.0554 68.2584 80.9623C66.6354 80.706 65.0329 80.4276 63.4177 80.1724C63.1915 80.138 62.9512 80.2195 62.717 80.2209C62.0159 80.2248 61.3381 80.1751 61.2393 79.5336C60.5547 79.5365 59.9706 79.6037 59.3989 79.5305C58.7857 79.4441 58.1855 79.2806 57.6125 79.0436C57.3082 78.9176 56.908 78.5858 56.89 78.3235C56.8721 78.0613 57.2246 77.6618 57.5121 77.5237C60.3849 76.1358 63.2885 74.785 66.1823 73.4258C66.4921 73.279 66.8034 73.1319 67.1154 72.9878C69.1303 72.05 68.9697 72.4878 68.6037 70.1862C68.2561 68.0018 67.9071 65.8177 67.5711 63.6304C67.2957 61.8273 67.8536 61.1638 69.6522 61.5582C72.7343 62.2366 75.7888 63.0746 78.835 63.9161C80.024 64.2453 81.1454 64.8196 82.3305 65.1759C82.7997 65.3178 83.4269 65.3309 83.8605 65.1332C89.5243 62.5495 95.1692 59.9263 100.795 57.2637C101.132 57.1025 101.425 56.4788 101.44 56.0588C101.597 51.5482 102.52 47.2256 104.521 43.166C104.778 42.639 105.068 42.1303 105.362 41.6252C105.656 41.1201 106.053 40.7867 106.622 41.1457C107.192 41.5046 107.017 41.9722 106.794 42.5014C105.842 44.7866 104.737 47.036 104.086 49.4081C103.498 51.547 103.408 53.8283 103.156 56.053C103.121 56.3439 103.42 56.6763 103.565 56.9884C103.743 56.6989 104.022 56.4303 104.081 56.1181C104.889 51.7532 106.433 47.6827 108.985 44.0404C109.365 43.4985 109.753 42.5351 110.638 43.1883C111.439 43.778 110.743 44.4079 110.371 44.9604C107.736 48.8561 106.097 53.1325 105.56 57.8195C105.505 58.296 105.712 58.8147 105.833 59.3042C106.315 61.2346 106.804 63.1632 107.278 65.0939C107.301 65.2655 107.298 65.4396 107.268 65.61C107.154 67.0447 106.818 68.3912 105.364 69.038C103.91 69.6847 102.595 69.2157 101.398 68.3319C100.823 67.9095 100.321 67.3889 99.686 66.8227C99.2766 67.3875 98.8531 67.8833 98.5578 68.4443C98.4551 68.6472 98.5531 69.1254 98.7319 69.2951C100.157 70.6493 101.562 72.0361 103.094 73.2603C104.242 74.1734 105.632 74.4971 107.083 73.9392C107.835 73.6496 108.446 73.7144 108.801 74.5108C109.109 75.2048 108.731 75.8574 107.852 76.1508C105.507 76.9321 103.352 76.5033 101.47 74.9224C100.072 73.7495 98.743 72.4902 97.4293 71.2192C96.9193 70.7298 96.5666 70.6744 96.0869 71.2213C95.4911 71.905 94.223 72.641 94.3113 73.1787C94.5393 74.5588 95.2505 75.9031 95.9698 77.1451C96.5931 78.223 97.6424 78.8523 98.9535 78.9336C99.7319 78.9813 100.278 79.3276 100.234 80.2176C100.186 81.0651 99.6361 81.3119 98.8887 81.2842C96.3031 81.188 94.642 79.7231 93.4648 77.55C93.1107 76.9161 92.8172 76.2501 92.588 75.5609C92.3086 74.6808 91.9236 74.7415 91.2297 75.1429C89.4481 76.1736 87.6238 77.1316 85.806 78.0973C85.5543 78.2311 85.2411 78.2476 84.8673 78.3409L84.9487 77.4078C84.6694 79.1998 83.1325 79.2397 81.9217 79.4864C79.1325 80.0548 76.3142 80.4885 73.4956 80.8961C72.7941 80.9972 72.6211 81.2069 72.742 81.869C73.0711 83.6788 73.371 85.4881 72.4645 87.2424C71.8119 88.5031 70.9566 89.5415 69.6405 90.1338C69.0009 90.4214 68.412 90.3896 68.027 89.7317C67.6239 89.0444 67.8081 88.4187 68.4756 88.047C70.535 86.9007 71.0132 85.15 70.5869 82.9451C70.2311 81.1143 69.982 79.263 69.7033 77.416C69.6281 76.9244 69.6208 76.4221 69.5824 75.9244L69.1379 75.9922ZM71.4051 64.2383C71.3616 64.3278 71.3173 64.4144 71.2766 64.5094C71.9937 65.3372 72.6853 66.1914 73.4363 66.9892C76.2006 69.9318 79.0302 72.8165 82.7838 74.496C84.3867 75.2122 86.0544 75.6655 87.6557 74.4531C88.8673 73.5339 88.9857 72.4914 87.928 71.3862C87.3307 70.7664 86.6582 70.2245 85.9264 69.7735C82.7756 67.8248 79.3309 66.5477 75.8165 65.4576C74.3585 65.009 72.8739 64.6441 71.4008 64.2394L71.4051 64.2383ZM102.238 59.4507C101.971 59.7285 101.673 59.9402 101.512 60.2286C101.089 60.991 101.309 61.7103 102.026 62.0463C102.743 62.3822 103.48 62.0578 103.747 61.2773C103.872 60.913 103.861 60.5043 103.916 60.1141L104.355 60.4148L102.238 59.4507ZM73.0729 70.1822C72.2471 69.2813 71.5614 68.5366 70.8768 67.7901L70.5898 67.9666C70.751 68.9563 70.9137 69.9457 71.1061 71.1157L73.0729 70.1822ZM72.4463 78.1483L72.3498 76.5765C72.6491 76.75 72.6641 76.9452 72.7444 77.1071C72.8748 77.3617 73.0309 77.6023 73.2102 77.825C73.2326 77.8533 73.5292 77.7453 73.5349 77.6884C73.5602 77.3907 73.6266 77.0488 73.5015 76.7994C73.2947 76.3884 72.9598 76.0603 72.6791 75.6972C72.2668 75.888 71.7945 76.0105 71.4661 76.2976C71.262 76.4749 71.1074 77.0162 71.2299 77.1938C71.454 77.5387 71.8934 77.7389 72.4463 78.1483ZM92.624 63.3371C92.5304 63.2633 92.434 63.1903 92.3416 63.1147C91.8993 63.572 91.436 64.013 91.0363 64.5059C90.9754 64.5813 91.1562 64.9864 91.3097 65.0791C91.6917 65.3014 92.1292 65.4265 92.5425 65.5901L92.7469 65.3463C92.5658 64.983 92.3864 64.6207 92.2139 64.2736L92.624 63.3371ZM94.034 65.9147L94.4705 66.1341C94.7964 65.5239 95.1617 64.9301 95.418 64.2925C95.4681 64.1674 95.1253 63.8321 94.9057 63.6772C94.8259 63.6216 94.4526 63.778 94.4242 63.8915C94.2621 64.5626 94.161 65.2508 94.0369 65.9201L94.034 65.9147ZM93.6501 66.0105C93.2528 65.6471 91.524 65.7472 91.2433 66.195C91.1967 66.3387 91.1962 66.4937 91.242 66.6379C91.7408 66.7015 92.2613 66.8275 92.7404 66.7387C93.0597 66.6852 93.3112 66.3048 93.653 66.016L93.6501 66.0105ZM73.2946 78.82L73.6262 79.1289C74.3301 78.9639 74.9804 78.6767 75.2781 77.9162C75.3522 77.7281 75.2479 77.3841 75.1045 77.221C74.9947 77.0942 74.5706 77.0536 74.4942 77.1467C74.0578 77.6704 73.6888 78.2559 73.2946 78.82ZM70.6249 78.0248C71.1445 79.8239 72.179 78.9567 73.049 78.9723C73.0752 78.8501 73.1018 78.7294 73.1295 78.6068L70.6249 78.0248ZM93.459 65.0976L93.8498 64.7657C93.5983 64.4338 93.3479 64.1 93.0964 63.7681C92.9504 63.914 92.6609 64.1667 92.6793 64.1914C92.9256 64.5062 93.1878 64.8082 93.4648 65.0962L93.459 65.0976Z" fill="#302718" stroke="#302718" stroke-width="0.75" stroke-miterlimit="10"/>
</svg>
