<svg id="Layer_1" data-name="Layer 1" xmlns="http://www.w3.org/2000/svg" xmlns:xlink="http://www.w3.org/1999/xlink" viewBox="0 0 22 19"><defs><style>.cls-1{fill:none;}.cls-2{clip-path:url(#clip-path);}.cls-3{fill:#302718;}</style><clipPath id="clip-path"><rect class="cls-1" width="22" height="19"/></clipPath></defs><g class="cls-2"><path class="cls-3" d="M13.34,0H8.66A8.61,8.61,0,0,0,2.54,2.57,8.86,8.86,0,0,0,0,8.77v.46a3.59,3.59,0,0,0,.74,2.18,3.5,3.5,0,0,0,1.91,1.26L4.1,13A8,8,0,0,1,4,11.75L3,11.47A2.3,2.3,0,0,1,1.23,9.23V8.77A7.54,7.54,0,0,1,3.41,3.45,7.38,7.38,0,0,1,8.66,1.24h4.68A7.42,7.42,0,0,1,18.6,3.45a7.62,7.62,0,0,1,2.18,5.32v.46a2.3,2.3,0,0,1-1.72,2.24l-.56.14A12.07,12.07,0,0,1,18.28,13l1.08-.28a3.51,3.51,0,0,0,1.9-1.26A3.59,3.59,0,0,0,22,9.23V8.77a8.82,8.82,0,0,0-2.54-6.2A8.61,8.61,0,0,0,13.34,0Z"/><path class="cls-3" d="M11.22,19h-.37a7.47,7.47,0,0,1-5.32-2.24,7.69,7.69,0,0,1-2.21-5.38V6.27a.63.63,0,0,1,.18-.44.6.6,0,0,1,.44-.18.6.6,0,0,1,.43.18.63.63,0,0,1,.18.44v5.11a6.41,6.41,0,0,0,1.84,4.51,6.28,6.28,0,0,0,4.46,1.87h.37a6.24,6.24,0,0,0,4.45-1.87,6.42,6.42,0,0,0,1.85-4.51V6.27a.69.69,0,0,1,0-.25.57.57,0,0,1,.13-.21.66.66,0,0,1,.2-.14.69.69,0,0,1,.24,0,.64.64,0,0,1,.24,0,.48.48,0,0,1,.2.14.6.6,0,0,1,.14.21,1,1,0,0,1,0,.25v5.11a7.73,7.73,0,0,1-2.21,5.39A7.5,7.5,0,0,1,11.22,19Z"/><path class="cls-3" d="M7.72,8a1.26,1.26,0,0,1,.91,1.52,1.24,1.24,0,0,1-1.4,1.08A1.25,1.25,0,0,1,6.32,9,1.24,1.24,0,0,1,7.72,8Z"/><path class="cls-3" d="M14.35,8a1.25,1.25,0,0,0-.91,1.52,1.24,1.24,0,0,0,1.4,1.08A1.26,1.26,0,0,0,15.75,9,1.24,1.24,0,0,0,14.35,8Z"/><path class="cls-3" d="M11,12.81c1,0,1.81.28,1.81.84A1.73,1.73,0,0,1,11,15.13a1.72,1.72,0,0,1-1.8-1.48C9.2,13.09,10,12.81,11,12.81Z"/></g></svg>