<svg id="Layer_1" data-name="Layer 1" xmlns="http://www.w3.org/2000/svg" viewBox="0 0 4863.81 443.28"><defs><style>.cls-1{fill:#3c383b;}.cls-2{fill:#38383c;}.cls-3{fill:#393a3d;}.cls-4{fill:#39393d;}.cls-5{fill:#e6282a;}.cls-6{fill:#3a393d;}.cls-7{fill:#e92729;}.cls-8{fill:#ea282a;}.cls-9{fill:#eb2729;}.cls-10{fill:#ea272a;}.cls-11{fill:#e9282a;}.cls-12{fill:#e12b2c;}.cls-13{fill:#e42a2b;}.cls-14{fill:#3f3b3f;}.cls-15{fill:#e5282a;}.cls-16{fill:#d92e2e;}.cls-17{fill:#aa3a38;}</style></defs><path class="cls-1" d="M999.37,61.66c14.46,2.6,24,11.29,30.12,24.25,1.81,3.85,3.3,7.85,4.94,11.78-.24,3.3-.27,6.62-.76,9.87-.68,4.58-1.22,9.28-2.69,13.62-2.79,8.21-6.09,9-13.31,3.91-8.58-6.09-13.4-14.58-15.64-24.72-.78-3.56-1.34-7.26-2.8-10.55-5.46-12.34-13.49-15.16-25.7-9.47-21.64,10.1-36.44,27.44-49.4,46.71-.2.3.34,1.1.35,1.13,7.48,0,14.78,0,22.08,0,9.45,0,17.1,4.11,21.62,12.14,8.51,15.1,10,31.92,11.17,48.87-11.78.34-18.89-5.43-19.61-15.79-.35-4.93.38-9.95.73-14.91.77-10.7-5.34-20.55-14.64-22-8.92-1.39-18.05-1.31-26.56,2.27a21.62,21.62,0,0,0-8.67,6.32C891,170.88,879,199.66,877.25,232.3c-.94,12.45-1.93,24.89-2.77,37.34-.06,1,.92,2.08,1.42,3.12l1.23-.31,2.46-40.11c.63-2.24,1.19-4.5,1.9-6.71,9-27.66,32.81-42.87,61.69-39.35,11.56,1.4,18.54,8.94,18.29,19.77-.28,12.38-8.34,17.26-20.17,12.2.36-10.32-5.26-14.91-15.42-12.29a23.27,23.27,0,0,0-8.15,3.54,97.77,97.77,0,0,0-11.91,10.55c-14.55,15.25-18.49,34.9-22.23,54.59-.75,3.94.15,7.14,4.15,9.14s8.14,3.05,11-.45a47.2,47.2,0,0,0,8.34-14.27c1.78-5.25,1.81-11.11,2.44-16.71,1.41-12.67,8.62-20.74,21-23.37,6.27-1.33,28.14.69,37.15,3.71-7.64,6.82-17.8,10.59-21.31,20.59-3.4,9.68-6.64,19.46-4,29.43l23.19,7.57a2.68,2.68,0,0,0,.38.71c.1.1.37,0,.56,0l-1-.66c.19-3.14.38-6.28.57-9.38,6.75-.15,9.81,8.95,17.42,5.65-.47-6.32-9.59-8.47-6.87-16.32,2.61,1.44,4.79,2.8,7.12,3.86,2,.93,4.26,1.51,8.25,2.89-5.06-6.58-9-13.39-9.09-15.28,5.82,1.91,10.49,8,18.46,5.54-4.25-6.82-15-6.59-15.12-16.94l15.77,2c-5.35-6.68-15.18-6.1-14.75-15.42l14.47,1.54c-3.3-6.77-13-6.34-12-14.13l14.74-1.48.32-2.45c-3.19-1.47-6.39-2.91-9.56-4.42-7.2-3.45-8.65-7.27-5.62-14.62,6,0,11.11,7,18.32,2.58-4.46-5.39-14.67-3.51-14.68-13.68l19.33,1.24c-6.29-6.8-17.5-4.8-18.68-15.9h17.63l.95-2c-2.29-2-4.69-3.89-6.85-6s-4.23-4.7-6.33-7.06c.27-.25.53-.51.79-.78,3.81,1.1,7.57,2.43,11.45,3.2,1.78.35,3.77-.42,5.67-.67.13-.75.27-1.5.4-2.25l-16.43-9.59c9.21-5.64,17.51.27,27.79-.68L1015,139.43c7.24-5.5,13.41-2.22,20.07.37-.18-3.46-.3-5.91-.49-9.59,7.52,5.48,14.38,5.22,21.25,1.3,2.28-.33,4.56-.82,6.86-1,14.81-.94,26.3,7,29.91,20.54,3.82,14.35-1.56,25.67-15.51,32.53-1.18.58-2.47.93-3.7,1.39-4.08-.25-7.06-.86-9-5.85-4.94-13-19.23-14.8-27-3.26a52.85,52.85,0,0,0-7.72,19.15c-2.75,14.33-4.17,28.9-6.33,43.34-3.57,23.86-9.2,47-24.8,66.39-.53.65-.45,1.8-.93,3.94,5.86,2.14,11.54,5.13,17.56,6.22,13.7,2.47,27.6,4.61,40.83-2.42l1.62-2.24-.15.2c6,.74,9.31-3.86,13.11-7,9.86-8,8.65-14.41-3.34-20.15-14.88-7.2-23,3-31,13.13-7.36-12.51-5.1-22.78,6.14-29.66,9.41-5.74,19.61-8,30.57-5.51,22.31,9.66,26.94,32.84,10.07,50.57-7.07,7.43-16.17,11.28-25.7,14.28-4.08,1.29-8.22,2.34-12.34,3.5-17,1.25-33.09-2.13-48.54-9-5.11-2.26-9.9-3.09-15.29-.51-8.08,3.86-16.66,6.73-24.56,10.89-4.18,2.2-9.14,5.55-10.73,9.58-5.56,14.07-16.07,21.31-29.74,25.77-13.16,4.3-14.8,12-5.49,22.12,7.87,8.55,16.23,16.77,20.83,27.79-.95,4.11-3,7.18-7.48,8-3.44.61-4.78-1.05-4.62-4.31a61.94,61.94,0,0,0-1.56-7.45c-.7-2.16-2-4.13-3.66-7.52l-8.47,11.06a17.55,17.55,0,0,1-.36-8.16c1.71-11.85-2.22-20.56-13.4-26-2.1-1-3.9-4.45-4.22-7-.56-4.43-2.3-6.62-6.74-7-1.95-.16-3.84-1-5.79-1.39-6.35-1.24-9-.36-10.29,6-1.16,6-.76,12.42,0,18.51.62,4.86,3.57,9.42,4.22,14.28,1.49,11.08,7.57,17.3,18.21,19.58.11,1.52.21,3,.33,4.94l-6.24-1.74c.23,4.82.42,9.12.7,15.11-4.6-6.1-8.18-10.87-12.58-16.72L862,436.49c1.33-6.11-5.23-7.55-6.33-11.84,9.18-5.78,9.5-6.48,6.64-16.74-2-7.32-5.09-14.48-6.18-21.92-1.86-12.78-12.65-22.39-11.39-35.43-6.56-3.34-12.66-5.94-18.21-9.43-4-2.53-7.59-3.48-12.07-1.77-2.09.8-4.53.69-6.81,1l-10-1.75,13.08-5c-3.87-1.34-5.39-2-7-2.39-17.61-4.14-31.26-14.45-42.74-27.86-21.11-24.62-33.39-52.5-31.78-85.73.48-9.91-.41-20-1.56-29.85-1.59-13.73-15.4-25.82-29.72-26.49-.76,10.88-2.07,21.78-2.15,32.69-.13,16.18-5,27.12-26.13,24.44-4.29-2.95-9.19-5.32-12.68-9-2.36-2.51-4.16-7.12-3.64-10.39.7-4.43,5.72-4.71,9.7-4.77a69.13,69.13,0,0,1,7.82.74c2.2,1.44,4.23,3.28,6.62,4.23,4.39,1.74,7.67.25,8.08-4.21,1-10.31.67-20.67-.09-32.18-5.14,3.22-4.36,6.37-3.05,9.43,2,4.68-.43,6.79-4.38,8.12-1.56.52-3.17.86-4.76,1.29-18.75-6.36-23.52-32.42-8.07-46a46.29,46.29,0,0,1,14.61-8.3A35.1,35.1,0,0,0,695.76,116c3.34-4.13,7.35-7.7,11.06-11.53l2.67-2.31-.13.08c7.94-2.06,15.86-5.79,23.82-5.87,29.28-.28,52.31,13.14,70.22,35.62,13.84,17.38,21.4,38.15,29.83,58.37,3.8,9.13,7,18.51,10.47,27.78q1.09,3.42,2.2,6.84l2.11-.5-2.27-10.38c-.89-5.17-1.49-10.41-2.74-15.49-9.89-40.46-27.87-76.86-54.93-108.64-1.77-2.08-4-3.8-7.66-7.31.94,5.42,1.51,8.3,1.91,11.21.38,2.71.57,5.44.88,8.5-11.55-1.81-17-8-17.78-20.33-.82-12.74-2.52-11.23-13.16-13.18C743.38,67.23,737,71.1,732.9,79.22l6.66,5c-6.46,9.46-9.65,9.69-18.35,1.91-1.76-14.81,6.35-25.29,21.35-27.38a74.47,74.47,0,0,1,8.85-.21L765.76,62c4.84-7.44,9.71-13.53,18-16.13,8.92-2.8,17.12-.71,25.28,2.37,19,7.19,30.38,22,38.64,39.72,8.7,18.69,11.92,38.65,13.68,59,.34,4,1.31,7.84,2,11.76,5.2-18.3,11.67-35.34,20.72-51.36,17.36-30.72,38-58.06,73.34-69.95.29-.1.51-.43.76-.65,5.81-1.3,11.64-2.55,17.44-3.91,5-1.19,9.1-3.69,11.47-9-2.34-4.54-6.53-5.06-10.83-5.42-5.28-.45-10.62-.56-15.8-1.53-7.84-1.46-13.64-6-18.48-14,5.53.26,9.9.95,14.17.52S964.42,1,968.65.41c9.2-1.27,17.88.27,25.24,6.42,11.41,9.53,8.93,24.81-5,30C983.09,39,977,40.53,971.09,42.37c-11.71,1.28-21.66,6.85-30.27,14.21a190.81,190.81,0,0,0-56.38,82.24c-.66,1.83-.41,4-.62,6.5,10.22-4.53,16.4-11.11,20.49-20.59a98,98,0,0,1,13.74-23.07c20.39-25,43.45-45.6,79.31-41l-.1-.06Zm-35.8,242.59.7.44-.81-.33c-4.26-9.05-11.33-13.76-21.22-14-1.63,8,1.06,13.6,9.12,16.18l4.49,3.56.88-1.46L952,305.7c-.55-2.31-1.09-4.63-1.8-7.62ZM857.76,222.07q-.39-9.84-.79-19.66l-1.17-8.36c-1.48-18.9-2.19-37.89-4.62-56.66-3.34-25.75-13.42-48.77-32.69-66.81a47,47,0,0,0-16.12-9.36c-7.26-2.57-13.87.71-18.47,7.42,7.17,7.77,14.79,15.23,21.46,23.45,16,19.66,25.89,42.52,34.07,66.26,7.6,22,12.24,44.78,16.49,67.62q1.1,8.16,2.2,16.33l2-.25Q858.94,232.06,857.76,222.07ZM761.24,196c.29.31.6.61.9.91-2.22,2.68-4.2,5.61-6.72,8s-5.6,4.15-10,7.29l15.12.75c.3.63.61,1.25.91,1.87l-14.16,11.58.65,2.27L760.91,230c-2.39,6.76-12.18,5-14.88,13h14.74l-13.22,11.07.87,2L761.21,254l.43.41c-.3,6-9.31,7.66-7.58,16.51l16.47-8.59c3.1,8.7-8.92,10-8.36,18.63l16.16-7.2c-2.75,6.42-4.72,11-7.66,17.88l15.16-6.41c-2.12,5.53-3.48,9.06-4.82,12.59-.21.49-.42,1-.64,1.48l1.47-.64L797,291.57l-6.57,17.29,11.9-8.47,1.32,1.23L799.43,315l1.25.68,10.2-9.21c.26,3.61.43,6,.56,7.86l11.88,1.08c6.26-4.4,7.42-11.93,10.57-18.45,4.71-9.79,4.27-19.11.43-28.91-4.48-11.46-8.31-23.18-12.74-34.66a166.7,166.7,0,0,0-8.92-20c-5.51-10.11-13-13.61-19.9-10.19-6.21,3.06-7.88,11.32-4.33,21.21,1.07,3,2.05,6,3,8.88-7,4.6-12.22,2.14-16.81-2.3-8.13-7.84-10.07-17.76-8.48-28.49,1.44-9.68,7.51-15.3,16.82-17.54,13.78-3.3,30.52,3.35,38.62,15.21,6.67,9.75,10.9,20.56,13.74,31.93,2.26,9,4.2,18.14,6.47,27.17.72,2.85,1,6.3,4.67,7.72.3-1.17.7-1.85.59-2.43-1.16-6.54-2.18-13.11-3.66-19.58-8.06-35-20.14-68.26-41.27-97.73-10.45-14.56-22.6-27.26-39.45-34.26-15.85-6.58-32-9.74-47.68.64-2.81,1.86-5.13,4.46-9.23,8.09l17.05,1.39L716,132.4c9.28.12,15.87-7.93,26.18-4.24-3.2,1.65-4.84,2.52-6.5,3.36-3.26,1.67-6.72,3-9.71,5.09-1.33.92-1.73,3.2-2.55,4.86,1.95.79,3.9,2.21,5.85,2.22,2.22,0,4.45-1.22,6.66-1.94l17.15-5.67c.89,10.36-8.44,10.11-13.55,15.71l15.57.69c-.33,7.62-8.22,7.45-12.57,13.69l18.79-1.33c.06,10.36-9.53,11.23-14.85,15.93,5.3,6.66,11.18.16,16.85,1.12.53,11.94-10.73,9.57-16.75,13.86C751.94,200.34,756.61,195.59,761.24,196Zm107.9,70.39c3.14-37,6.61-71.67,18.21-104.88C869.08,179.85,857.72,242.63,869.14,266.39Z"/><path class="cls-2" d="M3159,352.31c-1.29-5.83-2.41-11-3.74-17,4.71-.49,8.91-.68,13-1.42,8.57-1.52,13.19-4.38,13.13-15.32-.28-55.66-.1-111.33-.14-167,0-11.25-2.72-14.21-13.59-15.52l-8.51-1c-1.36-5.45-2.7-10.8-4.2-16.78,2.85-.25,4.75-.56,6.65-.56,35,0,70,.22,105,.15,23.49,0,46.59,2.3,68.73,10.56,37.41,14,62.69,39.11,69,79.58,7,44.85-2.13,85-38.95,115.29-18,14.78-39,23.08-61.67,26.57a335.65,335.65,0,0,1-47.75,3.48c-30.66.3-61.32-.4-92-.71C3162.69,352.61,3161.38,352.46,3159,352.31Zm67.61-214.57a49.52,49.52,0,0,0-.76,5q0,84.38,0,168.75c0,12.39,2.78,16.67,15.06,18.28,14.08,1.84,28.59,3,42.68,1.84,34.3-2.95,56.89-22.48,66.32-55.66a139.36,139.36,0,0,0,.84-75c-8.27-31.11-28.06-51.61-59.53-59.69a131.56,131.56,0,0,0-26.62-3.57C3252.11,137.21,3239.54,137.7,3226.63,137.74Z"/><path class="cls-3" d="M1178.13,353.4c-1.24-5.66-2.37-10.78-3.78-17.23,4.64-.63,8.77-1.14,12.88-1.75,10-1.47,12.73-4.38,12.74-14.23q.09-84.9,0-169.82c0-10.83-2.22-13.13-13.19-14.67-2.63-.36-5.27-.63-8.31-1-.88-2.83-1.86-5.6-2.58-8.43-.64-2.53-1-5.14-1.65-8.57,2.8-.2,5.27-.51,7.75-.52,24.29-.08,48.59.19,72.88-.25,17.68-.33,35.3-.81,52.64,3.38,3.54.85,7,2,10.49,3.16,40.39,13.76,41.19,65.47,14.74,86-7,5.39-14.73,9.72-22.65,14.87,2,.73,3.83,1.29,5.57,2.07,8.16,3.66,16.9,6.44,24.33,11.23,32.65,21.06,36.84,64.45,9.31,92.11-14.08,14.15-31.93,20.22-51.1,22.41-12.18,1.39-24.56,1.42-36.85,1.48-25.29.13-50.59-.13-75.89-.22ZM1245.89,240c0,26.09-.26,51,.14,75.87.15,9,5.78,14.7,14.87,16.1a76.14,76.14,0,0,0,15.91.44c20.38-1.21,37-14.81,40.58-33.73,3.89-20.85-1.11-41.71-22.62-52.46C1279.39,238.53,1263.36,239.21,1245.89,240Zm.44-100.49v81.15c7.39,0,14.34.63,21.15-.11,31.28-3.42,48-41.34,29.68-67.1a29.4,29.4,0,0,0-5.42-5.83C1278.09,136.52,1262.53,137.08,1246.33,139.5Z"/><path class="cls-4" d="M2241.43,357.27c-28.12-.7-54.25-7.07-77.35-23.52-27-19.24-42.42-45.53-46.17-78.43-7.43-65.11,33.23-123,96.94-137.76a140,140,0,0,1,77.82,3.84c44.84,15.27,73.33,53.67,76.37,102.34,3.9,62.69-36,116.22-97,129.62C2262,355.56,2251.64,356,2241.43,357.27ZM2168.53,218c.36,30.54,2.9,47,9.08,61.9,11.27,27.21,29.79,46.18,60,51.6,28.71,5.16,51.26-4.8,66-30.1a89.38,89.38,0,0,0,9.72-22.86c8.25-33.05,5.62-65.48-8.41-96.6-3.38-7.49-8.31-14.43-13.34-21-21.67-28.37-82.14-38.41-108.75,8.65C2172.44,187.82,2168.38,207.3,2168.53,218Z"/><path class="cls-4" d="M2089.87,232.72c2,65.46-52.44,123-122.56,123.72-15.75.17-31.2-1.19-46.42-5.5-41.63-11.8-86.6-48.95-82.64-118.57,3.2-56.32,42.45-102.13,97.58-114.78a140.17,140.17,0,0,1,80.64,4.79C2054.23,136.11,2091.23,172.83,2089.87,232.72Zm-50.93,6.68c-.86-7.12-1.65-17.77-3.5-28.24-3-17.28-10.06-32.94-20.25-47.34-22.47-31.73-85.41-42.13-111.78,6.71-3.92,7.27-7.55,15-9.58,22.93-7.56,29.55-5.6,58.79,5.18,87.32A83.72,83.72,0,0,0,1926,317.36c37,29.19,84.85,17.26,103.81-25.69C2036.64,276.09,2038.5,259.67,2038.94,239.4Z"/><path class="cls-4" d="M3907.87,232.8c2,65.48-52.56,122.9-122.64,123.66-17.13.19-34-1.2-50.24-6.67-45.81-15.42-82.31-54.82-78.72-117.49,3.22-56.39,42.46-102.06,97.64-114.74a141.29,141.29,0,0,1,77.82,3.83C3870.94,134.56,3909.31,171.93,3907.87,232.8Zm-51,9.32c-.45-6.18-.67-12.86-1.48-19.47-2.57-21.16-9.47-40.6-21.77-58.3-22.42-32.24-86-42.85-112.39,6.45a102.86,102.86,0,0,0-7.75,17.25c-9.28,29.26-7.61,58.46,1.58,87.41a86,86,0,0,0,26.83,40.21c36.83,31.28,86.68,19.78,106-24.3C3854.72,275.77,3856.52,259.34,3856.86,242.12Z"/><path class="cls-4" d="M1461.46,139v80.82h54.93c4.24-9.46,2.3-20,3.44-30.6l17.36-3.14v86.11L1519.64,276c-.71-9.57-1.4-18.66-2.16-28.88-9.63-1.18-18.87-.44-28-.58-8.94-.13-17.89,0-27.48,0a69.13,69.13,0,0,0-.78,7.07c-.05,19.65-.1,39.31,0,59,.07,13.63,3,17.81,16.48,18.63a364.22,364.22,0,0,0,48.89,0c20.47-1.51,35.21-12.94,45-30.79,2.69-4.92,4.83-10.13,7.54-15.89l16.79,3.41c-.14,2.67.21,5.05-.44,7.1-5.17,16.14-10.55,32.22-15.83,48.32-2.26,6.91-6.57,9.4-14.17,9.33-43.64-.38-87.28-.18-130.92-.18H1393.3c-1.14-4.37-2.53-9.67-4.28-16.35,4.69-.61,8.8-1.11,12.9-1.69,10.4-1.46,13.34-4.59,13.35-14.87q.07-84.45,0-168.9c0-10.64-2.59-13.43-13.11-14.94-2.63-.37-5.27-.62-8.91-1-1.33-5.39-2.72-11-4.11-16.65h183.3c5.9,21.42,2.9,42.23,2.54,64.39l-14.56-2c-1.59-5.81-2.94-11.57-4.76-17.17-6.12-18.78-15-25.27-34.45-25.28-16,0-32,.13-48,.28C1469.63,138.33,1466.05,138.71,1461.46,139Z"/><path class="cls-4" d="M4661,352.5c-1.14-4.81-2.34-9.91-3.87-16.38,4.52-.58,8.63-1.08,12.73-1.65,10.42-1.47,13.35-4.59,13.36-14.86q.09-84.45,0-168.9c0-10.65-2.58-13.44-13.1-15-2.62-.37-5.27-.62-8.91-1l-4.12-16.65h182.05c5.47,12.42,6.66,40.21,2.9,64.25l-13.67-1.84c-1.59-5.81-2.94-11.56-4.76-17.17-6.1-18.77-15-25.28-34.44-25.29-16,0-32,.12-48,.28-3.59,0-7.18.42-11.42.68V219.8h54.57c4.16-9.46,2.4-19.93,3.35-30.57l17.44-3.16v86.11L4787.65,276c-.72-9.56-1.4-18.64-2.17-28.88-9.61-1.18-18.85-.44-28-.57-8.95-.14-17.9,0-27.49,0a68.77,68.77,0,0,0-.8,7c-.05,19.66-.1,39.31,0,59,.07,13.65,3,17.87,16.46,18.65a362.28,362.28,0,0,0,49.86-.22c20.52-1.64,34.95-13.5,44.44-31.46,2.47-4.67,4.53-9.54,7.11-15l16.77,3.41c-.13,2.66.23,5-.42,7.08-5.17,16.14-10.54,32.22-15.82,48.33-2.26,6.9-6.54,9.42-14.16,9.35-43.3-.39-86.61-.18-129.92-.18Z"/><path class="cls-4" d="M2692.59,118.35h28.55c1.28,2.75,2.77,5.64,4,8.64q36.23,88.68,72.39,177.39c.88,2.16,1.71,4.34,2.63,6.47,5.75,13.29,12.32,25.66,29.87,25,1.2,6,2.22,11.14,3.38,16.94h-99.85c-.9-4.95-1.84-10.09-2.91-16,6-.78,11.52-1.23,16.92-2.26,8.14-1.57,10.64-5.25,7.51-12.68-7.19-17.12-15-34-22.58-50.94H2661c-4.92,14.21-10,28.55-14.79,43a10.74,10.74,0,0,0,4.35,12.44,71.13,71.13,0,0,0,15.89,7.69c3.67,1.31,7.86,1.18,12.91,1.84,1,5.52,2.11,11.23,3.24,17.31h-93.19c-.78-5.16-1.6-10.64-2.49-16.6a43.54,43.54,0,0,1,5.86-2c13.21-2.42,22.4-9.73,27.16-22.32q13.79-36.39,27.4-72.84,21.11-56.56,42.1-113.16C2690.39,123.81,2691.4,121.37,2692.59,118.35Zm-23.79,130c11,2,45.78,1.75,53.76-.38l-27.94-67.2-2,.31C2684.69,203.43,2676.78,225.8,2668.8,248.33Z"/><path class="cls-4" d="M3004.46,118.45h28.88c1.32,3,2.74,6,4,9q36.19,88.7,72.36,177.4c1.26,3.08,2.59,6.13,3.92,9.18,5.33,12.28,12.69,22.07,28.34,22,1.22,5.75,2.36,11.1,3.6,16.91h-99.86c-.94-5-1.93-10.35-3-16.3,5.75-.67,10.64-1,15.45-1.85,9.91-1.69,12.3-5.4,8.47-14.35-7.06-16.49-14.59-32.78-22-49.41h-71.16c-1,2.47-2.33,5.41-3.4,8.44-3.54,10-7.12,20.06-10.44,30.17-3.19,9.72-.83,15.95,8.2,20.68,3.75,2,8.06,3,12.22,4,3.52.85,7.2,1,11.46,1.63,1.06,5.54,2.11,11,3.3,17.26h-93.23c-.77-5.16-1.61-10.87-2.4-16.14,1.29-1,1.78-1.64,2.34-1.71,18.68-2.25,27.88-14.27,34-30.9,21.69-59.35,43.93-118.5,66-177.73C3002.25,124.27,3003.2,121.78,3004.46,118.45Zm2.26,62.37-2.2.37c-7.89,22.38-15.79,44.76-24,68H3035C3025.35,225.85,3016,203.33,3006.72,180.82Z"/><path class="cls-4" d="M4280.48,118.47h29.05c5.35,13,10.69,25.9,16,38.81q30.15,73.91,60.29,147.84c1,2.46,2.12,4.88,3.14,7.34,5.37,13,12.7,23.62,29,23.7l3.54,16.58h-100c-.88-5-1.82-10.32-2.85-16.1,6.25-.74,11.51-1.08,16.66-2.05,8.56-1.6,10.91-5.4,7.48-13.45-7.14-16.8-14.83-33.36-22.35-50.15H4249c-4.88,14.28-10.13,28.93-14.82,43.75-1.55,4.89.94,9.64,5,12.2a76.38,76.38,0,0,0,16.1,7.28c3.68,1.25,7.79,1.2,12.28,1.81,1,5.73,2,11.21,3.09,17.21h-93.22l-2.26-16.19c1.14-.92,1.38-1.27,1.67-1.31,19.24-2.66,28.69-15,35-32.44,21.41-59.1,43.67-117.89,65.61-176.8C4278.33,124,4279.31,121.53,4280.48,118.47Zm2.2,62.32a678.19,678.19,0,0,0-25.81,68.32H4311Z"/><path class="cls-4" d="M4142.5,282.16l21.82,4.86c-.62,3.11-.85,5.74-1.69,8.15-3.83,11-7.94,21.89-11.7,32.91a20.92,20.92,0,0,1-12.37,13.3c-43.53,18.64-88,21.5-132.26,4.61-37.19-14.18-61.92-41-69.82-81-5.35-27.09-3.1-53.93,7.76-79.38,14.76-34.56,42.27-54.87,77.51-65.27,31.11-9.18,62.54-7.48,93.94-1.22l38.06,7.58c6.18,20.74,2.91,41.72,1.23,63.39l-22.86-2.37c-.63-1.83-1.59-3.59-1.85-5.45-3.53-24.39-13.32-38.07-44.53-43.27a109.46,109.46,0,0,0-39.78.23c-19,3.81-33.54,14.12-43.81,30.45-14.27,22.68-17.8,47.78-15.86,73.88,1.5,20.29,7.85,39,20,55.65,22.44,30.84,55.4,38.26,86.62,30.54,18.76-4.65,32.32-16.64,42-33.15C4137.49,292.08,4139.78,287.32,4142.5,282.16Z"/><path class="cls-4" d="M290.93,241.79v36.63c0,14.65-.05,29.31,0,44,0,10.69,1.68,12.54,12.21,14.36,2.61.45,5.22.85,8.66,1.41l3.54,14.75H231.49c-.94-4.6-1.91-9.33-3.05-14.92,4.8-.63,8.7-1,12.54-1.69,7.79-1.4,10.29-4.14,10.3-12.07q.09-88.43,0-176.86c0-14.26-3.54-17.38-17.85-17.63-1,0-2-.19-3.37-.34-.91-2.34-1.91-4.76-2.78-7.24-.51-1.47-.82-3-1.19-4.37,17.84-5.92,35.1-11.84,52.49-17.31,7.65-2.41,11.44.44,12.28,8.34a78.81,78.81,0,0,1,.1,8q0,47.46,0,94.93V223.2c3.54-1.42,6.07-2.45,8.61-3.45,11.4-4.52,22.54-9.93,34.26-13.36,26.6-7.78,52.32,6.51,55.69,41.57.57,5.95.36,12,.37,18,0,18.31,0,36.63,0,54.95,0,13.21,1.25,14.59,14.36,16.5,1.59.23,3.19.41,5.08.66.73,2.48,1.49,4.66,2,6.89.56,2.51.88,5.08,1.38,8.08h-83.3c-1.06-4.37-2.19-9.07-3.61-15,4.69-.63,8.87-1.05,13-1.79,7-1.25,10.27-4,10.25-10.15-.05-22.63.33-45.32-1.2-67.87-1.27-18.55-11.12-25.44-29.75-23.62A80.16,80.16,0,0,0,305.31,237C300.85,238.17,296.53,239.89,290.93,241.79Z"/><path class="cls-4" d="M3552.53,289.38c1.71-4.31,3-7.32,4.11-10.41q19.93-57,39.81-114c5.45-15.62.41-24.8-15.77-28.45-4.53-1-9.2-1.44-14.89-2.3-1-5.06-2-10.43-3.15-16.61H3656c.69,5.33,1.4,10.8,2.08,16.13-1.63.75-2.49,1.43-3.42,1.54-16.7,1.91-25.65,12.6-31.12,27.31q-16,43-32.09,86C3578.71,282.9,3566,317.19,3553,351.94h-28.49c-.93-2.32-2.08-5-3.08-7.7q-32.88-88.92-65.74-177.83c-1.39-3.74-2.82-7.47-4.41-11.13-5.12-11.72-12.59-20.52-27.58-20.53l-3.69-17h100c.9,4.84,1.86,10,3.05,16.36-3.72.33-7.2.61-10.67,1-15.36,1.51-17.54,4.9-12.1,19.1q22,57.3,44.06,114.56C3546.86,275.25,3549.48,281.69,3552.53,289.38Z"/><path class="cls-3" d="M2439.11,336c6.83-.72,12.51-1,18.06-2,8.1-1.46,10.95-4.75,11-12.82q.1-88.47,0-176.93a17.62,17.62,0,0,0-.73-3.31,115.94,115.94,0,0,0-38.45,2.5c-7.87,1.89-12.75,7-15.09,14.51s-4.33,15.26-6.58,23.25H2392.5c-4.26-21.77-4.94-43.29.6-65.11,34.93,3.74,69.23,1.76,103.5,2,33.87.22,67.76-.33,102.28-.54,2.21,20.86,4.1,42.31-1.9,64.85l-14.89-2c-1.56-6.45-3.06-12.21-4.34-18-2.53-11.52-10.1-17.49-21.24-19.68-13.83-2.72-27.75-2.54-42.49-1.84V317a58.13,58.13,0,0,0,.14,7c.73,6,3.31,9,9.26,10.19,4.88.95,9.9,1.25,15.95,2l4.48,16.92H2443.08C2441.83,347.63,2440.52,342,2439.11,336Z"/><path class="cls-3" d="M1611.29,117.34c68.9,1.25,136.77,1.24,204.86,0,4.31,15.33,3.85,45.88-1.45,65.1l-14.6-2.11c-1.55-6.38-3.09-12.45-4.5-18.54-2.67-11.55-10.48-17.77-21.64-19.11-13.47-1.61-27.08-2.09-41.23-3.1-.31,3.94-.69,6.47-.69,9q0,85,0,169.94a46.12,46.12,0,0,0,.09,5c.73,6.49,3.36,9.42,9.83,10.77,2.6.55,5.28.73,7.92,1,2.29.27,4.59.47,7.57.77,1.36,5.3,2.73,10.65,4.31,16.83H1661.21c-1.23-4.95-2.6-10.51-4.18-16.9,6.59-.7,12.2-1,17.69-1.95,8.61-1.48,11.41-4.73,11.42-13.45q.09-88,0-175.93c0-1-.23-2-.47-3.9-13.82-.77-27.6-.82-41.13,3.46-6.65,2.1-10.48,7-12.51,13.26-2.45,7.56-4.4,15.27-6.73,23.51h-13.73C1605.73,167,1605.64,133.87,1611.29,117.34Z"/><path class="cls-4" d="M53.87,352.81c-1.12-5.15-2.3-10.53-3.66-16.73,6-.66,11.21-1.08,16.39-1.85,9.78-1.46,12.75-4.74,12.76-14.38q.08-87.45,0-174.89c0-1-.17-2-.37-4.17-14.77-.83-29.66-1.4-43.64,4.61-4,1.73-7.72,6.51-9.53,10.76-3.25,7.57-4.95,15.8-7.55,24.65H3.57c-4.57-21.09-5-42.39.21-63.57,68.36,1.41,136.47,1.36,206.06,0,2.54,20.74,3.41,42.31-1.55,65.08L193,180.27c-1.5-6.52-2.82-12.33-4.18-18.13-2.77-11.89-10.77-18.29-22.4-19.6-13.16-1.48-26.42-2-40.3-3-.35,3.77-.78,6.29-.79,8.81q0,85.44,0,170.89c0,11.64,2.07,14,13.38,15.45,3.61.48,7.24.88,11.47,1.38.83,2.65,1.8,5.38,2.54,8.17.67,2.53,1.08,5.14,1.77,8.54Z"/><path class="cls-4" d="M4446.23,181h-14.44a135.5,135.5,0,0,1,.08-64.09c68.64,2,136.75,1.68,206.05.23,2.29,21.15,3.52,42.79-1.82,65.57L4621,180.2c-1.36-6-2.64-11.75-4-17.52-2.71-11.76-10.42-18-22-20.21-13.48-2.58-27-2.23-41.71-1.85v9.18q0,83.94,0,167.89c0,14,1.46,15.61,15.79,17.35l9.64,1.16c1.21,5.34,2.44,10.71,3.83,16.8H4482c-1.14-5-2.37-10.31-3.9-17,5.33-.56,10.15-1,15-1.59,11.47-1.4,14.32-4.53,14.33-16q0-84.94,0-169.89v-7.66c-14.51-1-28.27-.9-41.77,3.31a18,18,0,0,0-12.14,12.29C4450.94,164.36,4448.76,172.36,4446.23,181Z"/><path class="cls-5" d="M877.25,232.3C879,199.66,891,170.88,910.6,145.09a21.62,21.62,0,0,1,8.67-6.32c8.51-3.58,17.64-3.66,26.56-2.27,9.3,1.45,15.41,11.3,14.64,22-.35,5-1.08,10-.73,14.91.72,10.36,7.83,16.13,19.61,15.79-1.15-16.95-2.66-33.77-11.17-48.87-4.52-8-12.17-12.1-21.62-12.14-7.3,0-14.6,0-22.08,0,0,0-.55-.83-.35-1.13,13-19.27,27.76-36.61,49.4-46.71,12.21-5.69,20.24-2.87,25.7,9.47,1.46,3.29,2,7,2.8,10.55,2.24,10.14,7.06,18.63,15.64,24.72,7.22,5.13,10.52,4.3,13.31-3.91,1.47-4.34,2-9,2.69-13.62.49-3.25.52-6.57.76-9.87q10.71,16.91,21.43,33.82c-6.86,3.92-13.72,4.18-21.24-1.3.19,3.68.31,6.13.49,9.59-6.66-2.59-12.83-5.87-20.07-.37l13.87,10.37c-10.28.95-18.58-5-27.79.68l16.43,9.59c-.13.75-.27,1.5-.4,2.25-1.9.25-3.89,1-5.67.67-3.88-.77-7.64-2.1-11.46-3.19l-1.43-.57.65,1.34c2.1,2.36,4.1,4.83,6.33,7.06s4.56,4,6.85,6l-.95,2H993.84c1.18,11.1,12.39,9.1,18.68,15.9l-19.33-1.24c0,10.17,10.22,8.29,14.68,13.68-7.21,4.46-12.34-2.6-18.32-2.58-3,7.35-1.58,11.17,5.62,14.62,3.17,1.51,6.37,3,9.56,4.42l-.32,2.45-14.74,1.48c-.94,7.79,8.73,7.36,12,14.13L987.23,237c-.43,9.32,9.4,8.74,14.75,15.42l-15.77-2c.14,10.35,10.87,10.12,15.12,16.94-8,2.45-12.64-3.63-18.46-5.54.14,1.89,4,8.7,9.09,15.28-4-1.38-6.2-2-8.25-2.89-2.33-1.06-4.51-2.42-7.12-3.86-2.72,7.85,6.4,10,6.87,16.32-7.61,3.3-10.67-5.8-17.42-5.65-.19,3.1-.38,6.24-.57,9.38l.08-.09-23.19-7.57c-2.61-10,.63-19.75,4-29.43,3.51-10,13.67-13.77,21.31-20.59-9-3-30.88-5-37.15-3.71-12.4,2.63-19.61,10.7-21,23.37-.63,5.6-.66,11.46-2.44,16.71a47.2,47.2,0,0,1-8.34,14.27c-2.87,3.5-7.13,2.4-11,.45s-4.9-5.2-4.15-9.14c3.74-19.69,7.68-39.34,22.23-54.59a97.77,97.77,0,0,1,11.91-10.55,23.27,23.27,0,0,1,8.15-3.54c10.16-2.62,15.78,2,15.42,12.29,11.83,5.06,19.89.18,20.17-12.2.25-10.83-6.73-18.37-18.29-19.77-28.88-3.52-52.74,11.69-61.69,39.35-.71,2.21-1.27,4.47-1.9,6.71Z"/><path class="cls-6" d="M564.68,274.71h-91c.14,15.5,2.68,29.46,10.66,41.76,8.94,13.76,27.42,19.91,45.37,14.68,8.14-2.37,15.59-7.13,23.28-11,2-1,3.7-2.57,6-4.22l6.18,7.8c-28.13,37.54-74.41,40.92-105.89,20.31-15.6-10.21-23.84-25.7-27.26-43.7a98.1,98.1,0,0,1-.08-36.75c8.29-43.85,54-70,96.08-55A57,57,0,0,1,564.68,274.71Zm-89-20.22c17.88.09,34.9.09,51.9,0-.22-19.66-7.47-28.77-22.4-29.65C489.92,224,477.77,235.82,475.72,254.49Z"/><path class="cls-7" d="M669.67,218.45c21.15,2.68,26-8.26,26.13-24.44.08-10.91,1.39-21.81,2.15-32.69,14.32.67,28.13,12.76,29.72,26.49,1.15,9.89,2,19.94,1.56,29.85-1.61,33.23,10.67,61.11,31.78,85.73,11.48,13.41,25.13,23.72,42.74,27.86,1.59.37,3.11,1.05,7,2.39l-13.08,5c-14.74-.22-28.92-3.24-42.85-8-19.88-6.74-40.1-11.82-61.35-10.91-1.36-3.35-2.56-6.76-4.09-10C675.79,280.8,668.36,250.57,669.67,218.45Z"/><path class="cls-8" d="M958.15,36.68c-.25.22-.47.55-.76.65-35.34,11.89-56,39.23-73.34,70-9,16-15.52,33.06-20.72,51.36-.68-3.92-1.65-7.81-2-11.76-1.76-20.32-5-40.28-13.68-59C839.4,70.17,828.06,55.38,809,48.19c-8.16-3.08-16.36-5.17-25.28-2.37-8.27,2.6-13.14,8.69-18,16.13l-14.35-3.43C772.89,41,797.57,30,824.27,23.59Q889.64,7.82,952,33.48C954.13,34.36,956.11,35.61,958.15,36.68Z"/><path class="cls-9" d="M807.63,340.35c2.28-.3,4.72-.19,6.81-1,4.48-1.71,8.06-.76,12.07,1.77,5.55,3.49,11.65,6.09,18.21,9.43-1.26,13,9.53,22.65,11.39,35.43,1.09,7.44,4.14,14.6,6.18,21.92,2.86,10.26,2.54,11-6.64,16.74-54.6-5.9-100.58-28.7-136.8-70.27-6.09-7-11.08-14.92-16.57-22.42,6.17-.28,12.5-1.6,18.48-.67,18.92,2.92,37.66,7,56.57,10C787.37,342.88,797.64,344.09,807.63,340.35Z"/><path class="cls-10" d="M931.54,416.33c-4.6-11-13-19.24-20.83-27.79-9.31-10.11-7.67-17.82,5.49-22.12,13.67-4.46,24.18-11.7,29.74-25.77,1.59-4,6.55-7.38,10.73-9.58,7.9-4.16,16.48-7,24.56-10.89,5.39-2.58,10.18-1.75,15.29.51,15.45,6.85,31.58,10.23,48.54,9-9.57,17.37-22.76,31.76-37.52,44.72C985.31,393.92,960.13,408.25,931.54,416.33Z"/><path class="cls-11" d="M1073,261.32c-11-2.46-21.16-.23-30.57,5.51-11.24,6.88-13.5,17.15-6.14,29.66,8-10.09,16.1-20.33,31-13.13l-9.77,27.11.15-.2-1.62,2.24c-13.23,7-27.13,4.89-40.83,2.42-6-1.09-11.7-4.08-17.56-6.22.48-2.14.4-3.29.93-3.94,15.6-19.4,21.23-42.53,24.8-66.39,2.16-14.44,3.58-29,6.33-43.34a52.85,52.85,0,0,1,7.72-19.15c7.8-11.54,22.09-9.76,27,3.26,1.89,5,4.87,5.6,9,5.85C1078.65,210.47,1077.79,235.91,1073,261.32Z"/><path class="cls-12" d="M843.7,218.14c-3.47-9.27-6.67-18.65-10.47-27.78-8.43-20.22-16-41-29.83-58.37-17.91-22.48-40.94-35.9-70.22-35.62-8,.08-15.88,3.81-23.82,5.87L721.21,86.1c8.7,7.79,11.89,7.56,18.35-1.9l-6.66-5c4.07-8.12,10.48-12,19.36-10.36,10.64,2,12.34.44,13.16,13.18.79,12.35,6.23,18.52,17.78,20.33-.31-3.06-.5-5.79-.88-8.5-.4-2.91-1-5.79-1.91-11.21,3.7,3.51,5.89,5.23,7.66,7.31,27.06,31.78,45,68.18,54.93,108.64,1.25,5.08,1.85,10.32,2.74,15.5Z"/><path class="cls-13" d="M997.36,60.65c-35.86-4.59-58.92,16-79.31,41a98,98,0,0,0-13.74,23.07c-4.09,9.48-10.27,16.06-20.49,20.59.21-2.52,0-4.67.62-6.5a190.81,190.81,0,0,1,56.38-82.24c8.61-7.36,18.56-12.93,30.27-14.21Z"/><path class="cls-5" d="M887.4,425c-10.64-2.28-16.72-8.5-18.21-19.58-.65-4.86-3.6-9.42-4.22-14.28-.78-6.09-1.18-12.54,0-18.51,1.24-6.34,3.94-7.22,10.29-6,2,.38,3.84,1.23,5.79,1.39,4.44.35,6.18,2.54,6.74,7,.32,2.53,2.12,6,4.22,7,11.18,5.41,15.11,14.12,13.4,26a17.55,17.55,0,0,0,.36,8.16L914.22,405c1.69,3.39,3,5.36,3.66,7.52a61.94,61.94,0,0,1,1.56,7.45Z"/><path class="cls-14" d="M807.63,340.35c-10,3.74-20.26,2.53-30.3.94-18.91-3-37.65-7.08-56.57-10-6-.93-12.31.39-18.48.67-4.21.63-8.56.8-12.57,2s-6.76,4.54-5.92,9.16c.82,4.46,4.11,6.7,8.5,7.07,2.59.23,5.22,0,7.83,0-.4,8.35-3.06,12.09-9.72,14.05-8.9,2.61-18.32-.45-23-7.5a21.2,21.2,0,0,1,.84-25.13c6.38-8.16,15.16-11.49,25.25-11.95,21.26-.91,41.48,4.17,61.36,10.91,13.93,4.71,28.11,7.73,42.85,8Z"/><path class="cls-12" d="M673.29,181.68c1.59-.43,3.2-.77,4.76-1.29,4-1.33,6.39-3.44,4.38-8.12-1.31-3.06-2.09-6.21,3.05-9.43.76,11.51,1,21.87.09,32.18-.41,4.46-3.69,5.95-8.08,4.21-2.39-.95-4.42-2.79-6.62-4.23Q672.08,188.34,673.29,181.68Z"/><path class="cls-13" d="M999.37,61.66l-2.11-1.07Z"/><path class="cls-12" d="M709.49,102.16l-2.67,2.31Z"/><path class="cls-15" d="M781,297.81l4.83-12.58-15.16,6.41c2.94-6.85,4.91-11.46,7.66-17.88L762.17,281c-.56-8.64,11.46-9.93,8.36-18.63l-16.47,8.59c-1.73-8.85,7.28-10.54,7.57-16.51l.78-1.2-1.2.79-12.79,2.07-.87-2L760.77,243H746c2.7-8,12.49-6.26,14.88-13L748,228.64l-.65-2.27,14.16-11.58c-.3-.62-.61-1.24-.91-1.87l-15.12-.75c4.38-3.14,7.45-4.93,10-7.29s4.5-5.29,6.72-8c.14-.5.29-1,.45-1.49l-1.35.59c-4.63-.41-9.3,4.34-14.63-.25,6-4.29,17.28-1.92,16.75-13.86-5.67-1-11.55,5.54-16.85-1.12,5.32-4.7,14.91-5.57,14.85-15.93l-18.79,1.33c4.35-6.24,12.24-6.07,12.57-13.69l-15.57-.69c5.11-5.6,14.44-5.35,13.55-15.71L736,141.75c-2.21.72-4.44,2-6.66,1.94-1.95,0-3.9-1.43-5.85-2.22.82-1.66,1.22-3.94,2.55-4.86,3-2.05,6.45-3.42,9.71-5.09,1.66-.84,3.3-1.71,6.5-3.36-10.31-3.69-16.9,4.36-26.18,4.24l6.79-9.35-17.05-1.39c4.1-3.63,6.42-6.23,9.23-8.09,15.7-10.38,31.83-7.22,47.68-.64,16.85,7,29,19.7,39.45,34.26,21.13,29.47,33.21,62.76,41.27,97.73,1.48,6.47,2.5,13,3.66,19.58.11.58-.29,1.26-.59,2.43-3.71-1.42-4-4.87-4.67-7.72-2.27-9-4.21-18.14-6.47-27.17-2.84-11.37-7.07-22.18-13.74-31.93-8.1-11.86-24.84-18.51-38.62-15.21-9.31,2.24-15.38,7.86-16.82,17.54-1.59,10.73.35,20.65,8.48,28.49,4.59,4.44,9.83,6.9,16.81,2.3-1-2.87-2-5.89-3-8.88-3.55-9.89-1.88-18.15,4.33-21.21,6.93-3.42,14.39.08,19.9,10.19a166.7,166.7,0,0,1,8.92,20c4.43,11.48,8.26,23.2,12.74,34.66,3.84,9.8,4.28,19.12-.43,28.91-3.15,6.52-4.31,14.05-10.57,18.45l-11.88-1.08c-.13-1.83-.3-4.25-.56-7.86l-10.2,9.21-1.25-.68,4.23-13.34-1.32-1.23-11.9,8.47L797,291.57l-15.17,7.09C781.56,298.37,781.28,298.08,781,297.81Z"/><path class="cls-15" d="M855.92,226c-4.25-22.84-8.89-45.58-16.49-67.62-8.18-23.74-18.11-46.6-34.07-66.26-6.67-8.22-14.29-15.68-21.46-23.45,4.6-6.71,11.21-10,18.47-7.42a47,47,0,0,1,16.12,9.36c19.27,18,29.35,41.06,32.69,66.81,2.43,18.77,3.14,37.76,4.62,56.66l1.17,8.36q.39,9.83.79,19.66Z"/><path class="cls-16" d="M869.14,266.39c-11.42-23.76-.06-86.54,18.21-104.88C875.75,194.72,872.28,229.35,869.14,266.39Z"/><path class="cls-16" d="M951.36,306.51c-8.06-2.58-10.75-8.14-9.12-16.18,9.89.27,17,5,21.22,14l.11-.11-13.35-6.17c.71,3,1.25,5.31,1.8,7.62Q951.71,306.12,951.36,306.51Z"/><path class="cls-17" d="M877.25,232.3l2.34,0-2.46,40.11-1.23.31c-.5-1-1.48-2.12-1.42-3.12C875.32,257.19,876.31,244.75,877.25,232.3Z"/><path class="cls-17" d="M855.92,226l1.84-3.9q1.18,10,2.36,20l-2,.25Q857,234.13,855.92,226Z"/><path class="cls-17" d="M843.7,218.14l2-4q1.14,5.17,2.27,10.37l-2.11.5Q844.79,221.56,843.7,218.14Z"/><path class="cls-17" d="M857,202.41l-1.17-8.36Z"/><path class="cls-16" d="M952,305.7l4.71,2.91-.88,1.46-4.49-3.56Q951.71,306.12,952,305.7Z"/><path class="cls-5" d="M965.47,290.37l1,.66c-.19,0-.46.06-.56,0a2.68,2.68,0,0,1-.38-.71Z"/><path class="cls-15" d="M781.84,298.66l-1.47.64c.22-.49.43-1,.63-1.49C781.28,298.08,781.56,298.37,781.84,298.66Z"/><path class="cls-16" d="M963.46,304.36l.81.33-.7-.44Z"/><path class="cls-1" d="M999.24,160.57l-.65-1.34,1.43.57C999.77,160.06,999.51,160.32,999.24,160.57Z"/><path class="cls-1" d="M761.24,196l1.35-.59c-.16.5-.31,1-.45,1.49C761.84,196.61,761.53,196.31,761.24,196Z"/><path class="cls-1" d="M761.21,254l1.2-.79-.78,1.2Z"/></svg>