<?xml version="1.0" encoding="utf-8"?>
<!-- Generator: Adobe Illustrator 25.4.0, SVG Export Plug-In . SVG Version: 6.00 Build 0)  -->
<svg version="1.1" id="Layer_1" xmlns="http://www.w3.org/2000/svg" xmlns:xlink="http://www.w3.org/1999/xlink" x="0px" y="0px"
	 viewBox="0 0 71 172.1" style="enable-background:new 0 0 71 172.1;" xml:space="preserve">
<style type="text/css">
	.st0{fill:#302718;}
</style>
<path class="st0" d="M47.9,150.1c0-0.1,0-0.2,0-0.3C40.9,101,47.1,8.2,47.1,7.2c0-3.9-3.5-7.1-7.9-7.2S30,2,29.8,6.7
	c0,0.5,1,24.5,1,56.5c0,33-1.4,63.6,1.2,87.2c0.3,2.8,4.1,4.8,8.5,4.7C44.7,154.9,47.9,152.7,47.9,150.1z"/>
<path class="st0" d="M0,87.8c-0.3-3.6,0.9-8.6,6.4-10.2c4.2-1.3,8.7,1,10,5.2c9.5,30.3,16.7,48.9,21.7,60.3
	c0.9-3.5,1.8-6.9,2.8-10.3c4.5-17.2,9.2-34.9,16-50.5c1.8-4,6.4-5.8,10.4-4.1c4,1.7,4.3,6.3,3.2,10.5c-4.2,16.2-8.8,31.6-13.2,48.2
	c-2.6,9.9-5.6,21.4-9.4,29.9c-1.2,2.6-3.2,4.8-6,5.4c-2.8,0.6-5.7-0.4-7.6-2.6C33,168,21.4,156.2,0.4,89.6C0.2,89,0.1,88.4,0,87.8z"
	/>
</svg>
