<svg width="174" height="165" viewBox="0 0 174 165" fill="none" xmlns="http://www.w3.org/2000/svg">
<path d="M164.768 128.733C169.337 121.76 172.177 113.799 173.051 105.508C178.326 55.8561 137.968 5.22966 88.4378 0.485826C39.26 -4.22231 -8.24977 25.521 1.2124 79.6314C7.04273 112.894 24.4623 149.585 58.8526 160.97C92.1513 171.978 144.349 160.175 164.768 128.733Z" fill="#D9CCA7"/>
<path d="M84.63 125.03C76.5407 125.032 68.6326 122.635 61.9055 118.143C55.1784 113.65 49.9346 107.264 46.8372 99.791C43.7397 92.3182 42.9277 84.0948 44.5039 76.1606C46.0801 68.2264 49.9737 60.9378 55.6923 55.2164C61.4108 49.495 68.6976 45.5979 76.631 44.0178C84.5644 42.4378 92.7883 43.2457 100.263 46.3395C107.737 49.4333 114.126 54.674 118.622 61.3989C123.117 68.1237 125.518 76.0307 125.52 84.12C125.512 94.9641 121.202 105.362 113.536 113.032C105.87 120.702 95.4741 125.017 84.63 125.03ZM84.63 46.16C77.1143 46.16 69.7674 48.3887 63.5183 52.5642C57.2693 56.7396 52.3987 62.6744 49.5226 69.618C46.6465 76.5616 45.8939 84.2022 47.3602 91.5734C48.8264 98.9447 52.4456 105.716 57.7599 111.03C63.0743 116.344 69.8453 119.964 77.2166 121.43C84.5879 122.896 92.2284 122.144 99.172 119.267C106.116 116.391 112.05 111.521 116.226 105.272C120.401 99.0226 122.63 91.6757 122.63 84.16C122.633 79.1681 121.652 74.2246 119.743 69.6119C117.835 64.9992 115.036 60.8078 111.507 57.277C107.978 53.7463 103.788 50.9454 99.1766 49.0345C94.5649 47.1236 89.6219 46.14 84.63 46.14V46.16Z" fill="#231F20"/>
<path d="M84.64 83.31C83.5871 83.3219 82.5505 83.049 81.64 82.52C80.8146 82.0299 80.1365 81.3263 79.6772 80.4834C79.2179 79.6404 78.9943 78.6893 79.03 77.73C79.03 77.4648 79.1354 77.2104 79.3229 77.0229C79.5104 76.8353 79.7648 76.73 80.03 76.73C80.1656 76.7298 80.2999 76.7572 80.4246 76.8106C80.5493 76.8639 80.6619 76.9421 80.7554 77.0403C80.8489 77.1385 80.9215 77.2548 80.9687 77.3819C81.0159 77.5091 81.0368 77.6445 81.03 77.78C80.9883 78.3775 81.114 78.9748 81.3932 79.5048C81.6723 80.0348 82.0937 80.4764 82.61 80.78C83.1896 81.1022 83.8418 81.2713 84.505 81.2713C85.1682 81.2713 85.8204 81.1022 86.4 80.78C86.9211 80.4795 87.3479 80.0394 87.6324 79.5093C87.9168 78.9793 88.0476 78.3804 88.01 77.78C88.01 77.5148 88.1154 77.2604 88.3029 77.0729C88.4904 76.8853 88.7448 76.78 89.01 76.78C89.1456 76.7798 89.2799 76.8072 89.4046 76.8606C89.5293 76.9139 89.6419 76.9921 89.7354 77.0903C89.8289 77.1885 89.9015 77.3048 89.9487 77.4319C89.9959 77.5591 90.0168 77.6945 90.01 77.83C90.0378 78.7964 89.8057 79.7526 89.3378 80.5987C88.8699 81.4448 88.1834 82.1498 87.35 82.64C86.5119 83.0733 85.5835 83.3028 84.64 83.31Z" fill="#231F20"/>
<path d="M71.44 77.4599C72.8428 77.4599 73.98 76.3227 73.98 74.9199C73.98 73.5171 72.8428 72.3799 71.44 72.3799C70.0372 72.3799 68.9 73.5171 68.9 74.9199C68.9 76.3227 70.0372 77.4599 71.44 77.4599Z" fill="#231F20"/>
<path d="M97.82 77.4599C99.2228 77.4599 100.36 76.3227 100.36 74.9199C100.36 73.5171 99.2228 72.3799 97.82 72.3799C96.4172 72.3799 95.28 73.5171 95.28 74.9199C95.28 76.3227 96.4172 77.4599 97.82 77.4599Z" fill="#231F20"/>
<path d="M71.32 81.3401C71.32 82.3401 70.18 83.0801 68.77 83.0801C67.36 83.0801 66.21 82.3001 66.21 81.3401C66.21 80.3801 67.35 79.6001 68.77 79.6001C70.19 79.6001 71.32 80.3801 71.32 81.3401Z" fill="#F48580"/>
<path d="M100.7 83.0801C102.114 83.0801 103.26 82.3011 103.26 81.3401C103.26 80.3791 102.114 79.6001 100.7 79.6001C99.2862 79.6001 98.14 80.3791 98.14 81.3401C98.14 82.3011 99.2862 83.0801 100.7 83.0801Z" fill="#F48580"/>
<path d="M94.7 42.91C89.8691 42.4152 85.0046 42.3349 80.16 42.67C77.7369 42.8539 75.3305 43.2149 72.96 43.75C71.31 44.13 68.79 44.08 67.67 45.58C67.3673 46.0372 67.1598 46.5508 67.06 47.09C66.23 50.27 66.13 54.59 70.41 55.09C71.5844 55.1573 72.7616 55.022 73.89 54.69C74.7127 54.4011 75.5781 54.2523 76.45 54.25C77.59 54.41 77.9 55.08 78.27 55.98C78.5861 56.7937 79.1164 57.5068 79.8047 58.0438C80.4931 58.5807 81.3138 58.9215 82.18 59.03C84.07 59.38 85.76 59.42 87.18 58.03C87.5686 57.5703 88.0655 57.2144 88.6258 56.9945C89.1862 56.7745 89.7924 56.6974 90.39 56.77C94.57 56.77 92.9 52.93 94.71 50.69C95.5 49.69 96.5 50.1 97.52 50.23C99.13 50.43 99.98 49.63 101.39 49.46C101.671 49.4636 101.952 49.487 102.23 49.53C102.515 49.5304 102.797 49.4727 103.059 49.3602C103.32 49.2478 103.556 49.083 103.752 48.876C103.948 48.6691 104.099 48.4243 104.197 48.1567C104.294 47.8891 104.336 47.6044 104.32 47.32C104.14 46.25 102.73 45.55 101.88 45.12C99.6423 43.9497 97.2085 43.2005 94.7 42.91Z" fill="#73A641"/>
<path d="M84.06 60.68C83.3411 60.6699 82.6247 60.5929 81.92 60.45C80.8062 60.288 79.7558 59.8319 78.8769 59.1288C77.9981 58.4258 77.3226 57.5011 76.92 56.45C76.59 55.66 76.56 55.66 76.25 55.62C75.7862 55.6206 75.326 55.7018 74.89 55.86L74.22 56.03C72.9227 56.4091 71.5683 56.5547 70.22 56.46C69.4306 56.4087 68.6624 56.183 67.9708 55.7991C67.2791 55.4152 66.6811 54.8828 66.22 54.24C64.7 52.03 65.07 48.95 65.65 46.73C65.7962 46.013 66.0853 45.3329 66.5 44.73C67.71 43.09 69.77 42.78 71.42 42.54C71.85 42.47 72.26 42.42 72.63 42.33C75.0722 41.7753 77.5524 41.4043 80.05 41.22C84.9742 40.8684 89.9198 40.9487 94.83 41.46C97.5138 41.7654 100.118 42.5656 102.51 43.82C103.62 44.39 105.41 45.31 105.72 47.07C105.79 47.5519 105.75 48.0435 105.603 48.5077C105.456 48.9719 105.205 49.3967 104.87 49.75C104.533 50.1448 104.112 50.4593 103.638 50.6704C103.164 50.8814 102.649 50.9838 102.13 50.97L101.68 50.92H101.51C101.121 50.9925 100.74 51.0996 100.37 51.24C99.422 51.6337 98.3918 51.7882 97.37 51.69L96.8 51.6C96 51.46 95.97 51.5 95.87 51.6C95.4562 52.2661 95.2029 53.0192 95.13 53.8C94.81 55.46 94.28 58.23 90.45 58.23H90.32C89.9268 58.169 89.5245 58.2148 89.155 58.3625C88.7856 58.5103 88.4626 58.7547 88.22 59.07C87.675 59.6105 87.0241 60.0326 86.3082 60.3096C85.5923 60.5867 84.8269 60.7128 84.06 60.68ZM76.13 52.73C76.303 52.7155 76.477 52.7155 76.65 52.73C77.3521 52.8198 78.0117 53.1156 78.5457 53.5802C79.0797 54.0447 79.464 54.6571 79.65 55.34C79.869 55.9345 80.2502 56.4558 80.7504 56.8447C81.2507 57.2335 81.8498 57.4744 82.48 57.54C84.39 57.9 85.36 57.74 86.17 56.94C86.6865 56.3622 87.3303 55.9123 88.0506 55.6259C88.7708 55.3396 89.5477 55.2246 90.32 55.29H90.42C91.78 55.29 91.88 54.99 92.21 53.23C92.3566 51.9757 92.8175 50.7787 93.55 49.75C93.9964 49.2351 94.5827 48.8608 95.2378 48.6727C95.8928 48.4845 96.5883 48.4905 97.24 48.69L97.68 48.76C98.2663 48.8074 98.8549 48.7041 99.39 48.46C99.9786 48.2487 100.589 48.1045 101.21 48.03C101.515 47.9856 101.825 47.9856 102.13 48.03H102.32C102.443 47.9928 102.557 47.9273 102.65 47.8388C102.744 47.7503 102.816 47.6411 102.86 47.52C102.79 47.31 102.24 46.92 101.23 46.41C99.1582 45.3096 96.8998 44.6042 94.57 44.33C89.8349 43.8506 85.0672 43.7804 80.32 44.12C77.9644 44.3004 75.6249 44.6513 73.32 45.17C72.87 45.28 72.32 45.35 71.89 45.42C70.71 45.6 69.36 45.8 68.89 46.42C68.7177 46.7321 68.5962 47.0697 68.53 47.42C67.94 49.7 67.99 51.58 68.69 52.58C68.9182 52.8809 69.2109 53.1269 69.5466 53.3C69.8823 53.473 70.2525 53.5687 70.63 53.58C71.6434 53.6195 72.6566 53.4945 73.63 53.21L74.19 53.06C74.8196 52.8663 75.4718 52.7554 76.13 52.73Z" fill="#231F20"/>
<path d="M65.64 91.36C65 89.43 63.48 88.36 61.78 87.36C59.8922 86.3068 58.4235 84.6369 57.62 82.63C57.18 81.54 55.77 79.33 56.11 78.22C56.25 77.77 56.64 77.41 56.76 76.93C56.8378 76.5245 56.8183 76.1062 56.703 75.7097C56.5878 75.3132 56.3801 74.9496 56.097 74.649C55.8139 74.3483 55.4636 74.1192 55.0747 73.9803C54.6858 73.8414 54.2695 73.7967 53.86 73.85C53.61 73.85 53.27 73.85 53.21 73.62C53.1802 73.529 53.1802 73.431 53.21 73.34C53.61 72.17 54.61 71.1 54.88 69.9C55.3893 67.7754 55.2712 65.5488 54.54 63.49C54.3564 62.8328 53.9543 62.2579 53.4 61.86C51.53 60.74 48.52 62.34 47.06 63.54C45.4283 65.0127 44.1499 66.8346 43.32 68.87C41.6295 72.985 40.5449 77.3235 40.1 81.75C39.41 86.91 37.65 99.97 46.98 98.26C47.1792 98.2237 47.3694 98.149 47.54 98.04C47.8499 98.0687 48.1624 98.0345 48.4587 97.9395C48.755 97.8444 49.0291 97.6905 49.2644 97.4869C49.4998 97.2833 49.6916 97.0342 49.8283 96.7546C49.965 96.4751 50.0438 96.1708 50.06 95.86C50.13 94.94 49.67 91.26 50.76 90.97C50.9797 90.9338 51.2047 90.9483 51.4179 91.0125C51.6311 91.0766 51.8268 91.1886 51.99 91.34C52.91 92.08 53.3 93.34 54.28 94.01C55.1149 94.4167 56.0096 94.6868 56.93 94.81C59.32 95.5 60.81 97.6 63.51 96.44C64.4483 96.0274 65.1924 95.2703 65.5888 94.3251C65.9851 93.3798 66.0035 92.3184 65.64 91.36Z" fill="#73A641"/>
<path d="M45.32 99.87C44.484 99.8983 43.6508 99.7608 42.8681 99.4656C42.0855 99.1704 41.369 98.7233 40.76 98.15C36.85 94.42 38.03 85.73 38.59 81.56C39.0472 76.9915 40.169 72.5143 41.92 68.27C42.8636 66.0216 44.3067 64.0176 46.14 62.41C47.87 60.99 51.5 59.01 54.14 60.61C55.0028 61.1831 55.6392 62.0388 55.94 63.03C56.7622 65.3389 56.8942 67.8373 56.32 70.22C56.1103 71.0441 55.7729 71.8302 55.32 72.55C56.1321 72.7787 56.8589 73.2412 57.41 73.88C57.8077 74.3401 58.0882 74.8897 58.2275 75.4817C58.3668 76.0738 58.3608 76.6908 58.21 77.28C58.1032 77.6808 57.9273 78.0598 57.69 78.4C57.6291 78.4763 57.5787 78.5604 57.54 78.65C57.7532 79.457 58.0691 80.2334 58.48 80.96C58.7 81.39 58.89 81.78 59.01 82.08C59.6905 83.7834 60.9419 85.1974 62.55 86.08C64.43 87.16 66.27 88.48 67.07 90.87C67.5318 92.1836 67.4792 93.6234 66.9226 94.8998C66.366 96.1762 65.3469 97.1945 64.07 97.75C61.6 98.81 59.8 97.82 58.35 97.03C57.7708 96.6805 57.1535 96.3987 56.51 96.19C56.27 96.12 56.02 96.07 55.77 96.02C54.9454 95.9029 54.1529 95.6206 53.44 95.19C52.789 94.7041 52.2387 94.0961 51.82 93.4L51.48 92.91C51.48 93.56 51.48 94.35 51.48 94.75C51.5003 95.1497 51.5003 95.5502 51.48 95.95C51.4375 96.8722 51.0481 97.7443 50.3897 98.3915C49.7314 99.0387 48.8528 99.4132 47.93 99.44C47.7002 99.5433 47.4583 99.6172 47.21 99.66C46.5879 99.7885 45.9552 99.8588 45.32 99.87ZM51.92 62.94C50.4726 63.1111 49.1101 63.7139 48.01 64.67C46.5199 65.991 45.3533 67.6366 44.6 69.48C42.9672 73.4643 41.9229 77.6649 41.5 81.95C41.04 85.36 39.96 93.34 42.8 96.04C43.68 96.89 44.94 97.14 46.67 96.83C46.8944 96.676 47.158 96.5893 47.43 96.58C48.49 96.58 48.53 96.1 48.56 95.75C48.56 95.61 48.56 95.2 48.56 94.88C48.49 92.74 48.4 90.07 50.36 89.56C50.8016 89.4629 51.2598 89.4712 51.6976 89.5841C52.1354 89.697 52.5405 89.9114 52.88 90.21C53.4069 90.6696 53.8619 91.2055 54.23 91.8C54.447 92.1786 54.7278 92.5169 55.06 92.8C55.4586 92.9999 55.8879 93.1317 56.33 93.19C56.66 93.25 56.98 93.32 57.33 93.41C58.1814 93.6813 58.9998 94.0469 59.77 94.5C61.13 95.24 61.83 95.58 62.94 95.1C63.5453 94.8331 64.025 94.344 64.28 93.7336C64.535 93.1231 64.5457 92.4381 64.31 91.82C63.85 90.44 62.74 89.58 61.11 88.64C58.9286 87.4257 57.2358 85.4926 56.32 83.17C56.22 82.93 56.06 82.61 55.88 82.26C55.16 80.82 54.34 79.18 54.76 77.79C54.8737 77.4363 55.0352 77.0999 55.24 76.79C55.2994 76.7037 55.3529 76.6135 55.4 76.52C55.4337 76.382 55.4331 76.2378 55.3982 76.1001C55.3634 75.9624 55.2953 75.8353 55.2 75.73C55.0534 75.568 54.8719 75.4415 54.6692 75.3601C54.4665 75.2787 54.2479 75.2444 54.03 75.26C53.5717 75.3746 53.0869 75.3114 52.6733 75.0833C52.2596 74.8551 51.9476 74.4788 51.8 74.03C51.7048 73.656 51.7257 73.2618 51.86 72.9C52.0967 72.2464 52.4017 71.6196 52.77 71.03C53.0795 70.5786 53.3189 70.083 53.48 69.56C53.9295 67.7289 53.8321 65.8063 53.2 64.03C53.12 63.6878 52.9388 63.3777 52.68 63.14C52.4495 63.0056 52.1868 62.9364 51.92 62.94Z" fill="#231F20"/>
<path d="M69.32 111.23C69.17 110.76 68.94 110.3 68.8 109.83C68.59 109.15 68.55 108.43 68.37 107.75C67.56 104.75 62.21 103.82 60.83 106.87C60.76 107.03 59.08 105.6 58.94 105.51C57.9505 104.945 56.8283 104.655 55.6891 104.669C54.55 104.683 53.4352 105.001 52.46 105.59C52.1612 105.747 51.8988 105.965 51.69 106.23C50.55 107.89 51.18 111.29 52.37 112.72C53.0971 113.467 54.0021 114.018 55 114.32C55.91 114.69 57.06 115.52 58 115.56C58.5 115.56 59 115.48 59.51 115.49C60.2397 115.563 60.9644 115.68 61.68 115.84C62.4033 116.003 63.1617 115.874 63.79 115.48C64.1245 115.173 64.4323 114.839 64.71 114.48C65.71 113.48 67.25 114.42 68.41 113.75C68.6812 113.597 68.9129 113.382 69.0865 113.123C69.2601 112.865 69.3709 112.569 69.41 112.26C69.4512 111.914 69.4206 111.563 69.32 111.23Z" fill="#73A641"/>
<path d="M62.38 117.35C62.082 117.35 61.7843 117.327 61.49 117.28C61.21 117.28 60.92 117.18 60.63 117.12C60.2617 117.034 59.8872 116.978 59.51 116.95C59.3203 116.935 59.1297 116.935 58.94 116.95C58.607 116.972 58.273 116.972 57.94 116.95C57.0154 116.853 56.1222 116.56 55.32 116.09C55.0527 115.935 54.7754 115.798 54.49 115.68C53.2671 115.298 52.1622 114.609 51.28 113.68C49.68 111.77 48.98 107.68 50.51 105.44C50.8432 104.987 51.2738 104.615 51.77 104.35C52.9814 103.634 54.3628 103.256 55.77 103.256C57.1772 103.256 58.5586 103.634 59.77 104.35L60.21 104.69L60.51 104.94C61.0706 104.431 61.7337 104.048 62.4548 103.817C63.1758 103.586 63.938 103.512 64.69 103.6C65.8327 103.638 66.9362 104.026 67.8517 104.711C68.7672 105.396 69.4507 106.345 69.81 107.43C69.9 107.79 69.97 108.16 70.03 108.53C70.0719 108.844 70.1354 109.155 70.22 109.46C70.28 109.66 70.36 109.86 70.44 110.06C70.52 110.26 70.65 110.59 70.74 110.86C70.9141 111.378 70.9755 111.927 70.92 112.47C70.8499 113.004 70.6549 113.514 70.3508 113.959C70.0468 114.404 69.6423 114.771 69.17 115.03C68.3899 115.427 67.5074 115.577 66.64 115.46C66.3658 115.408 66.0842 115.408 65.81 115.46L65.57 115.75C65.3166 116.087 65.0208 116.389 64.69 116.65C64.0182 117.132 63.2061 117.378 62.38 117.35ZM59.47 114.03H59.56C60.1229 114.058 60.682 114.138 61.23 114.27L61.92 114.4C62.2545 114.476 62.6044 114.445 62.92 114.31C63.047 114.193 63.161 114.062 63.26 113.92C63.39 113.77 63.51 113.62 63.65 113.47C64.0534 113.068 64.5468 112.767 65.0893 112.593C65.6318 112.419 66.2079 112.377 66.77 112.47C67.0707 112.526 67.3793 112.526 67.68 112.47C67.7527 112.43 67.8155 112.374 67.8639 112.307C67.9123 112.239 67.9452 112.162 67.96 112.08C67.9653 111.937 67.9415 111.794 67.89 111.66C67.83 111.46 67.75 111.27 67.68 111.07C67.61 110.87 67.46 110.53 67.37 110.25C67.2483 109.817 67.1548 109.376 67.09 108.93C67.0512 108.654 66.9977 108.38 66.93 108.11C66.7124 107.617 66.3569 107.197 65.9064 106.9C65.4558 106.604 64.9292 106.444 64.39 106.44C63.9566 106.364 63.5104 106.418 63.108 106.596C62.7056 106.775 62.3652 107.068 62.13 107.44C62.0356 107.644 61.8969 107.825 61.7239 107.968C61.5509 108.112 61.348 108.215 61.13 108.27C60.29 108.47 59.75 108.03 58.32 106.86L58.06 106.66C57.2987 106.267 56.4491 106.076 55.5928 106.106C54.7365 106.136 53.9022 106.385 53.17 106.83C53.062 106.884 52.9612 106.951 52.87 107.03C52.17 108.03 52.63 110.75 53.47 111.75C54.031 112.302 54.7171 112.71 55.47 112.94C55.84 113.09 56.22 113.28 56.58 113.47C57.0293 113.744 57.5185 113.946 58.03 114.07C58.2364 114.085 58.4436 114.085 58.65 114.07C58.96 114.03 59.22 114.03 59.47 114.03Z" fill="#231F20"/>
<path d="M125.2 81.72C124.134 73.585 122.02 65.6222 118.91 58.03C118.41 56.85 117.11 57.11 116.48 57.93C116.239 57.988 116.022 58.1208 115.86 58.3093C115.698 58.4978 115.6 58.7325 115.58 58.98C115.22 62.56 116.13 66.24 115.4 69.8C114.88 72.34 112.4 74.21 113.46 76.9C114.1 78.46 115.86 79.85 114.39 81.56C113.33 82.79 112.16 82.19 110.84 82.56C110.015 82.8465 109.326 83.4315 108.91 84.2C108.342 85.2119 107.721 86.1932 107.05 87.14C106.55 87.75 105.37 88.34 105.29 89.14C105.17 90.35 107.05 92.79 108.05 93.31C109.93 94.31 112.47 95.51 110.86 98.1C110.764 98.2761 110.715 98.4741 110.717 98.6747C110.72 98.8754 110.774 99.072 110.874 99.2458C110.975 99.4195 111.118 99.5645 111.291 99.6668C111.463 99.7691 111.659 99.8253 111.86 99.83C113.37 99.91 114.86 99.96 116.37 99.99C117.28 99.99 117.1 99.99 117.7 100.75C118.09 101.26 118.37 101.84 119.03 102.04C119.342 102.111 119.667 102.101 119.973 102.009C120.28 101.918 120.558 101.75 120.78 101.52C123.192 98.99 124.835 95.8274 125.52 92.4C126.21 88.89 125.71 85.25 125.2 81.72Z" fill="#73A641"/>
<path d="M119.43 103.59C119.153 103.589 118.878 103.552 118.61 103.48C117.811 103.197 117.138 102.641 116.71 101.91L116.54 101.67L116.41 101.49H116.32C114.49 101.49 113.09 101.4 111.76 101.33C111.292 101.301 110.84 101.152 110.446 100.898C110.052 100.645 109.73 100.294 109.51 99.88C109.305 99.49 109.206 99.0533 109.222 98.613C109.237 98.1728 109.368 97.7443 109.6 97.37C109.798 97.1134 109.898 96.7939 109.88 96.47C109.71 95.86 108.39 95.18 107.51 94.73L107.36 94.64C106.06 93.97 103.62 91.07 103.82 89.04C103.915 88.5514 104.106 88.0865 104.382 87.6727C104.659 87.2589 105.015 86.9044 105.43 86.63C105.596 86.5013 105.753 86.361 105.9 86.21C106.307 85.6793 106.671 85.1176 106.99 84.53C107.21 84.15 107.43 83.77 107.66 83.41C108.263 82.3288 109.258 81.52 110.44 81.15C110.98 81.0166 111.534 80.9527 112.09 80.96C112.85 80.96 113.01 80.96 113.27 80.62C113.53 80.28 113.65 80.17 112.86 78.89C112.564 78.4359 112.306 77.9575 112.09 77.46C111.09 75.12 112.16 73.23 112.99 71.72C113.431 71.0367 113.768 70.292 113.99 69.51C114.286 67.6246 114.339 65.7091 114.15 63.81C114.024 62.1457 114.024 60.4743 114.15 58.81C114.192 58.3535 114.352 57.9159 114.615 57.5405C114.879 57.1651 115.235 56.8651 115.65 56.67C115.977 56.3456 116.371 56.0968 116.805 55.9413C117.239 55.7858 117.701 55.7273 118.16 55.77C118.63 55.8365 119.073 56.0274 119.444 56.3227C119.815 56.6181 120.1 57.0073 120.27 57.45C123.434 65.1383 125.582 73.2063 126.66 81.45C127.16 84.89 127.72 88.8 126.97 92.66C126.39 95.66 124.52 100.06 121.79 102.57C121.164 103.201 120.319 103.567 119.43 103.59ZM112.32 98.44C113.5 98.49 114.77 98.54 116.32 98.57H116.48C116.901 98.5262 117.326 98.606 117.702 98.7996C118.079 98.9931 118.391 99.2921 118.6 99.66L118.78 99.91L119.02 100.24C119.118 100.395 119.232 100.539 119.36 100.67C119.49 100.644 119.609 100.577 119.7 100.48C121.874 98.1529 123.362 95.27 124 92.15C124.65 88.77 124.13 85.15 123.67 81.92C122.628 73.9843 120.574 66.2145 117.56 58.8C117.396 59.0059 117.183 59.1675 116.94 59.27C116.835 60.7181 116.835 62.1719 116.94 63.62C117.14 65.7706 117.066 67.938 116.72 70.07C116.451 71.1269 116.026 72.138 115.46 73.07C114.68 74.5 114.29 75.3 114.7 76.31C114.857 76.6572 115.041 76.9915 115.25 77.31C115.97 78.47 117.17 80.41 115.38 82.48C114.971 82.9463 114.459 83.311 113.884 83.5453C113.31 83.7796 112.689 83.8771 112.07 83.83C111.734 83.8212 111.398 83.8548 111.07 83.93C110.604 84.1303 110.22 84.4829 109.98 84.93C109.77 85.26 109.58 85.59 109.38 85.93C109.037 86.6613 108.636 87.3636 108.18 88.03C107.918 88.3253 107.63 88.5964 107.32 88.84C107.119 89.004 106.928 89.181 106.75 89.37C107.177 90.4138 107.866 91.33 108.75 92.03L108.9 92.11C110.38 92.88 112.22 93.83 112.73 95.67C112.953 96.6118 112.806 97.6032 112.32 98.44Z" fill="#231F20"/>
<path d="M108.68 104.25C108.491 103.699 108.19 103.194 107.796 102.765C107.402 102.336 106.923 101.994 106.39 101.76C103.47 100.61 98.15 104.27 99.3 107.62C99.5006 108.141 99.8355 108.599 100.27 108.948C100.705 109.297 101.225 109.525 101.777 109.608C102.328 109.691 102.892 109.627 103.411 109.422C103.929 109.217 104.385 108.878 104.73 108.44C104.92 108.18 105.08 107.78 105.38 107.63C105.707 107.551 106.045 107.527 106.38 107.56C106.914 107.556 107.434 107.388 107.87 107.08C108.299 106.764 108.611 106.315 108.757 105.803C108.904 105.291 108.877 104.745 108.68 104.25Z" fill="#73A641"/>
<path d="M102.26 111.1C102.006 111.099 101.751 111.079 101.5 111.04C100.682 110.925 99.9131 110.583 99.2802 110.053C98.6473 109.523 98.176 108.825 97.92 108.04C97.27 106.16 97.92 104.11 99.71 102.41C101.5 100.71 104.47 99.4101 106.92 100.41C107.656 100.719 108.317 101.181 108.86 101.766C109.403 102.35 109.816 103.044 110.07 103.8C110.359 104.583 110.388 105.437 110.152 106.238C109.916 107.038 109.428 107.74 108.76 108.24C108.111 108.724 107.329 109 106.52 109.03C106.377 109.04 106.233 109.04 106.09 109.03C106.033 109.13 105.969 109.227 105.9 109.32C105.475 109.881 104.924 110.334 104.292 110.643C103.66 110.952 102.964 111.109 102.26 111.1ZM105.15 103.03C103.86 103.132 102.648 103.689 101.73 104.6C101.32 105.03 100.32 106.03 100.68 107.15C100.781 107.416 100.953 107.65 101.176 107.826C101.4 108.002 101.668 108.114 101.95 108.15C102.247 108.205 102.553 108.18 102.836 108.076C103.119 107.972 103.369 107.794 103.56 107.56L103.64 107.43C103.886 106.958 104.265 106.569 104.73 106.31C105.158 106.125 105.625 106.049 106.09 106.09H106.25C106.74 106.09 106.86 106 106.98 105.91C107.164 105.778 107.298 105.588 107.36 105.37C107.422 105.152 107.408 104.919 107.32 104.71C107.199 104.36 107.008 104.039 106.759 103.766C106.51 103.492 106.207 103.273 105.87 103.12C105.638 103.044 105.394 103.014 105.15 103.03Z" fill="#231F20"/>
<path d="M81.18 116.79C81.3443 116.219 81.3471 115.615 81.1882 115.043C81.0293 114.471 80.7149 113.954 80.28 113.55C78.77 112.03 74.28 112.35 73.56 114.71C73.431 115.199 73.458 115.717 73.6373 116.19C73.8166 116.663 74.1392 117.069 74.56 117.35C75.7 118.15 76.27 117.43 77.4 117.49C77.77 117.49 78.05 117.8 78.4 117.99C78.6586 118.115 78.9411 118.183 79.2284 118.19C79.5157 118.196 79.8009 118.14 80.0647 118.026C80.3285 117.912 80.5647 117.743 80.7571 117.53C80.9496 117.316 81.0938 117.064 81.18 116.79Z" fill="#73A641"/>
<path d="M79.24 119.69C78.6662 119.688 78.1034 119.533 77.61 119.24C77.4872 119.169 77.3702 119.089 77.26 119H77.18C77.0141 119.014 76.85 119.044 76.69 119.09C76.1866 119.254 75.651 119.295 75.1288 119.207C74.6065 119.12 74.1129 118.909 73.69 118.59C73.0213 118.136 72.512 117.484 72.2339 116.725C71.9558 115.966 71.923 115.139 72.14 114.36C72.3975 113.619 72.8468 112.959 73.4423 112.448C74.0378 111.936 74.7582 111.592 75.53 111.45C77.31 110.99 79.87 111.14 81.29 112.57C81.9207 113.171 82.3717 113.935 82.5925 114.777C82.8133 115.62 82.7951 116.507 82.54 117.34C82.3446 117.837 82.0455 118.287 81.6628 118.659C81.28 119.032 80.8222 119.318 80.32 119.5C79.9735 119.625 79.6082 119.689 79.24 119.69ZM77.32 116.03H77.51C78.0516 116.073 78.5676 116.278 78.99 116.62L79.15 116.73C79.1907 116.755 79.2374 116.768 79.285 116.768C79.3326 116.768 79.3793 116.755 79.42 116.73C79.5219 116.689 79.6139 116.627 79.6898 116.548C79.7657 116.468 79.8237 116.374 79.86 116.27C79.9259 115.961 79.9088 115.64 79.8105 115.34C79.7121 115.039 79.536 114.77 79.3 114.56C78.8549 114.289 78.3567 114.116 77.8391 114.054C77.3216 113.992 76.7967 114.042 76.3 114.2C75.59 114.38 75.08 114.73 74.98 115.09C74.9464 115.279 74.9682 115.475 75.0427 115.652C75.1172 115.829 75.2412 115.981 75.4 116.09C75.61 116.24 75.61 116.24 76.05 116.09C76.4689 116.015 76.8959 115.994 77.32 116.03Z" fill="#231F20"/>
</svg>
