<svg id="Layer_1" data-name="Layer 1" xmlns="http://www.w3.org/2000/svg" viewBox="0 0 1177.71 374.52"><defs><style>.cls-1{fill:#eb8b31;}</style></defs><path class="cls-1" d="M1210.83,278.76c-9-25.15-28.28-43.15-52.26-58.44-65.58-41.8-146-55.58-221.73-66.09l-2.14-.3c-89.61-12.37-180.28-15.41-270.65-14.82C603,139.51,542,141.73,481,145c-132.21,7.1-288.39-5.36-393.6,92.54C38.89,282.65,17.59,350.63,66.49,404.45c46.14,50.78,116.94,69.13,182,81.12,95.38,17.6,191,21.74,287.61,25.18,132.9,4.66,266.36,3.81,399.09-4.64,65.4-4.17,136.79-3.58,193.86-40.55,53.8-34.84,92.93-98.39,86.84-163.79A93.5,93.5,0,0,0,1210.83,278.76Z" transform="translate(-38.75 -139.04)"/></svg>