<svg id="Layer_1" data-name="Layer 1" xmlns="http://www.w3.org/2000/svg" viewBox="0 0 2863.94 346.01"><defs><style>.cls-1{fill:#eb8b31;}</style></defs><path class="cls-1" d="M2969.2,280.09c-22.35-44.16-68.29-57-109.38-65.15-155-30.58-311.31-21-468-29.94-154.64-8.8-308.76-4.43-463.75-6-159.5-1.62-319,3-478.49,3-122.81,0-245.62-5.95-368.43-5C818.54,179,555,147.74,295.29,197c-44.65,8.46-90.81,19.09-127.67,52.1s-61.56,94.83-46,148.52c14.37,49.62,56.72,76.38,97,90.32,67.69,23.45,138.79,24.29,209,24.86,688.69,5.59,1377.4-.07,2066.09-5.72,101.28-.84,202.69-1.68,303.56-13.21,48.16-5.5,98.54-14.61,137.38-51.11s60.74-109,35.37-161.16C2969.69,281.06,2969.44,280.57,2969.2,280.09Z" transform="translate(-116.88 -169.05)"/></svg>