<svg id="Layer_1" data-name="Layer 1" xmlns="http://www.w3.org/2000/svg" viewBox="0 0 1151.29 191.2"><defs><style>.cls-1{fill:#e93625;}.cls-2{fill:#e83727;}.cls-3{fill:#e83726;}.cls-4{fill:#ca4f43;}.cls-5{fill:#ec3322;}</style></defs><path class="cls-1" d="M116.92,97.5c8.22,2.45,15.33,6.16,21,12.43,19.1,21.32,9.49,60.83-18.08,71.57a83,83,0,0,1-27.68,5.37c-29.8.66-59.62.25-89.43.23A24.32,24.32,0,0,1,0,186.79V12.65H4.75c27.65,0,55.29-.06,82.94,0,14.27.05,27.83,2.56,39.22,12.12,14.76,12.41,20.15,35.83,12,53.33C134.5,87.71,126.77,93.69,116.92,97.5Zm-74,54.27c14.87,0,29.49.56,44-.19,10.63-.54,16.61-8.22,16.56-18.8,0-9.92-6.49-17.57-16.89-18.09-13.94-.7-27.93-.3-41.91-.33a5.6,5.6,0,0,0-1.79.68ZM64.63,47.58c-6,0-12,.13-18,0-3.08-.1-4.07,1-4,4,.13,9.83.09,19.67,0,29.5,0,2.45.72,3.67,3.4,3.65,12.16-.12,24.34.26,36.49-.26,11.39-.49,18.36-8.54,18.09-19.73-.23-9.88-7.82-16.82-19-17.13C76,47.45,70.3,47.58,64.63,47.58Z"/><path class="cls-1" d="M1110,65.57V0h41.32V187.11h-20.73c-5,0-10-.29-15,.09-4.47.34-6.16-1.27-5.57-5.63a19.42,19.42,0,0,0-.2-3.43,19,19,0,0,0-2.68,1.27c-41.3,28-95.44,2.61-100.41-47.19-2-19.67.91-38.19,13.08-54.49a63.17,63.17,0,0,1,86.08-14.6C1106.81,63.77,1107.82,64.3,1110,65.57Zm0,58.66c.11-22.19-16.29-38.2-34.5-36-13.75,1.64-23.3,9.75-27.11,23-4,14,.39,29.82,10.78,37.65,10.09,7.61,21.23,8.74,32.47,3.28C1104,146.13,1109.87,135.6,1110,124.23Z"/><path class="cls-2" d="M991.59,132.62h-95a24.61,24.61,0,0,0,9.37,17.66c7.42,6,16.23,7.44,25.42,7,13.35-.68,25.2-5.7,36.6-13.69l16,27.58a67.61,67.61,0,0,1-27.76,15.59c-27.15,7.68-53.44,6.38-76.6-11.2-20.81-15.81-26.75-38.34-23.87-63.32,3.21-27.82,18.69-47.08,45-55.8,26.8-8.89,51.82-4.35,72.35,16.42,13.69,13.86,18.14,31.4,18.54,50.29C991.65,126.08,991.59,129,991.59,132.62Zm-42.37-26.15c-1-11.27-12.51-19.85-25.58-20-10.23-.1-25.36,9.13-25.68,20Z"/><path class="cls-2" d="M839.67,132.7h-94.5c.63,10.53,7.86,19.46,18.7,22.65,15.67,4.6,30.29.93,44.23-6.58,2.63-1.42,5.1-3.13,8.33-5.13,5.05,8.8,10.15,17.48,14.9,26.35.41.76-1.2,3.2-2.43,4.14a80,80,0,0,1-39.81,16.05c-16.18,2-32,.5-47-6.13-21.72-9.6-34.21-26.54-37.71-49.85C700.14,105.86,709,79.28,735,62.93c39-24.54,100.39-6.58,104.63,53.56C840,121.6,839.67,126.76,839.67,132.7ZM746,106.29h51.87c-2.51-11.8-12.42-19.55-24.72-19.73C760.37,86.38,748.71,94.68,746,106.29Z"/><path class="cls-3" d="M295.27,187.12H277.91c-6.17,0-12.35-.28-18.49.09-4.5.27-6.11-1.33-5.52-5.67a52.76,52.76,0,0,0,0-5.82c-2.35,1.79-3.85,2.85-5.27,4-19.09,15.71-58.44,17.46-76.2-10.13a53.82,53.82,0,0,1-8.71-29.28c-.17-26.48-.06-53-.06-79.45,0-2.14-.44-4.51,3-4.5,12.47,0,24.94,0,37.95,0,.19,2.4.5,4.47.5,6.54,0,20.82,0,41.64.06,62.46a47,47,0,0,0,.84,9.93c2.27,10.29,9.58,16.77,19.62,17.83s20.72-4.46,24.15-14.13a72.86,72.86,0,0,0,3.94-21.88c.54-18.14.18-36.3.18-54.46V57a24,24,0,0,1,3.67-.61c11.33,0,22.66,0,34-.07,2.7,0,4.35.39,4.34,3.75q-.14,62-.09,123.92A23.07,23.07,0,0,1,295.27,187.12Z"/><path class="cls-2" d="M499.55,153.5h51.63c0,10.64.11,20.77-.19,30.87,0,1-2.64,2.58-4.09,2.62-8.65.25-17.32.13-26,.13H448.46c-7.94,0-10-3.61-6-10.75,7.06-12.46,14.25-24.84,21.41-37.24q12.85-22.29,25.74-44.55c.73-1.27,1.28-2.64,2.3-4.76h-49.5V56.36H543.59c7.29,0,9.36,3.6,5.6,10.28-7,12.33-14.1,24.55-21.17,36.81Q515.18,125.74,502.33,148C501.45,149.57,500.72,151.19,499.55,153.5Z"/><path class="cls-3" d="M423.49,153.38c0,10.86.09,20.82-.13,30.77,0,1-1.89,2.82-2.91,2.83-35.14.1-70.28,0-105.42,0a12.38,12.38,0,0,1-2.17-1c.93-3.58,1.14-7.85,3-11.18,15-26.51,30.31-52.85,45.52-79.25.9-1.56,1.72-3.15,3-5.58h-49a25.25,25.25,0,0,1-.7-3.85c-.05-8.5.08-17-.09-25.48-.07-3.24,1-4.46,4.27-4.32,5,.21,10,0,15,0h89.9c-1.31,4.77-1.64,9-3.52,12.31C405.26,95.2,390,121.54,374.76,148c-.9,1.54-1.73,3.13-3,5.43Z"/><path class="cls-4" d="M570,12.74H694.34v37.9H612.82c0,7.51-.06,14.43,0,21.35.06,4.62-1.45,11.2.95,13.36,2.76,2.49,9,1.29,13.79,1.32,18.49.09,37,.13,55.47,0,3.77,0,4.88,1.14,4.8,4.84-.21,10.8-.07,21.61-.07,33.2h-75V187H570Zm1.67,87.32c0,26.32.06,52.64-.06,79,0,3.95,1,5.77,5.31,5.65q13.74-.37,27.49,0c4.24.11,5.44-1.55,5.39-5.59-.16-16.16-.1-32.32-.05-48.48,0-6.18,1.9-8,8-8,20.65,0,41.31-.1,62,.08,4,0,5.24-1.12,5.08-5.08-.28-7.32-.35-14.67,0-22,.24-4.72-1.08-6.27-6-6.21-20.65.27-41.31.08-62,.15-3.73,0-6.14-1-6.24-5.21-.24-9.62-.85-19.25-.75-28.86.06-5.41,2.19-6.89,7.6-6.89,23.15,0,46.31-.09,69.46.07,4.25,0,6-1.14,5.84-5.65-.31-7-.07-14-.08-21,0-6.48,0-6.51-6.32-6.51H578c-6.2,0-6.25.06-6.25,6.56Q571.7,61.08,571.7,100.06Z"/><path class="cls-5" d="M571.7,100.06q0-39,0-78c0-6.5,0-6.56,6.25-6.56H686.41c6.29,0,6.31,0,6.32,6.51,0,7-.23,14,.08,21,.2,4.51-1.59,5.68-5.84,5.65-23.15-.16-46.31-.08-69.46-.07-5.41,0-7.54,1.48-7.6,6.89-.1,9.61.51,19.24.75,28.86.1,4.22,2.51,5.22,6.24,5.21,20.65-.07,41.31.12,62-.15,4.93-.06,6.25,1.49,6,6.21-.37,7.31-.3,14.66,0,22,.16,4-1.12,5.11-5.08,5.08-20.65-.18-41.31-.09-62-.08-6.13,0-8,1.82-8,8,0,16.16-.11,32.32.05,48.48,0,4-1.15,5.7-5.39,5.59q-13.74-.36-27.49,0c-4.34.12-5.33-1.7-5.31-5.65C571.76,152.7,571.7,126.38,571.7,100.06Z"/></svg>