<svg width="22" height="19" viewBox="0 0 22 19" fill="none" xmlns="http://www.w3.org/2000/svg">
<g clip-path="url(#clip0_9:115)">
<path d="M13.3412 0H8.65875C6.3632 0.00247681 4.16236 0.927365 2.53909 2.57175C0.91581 4.21613 0.00266792 6.44571 4.96782e-07 8.77133V9.22563C-0.000414756 10.0164 0.259508 10.7847 0.738626 11.4089C1.21774 12.0331 1.88868 12.4776 2.64524 12.6721L4.0955 13.043C4.04122 12.6131 4.0196 12.1797 4.03084 11.7464L2.94671 11.4691C2.45439 11.3424 2.01784 11.053 1.70618 10.6466C1.39452 10.2403 1.22556 9.74023 1.22605 9.22563V8.77133C1.22827 6.77469 2.01216 4.86048 3.40574 3.44865C4.79932 2.03682 6.68878 1.24266 8.65959 1.24041H13.3421C15.313 1.24266 17.2025 2.03679 18.5962 3.4486C19.99 4.86041 20.774 6.77461 20.7765 8.77133V9.22563C20.7767 9.74016 20.6076 10.2401 20.296 10.6464C19.9844 11.0527 19.548 11.3422 19.0558 11.4691L18.4982 11.612C18.4502 12.0616 18.3759 12.5079 18.2757 12.9486L19.3564 12.6712C20.1129 12.477 20.7838 12.0326 21.263 11.4085C21.7421 10.7844 22.0021 10.0163 22.0017 9.22563V8.77133C21.999 6.44541 21.0856 4.21558 19.462 2.57115C17.8384 0.926715 15.6371 0.00202645 13.3412 0Z" fill="#302718"/>
<path d="M11.2217 18.9991H10.8463C8.85186 18.9969 6.93976 18.1932 5.52949 16.7645C4.11922 15.3357 3.32595 13.3986 3.32373 11.378V6.26669C3.32373 6.1022 3.38823 5.94445 3.50304 5.82814C3.61784 5.71183 3.77355 5.64648 3.93591 5.64648C4.09828 5.64648 4.25399 5.71183 4.36879 5.82814C4.4836 5.94445 4.5481 6.1022 4.5481 6.26669V11.3823C4.5501 13.0739 5.2143 14.6957 6.395 15.8919C7.57571 17.0881 9.17652 17.761 10.8463 17.763H11.2217C12.8915 17.7612 14.4924 17.0884 15.6732 15.8921C16.8539 14.6959 17.5181 13.074 17.5199 11.3823V6.26669C17.5168 6.18325 17.5304 6.10005 17.5598 6.02205C17.5892 5.94406 17.6338 5.87288 17.691 5.81276C17.7482 5.75264 17.8168 5.70481 17.8926 5.67215C17.9685 5.63949 18.05 5.62265 18.1325 5.62265C18.2149 5.62265 18.2964 5.63949 18.3723 5.67215C18.4481 5.70481 18.5167 5.75264 18.5739 5.81276C18.6311 5.87288 18.6757 5.94406 18.7051 6.02205C18.7345 6.10005 18.7481 6.18325 18.7451 6.26669V11.3823C18.7417 13.4023 17.9479 15.3384 16.5375 16.7663C15.1272 18.1941 13.2155 18.9971 11.2217 18.9991Z" fill="#302718"/>
<path d="M7.71737 7.94609C8.35559 8.06775 8.76456 8.75091 8.63019 9.47065C8.49583 10.1904 7.86937 10.6762 7.23115 10.5537C6.59294 10.4312 6.18397 9.74885 6.31833 9.02911C6.4527 8.30937 7.07832 7.82358 7.71737 7.94609Z" fill="#302718"/>
<path d="M14.3515 7.94609C13.7132 8.06775 13.3043 8.75091 13.4386 9.47065C13.573 10.1904 14.1995 10.6762 14.8377 10.5537C15.4759 10.4312 15.8849 9.74885 15.7505 9.02911C15.6161 8.30937 14.9897 7.82358 14.3515 7.94609Z" fill="#302718"/>
<path d="M11.0009 12.809C11.9977 12.809 12.8055 13.0881 12.8055 13.6462C12.8055 14.3897 11.9977 15.1333 11.0009 15.1333C10.0041 15.1333 9.19623 14.3897 9.19623 13.6462C9.19539 13.0881 10.0032 12.809 11.0009 12.809Z" fill="#302718"/>
</g>
<defs>
<clipPath id="clip0_9:115">
<rect width="22" height="19" fill="white"/>
</clipPath>
</defs>
</svg>
