<svg id="Layer_1" data-name="Layer 1" xmlns="http://www.w3.org/2000/svg" viewBox="0 0 965.3 94.81"><path d="M487.27,46.17c0,5.48-.16,10.62.05,15.74.17,4.2,3.17,5.35,6.89,5.37-7.12,8.88-10.4,9-20.79.48,5.13-6.64,1.89-14.15,2.73-21.6H466c1.56,9.23-3.26,14.73-11.27,19V45.29l-12.56,5c-1.93-6.31,1.21-10.24,12.47-14.6a5.08,5.08,0,0,0,.26-1.82c-2-9.67,2.45-16,10.22-21,4.43-2.87,8.33-6.55,12.59-10l10.54,8.14a88.38,88.38,0,0,1,8.58-6.43,5.65,5.65,0,0,1,5,0c5.1,3.54,9.47,6.44,8.31,15-1.78,13.08-.5,26.59-.43,39.92,0,4.15.59,8.11,7,8.17a50.47,50.47,0,0,1-4.91,3.56c-2.33,1.27-6.35,3.76-6.95,3.13-2.71-2.83-5.66-6.36-6.32-10-1-5.78-.27-11.88-.27-18.19Zm11.14-10.63c0-4-.33-7.52.08-10.93.53-4.51-1.26-7.52-4.74-10-2.86-2.08-6.22-1.22-6.39,2.18-.33,6.19-.1,12.41-.1,18.79Zm-22.23,0c0-5.78.64-11-.27-16-.44-2.44-3.74-4.36-5.74-6.51-1.33,1.49-3.69,2.9-3.82,4.49-.45,5.91-.18,11.87-.18,18.06Z"/><path d="M66.49,10.07C67.91,17.5,65,22.56,58.13,23.94c-3.28.66-3.92,2-3.89,5,.13,12,.06,23.89.06,37.35l12.56-9.62,1,.63c-3,3.91-5.55,8.24-9,11.65-8.45,8.34-21.91,10.27-33,5.31C15.8,69.68,8.61,58.48,9.55,46.79c.4-5-.26-8.15-4.14-11.71A15.84,15.84,0,0,1,1.32,16.76C4.3,9.3,11,6.46,18.18,6.52c7.36.06,14.72,1.91,22,3.17C43.16,10.2,46,11.4,48.88,12,54.88,13.1,61,15,66.49,10.07ZM31.19,63.65c.58-2,1.42-3.53,1.44-5.09.15-11.94.19-23.89,0-35.84,0-1-1.43-2.52-2.49-2.85s-3.24.11-3.66.9C24,25.39,21.22,30,19.8,35,16.9,45.13,22.26,58.3,31.19,63.65ZM44.22,24c0,8-.33,15.63.1,23.22.37,6.54-2.07,11.24-7.25,14.86-1.17.82-2.22,1.81-3.32,2.72l.08,1.43c4.67.34,9.34.76,14,1,3.24.17,4.68-1.24,4.61-4.78-.2-10.49-.06-21-.08-31.47,0-2.09-.18-4.17-.28-6.49ZM25,18.38c-11.12-.91-16,1.09-18,7.14-1.65,5.09-.09,9.44,4.11,12Z"/><path d="M189.34,44.8c-2.77-.79-5.12-1.41-7.43-2.14-11.88-3.78-16.62-15.25-11-26.59,6.88-13.93,25.32-18.62,38.62-9.81,2.05,1.36,4.09,2.74,6,4L199.18,32.77c5.37,2.43,8.72,2.52,11.52-2.61,3.54-6.48,8.21-12.29,15.91-14.27,5-1.27,7.21,1,6,5.53,0,.13-.24.22-.37.32-9.27-4.66-15.77-.92-22.61,13,15.77,7,17.56,13.45,7.58,27.93-3.1,4.51-6.57,8.77-9.91,13.17-5.62-2.56-10.89-4.89-16.1-7.35-2.94-1.39-4.82-.79-7.26,1.65A75.68,75.68,0,0,1,169.7,81.71c-5.87,3.55-12.94,2.33-15.57-1.48-2.76-4-1.3-11.18,3.63-15.82,7.64-7.21,17.15-9.18,27.27-8.85,9.49.31,9.72.26,14.05-8.81-4.26-1.77-7.68-1.93-11.29,2.08-4.06,4.51-7.52,4.44-11.57.84C181.73,50.65,186,49.5,189.34,44.8Zm15.8-23.95c-6.09-7.44-19.6-10.7-28.25-6.93-5.27,2.31-6.34,7.47-1.76,10.9a44.3,44.3,0,0,0,11.4,5.82c10,3.63,10.1,3.47,15.74-5.22C203.26,23.9,204.2,22.35,205.14,20.85Zm-20,46c-9.6-2.64-17.78-1.82-25.54,2.32-3.41,1.82-6.07,4.64-4.48,8.84s5.41,4.44,9.23,3.7C173.21,80,178.9,73.88,185.13,66.88Zm28.38-1.83c4.21-7.1,2.8-11.64-4.61-15.47-7.2-3.72-9.35-2.59-13.69,7Z"/><path d="M226.36,31.51c5.87-5.2,6.59-5.51,11.7-1.56a8.19,8.19,0,0,1,2.8,5.61c.29,12,.2,24,.25,36a3.06,3.06,0,0,0,.3.93c5,.55,6.91-.83,7-5.49.11-9.82.12-19.65,0-29.47,0-1.79-1.08-3.57-1.8-5.78,1.34-.87,3-2,4.64-3,4.09-2.52,8.32-.22,8.38,4.72.11,9.49.07,19,0,28.47,0,8-5.44,13.8-13.56,14.2a79,79,0,0,1-9.44-.59c-1.82-.13-3.89-.9-5.4-.29-1.88.76-3.31,2.64-4.93,4,1.79,1,3.57,2.81,5.35,2.82,5.8,0,11.63-1.16,17.39-.86,6.92.36,9.36,5.8,6.74,10.71-6-.15-11.27-.38-16.56-.4-2.48,0-5,.56-7.44.59-4.39,0-8.06-1.66-9.27-6.07s-.2-8.94,4.06-11.36c2.9-1.64,3.25-3.61,3.21-6.45-.13-9.32.18-18.66-.2-28C229.4,37.47,227.59,34.76,226.36,31.51Z"/><path d="M790.59,83.91h15.55c-4.36,8.15-7.07,8.83-25.53,6.27,2.46-2,4.2-3.1,5.66-4.53,6.23-6.13,9.58-13.43,9.23-22.36a140.07,140.07,0,0,1,.07-18c.51-5.65-2-8.61-7.41-10.66-.67,9.87,1.73,20.92-11,26,0-4.27,0-8.47,0-12.67,0-9.16-.16-18.33.19-27.49C777.77,10.09,789.91-.68,800.25.39,803.74.75,807,3,811.77,5l-10.94,7.78c-2.65-2.29-4.83-4.66-7.45-6.32-3.29-2.07-5.31-.79-5.36,3.12-.09,7,0,14,0,22l10.24-6.06c6.26,4,10,8.91,8.87,16.81a51.06,51.06,0,0,0-.05,12c1,11.26-3.74,19.64-12.48,26.19C793.54,81.22,792.63,82.13,790.59,83.91Z"/><path d="M400.28,92c-4.7-.42-8.53-1-12.35-1-4,0-8,.94-11.94.92-4.3,0-7.91-1.89-9.1-6.38S367,77,371,74.64c2.7-1.6,3.47-3.29,3.41-6.27-.2-9.49-.09-19-.07-28.49,0-3.62-.93-6.61-5-7.76,1.5-1,3-2,4.54-3,2-1.23,3.73-3.24,6.62-1.12,2.72,2,5.18,3.34,5.05,7.6-.37,12.12-.13,24.26-.13,36.32,5.49,1,7.68-.54,7.76-5.49q.21-14.49,0-29c0-1.77-1.19-3.52-2-5.83a23.38,23.38,0,0,1,4.39-2.92c1.61-.66,4.14-1.42,5.17-.65,1.68,1.25,3.39,3.66,3.47,5.64.37,9,.17,18,.16,27,0,9.4-6.22,15.49-15.73,15.2-3.48-.1-6.94-.81-10.43-1.08-1.44-.12-3.2-.3-4.31.39-1.37.84-2.21,2.55-3.29,3.89,1.52,1,3,2.84,4.55,2.85,4.14,0,8.27-.83,12.41-1.17a25.68,25.68,0,0,1,6.44.06C400.64,82.05,402.81,86.62,400.28,92Z"/><path d="M86.31,70.14c-8.38,6-5.85,5.88-14.46-.26.6-2.42,1.63-4.68,1.65-7q.21-23,0-46c0-3.28-1-6.56-1.74-11L85.68.68V33.47c2.59-1.61,5.16-3.22,7.74-4.81a6.36,6.36,0,0,1,9.9,5.51c.07,8.66-.13,17.33.09,26,.09,3.32,1,6.61,1.71,10.59l-9.43,7c-.44-1.53-.91-3.3-1.45-5-.66-2.15-1.89-4.27-2-6.43-.24-7.82-.06-15.66-.12-23.49,0-1.45,0-3.22-.73-4.28-1.06-1.48-2.86-2.42-4.34-3.59-.73,1.66-2,3.3-2.08,5-.24,7.15-.23,14.33,0,21.49C85,64.2,85.8,67,86.31,70.14Z"/><path d="M679.06,88.93l17.65-14.56c-8.66-4.71-9.05-12.68-9-20.87.07-6,0-11.91,0-17.74,7.13-2.9,14.17-5.82,21.25-8.62,2.91-1.16,9.29,4.65,9.34,8.58.09,7.65-.28,15.32.17,22.94a24.59,24.59,0,0,0,3.13,10.07c1.63,2.92,2.11,5.4-.26,7.63-5.78,5.45-11.71,10.77-17.78,15.89a4.84,4.84,0,0,1-4.43.32c-6.2-3.53-12.5-5.3-19.59-2C679.41,90.05,679.24,89.49,679.06,88.93Zm19.88-55.51c0,9.45-.16,18.28.15,27.08.06,1.69,1.8,3.48,3.11,4.91.76.84,2.68,1.77,3.26,1.39a5,5,0,0,0,1.91-3.51c.19-5.63-.41-11.32.22-16.89C708.36,39.59,704.09,36.83,698.94,33.42Zm-6.83,47.1c5.38,1.28,10.19,2.07,14.74,3.62,4.06,1.39,6.22.41,6.34-4.08.13-5-2.88-8.2-6.74-11.26C701.51,72.84,696.7,76.78,692.11,80.52Z"/><path d="M295.38,66.3c-6.19,2.81-11.88,5.43-17.62,8a3.29,3.29,0,0,1-2.23.06c-5.78-2.12-8.87-6.76-8.87-13.12V34.83l9.91-5.16c-8-5.48-12.85-11.89-9.23-21.93,1.42,1.24,3,2.54,4.49,3.91,7,6.41,14,12.78,20.89,19.3,1.21,1.14,2.51,2.93,2.55,4.44C295.49,45.85,295.38,56.32,295.38,66.3Zm-10.92,1.32c0-8.86-.31-17.31.11-25.71.26-5-2.2-7.51-6.89-10.19,0,9.26.3,17.82-.11,26.35C277.33,63,279.1,65.87,284.46,67.62Z"/><path d="M936.45,35.06l10.12-5.38c-8.91-5.21-12.35-12.14-9.49-22,9.16,8.41,18.21,16.63,27.11,25,.87.82,1,2.71,1,4.1.07,9-.09,18,.08,27,.05,2.92-1,3.89-3.75,4.64a62.49,62.49,0,0,0-11,4.5c-5.59,2.77-14-2-14-8.22C936.39,54.89,936.45,45.07,936.45,35.06Zm11.32-3c-.13,2.07-.31,3.63-.32,5.19,0,7.13.33,14.27-.13,21.37-.34,5.36,2.27,7.63,7,9.24,0-8.69-.36-17,.13-25.23C954.77,37.44,952.35,34.73,947.77,32Z"/><path d="M682.08,70.12l-7.21,4.71c-3.77-1.77-5.21-4.82-5.21-8.77,0-7.66,0-15.31,0-23,0-1.32.25-3-.43-3.88-1.2-1.57-3-2.67-4.6-4-.74,1.66-2.08,3.29-2.14,5q-.35,11,0,22c.07,2.58,1,5.14,1.7,8.27l-7.31,4.67-8-5.26c4.38-6,3.26-32-1.68-36.52l10.12-6.51c2,2.4,3.79,4.67,5.75,7.08,2.29-1.45,4.54-3.26,7.09-4.39,2-.87,4.56-1.64,6.51-1.12,3,.81,4.49,3.15,4.37,6.82-.32,9.48-.17,19-.06,28.46A43.16,43.16,0,0,0,682.08,70.12Z"/><path d="M585.41,33.49l10.38-6.64,5.75,6.95A34,34,0,0,1,606.26,31c2.81-1.16,4.42-4.88,8.68-3.08,5.25,2.23,4.3,6.38,4.32,10.41,0,8.31-.06,16.63,0,24.95a54.8,54.8,0,0,0,1.06,7l-8.72,5.53c-1.26-3.88-3-7.08-3.24-10.37-.46-7.46-.12-15-.15-22.45,0-1.3.2-3-.49-3.83-1.24-1.56-3.08-2.63-4.67-3.91-.68,1.69-1.9,3.36-2,5.06-.22,7.48-.19,15,0,22.46.06,2.3.84,4.59,1.38,7.32-6.41,5.82-6.41,5.82-14.67,0C591.7,61.4,590.43,37.65,585.41,33.49Z"/><path d="M317.38,70c-8.63,6.25-5.94,6-14.81-.2,3.9-7.65,2.44-32.7-2.48-36.36l10.5-6.72,5.65,7a66.91,66.91,0,0,1,7.4-4.47c1.84-.84,4.29-1.63,6.06-1.1,2.86.87,4.72,2.85,4.58,6.67-.37,9.64-.17,19.3-.08,29a47.65,47.65,0,0,0,1,6.33c-1.92,1.25-4.53,3-7.13,4.66-3.81-2-5.08-5.08-5-9.1.13-7.49.05-15,0-22.48,0-1.31.25-3-.41-3.87-1.18-1.64-3-2.84-4.51-4.22-.81,1.76-2.27,3.5-2.33,5.28-.22,7.32-.14,14.65.09,22C316,64.86,316.82,67.31,317.38,70Z"/><path d="M548.54,66.93c-6.07,2.66-11,5-16.11,6.93a8.42,8.42,0,0,1-5.63-.34c-5.78-2.41-7.47-6.91-7-13.14.55-8.26.13-16.58.13-24.67,6.74-2.87,13.26-5.69,19.83-8.41,2.67-1.11,8.73,3.81,8.78,7.37C548.62,45.62,548.54,56.57,548.54,66.93ZM530.9,33.1c0,9.1.29,17.39-.1,25.65-.24,5,1.73,7.65,6.78,9.06,0-7.75-.33-15.21.11-22.62C538,39.92,536.05,36.39,530.9,33.1Z"/><path d="M905.68,69.62l-8.34,5.8c-1.68-2.91-3.26-5.66-5.09-8.82L877.89,75c-10.07-6.51-8.85-17.29,3-24.28-4.1-4.91,3.39-13.18-6.1-16.76l8.83-6.94L890.33,33l8.49-6.13c4.38,2.19,6.37,5.26,6.11,10.34-.43,8.3-.18,16.64-.08,25A75,75,0,0,0,905.68,69.62ZM893,53c0-4.91.21-9.36-.06-13.78-.25-3.89-2.39-4.77-5.68-2.47-3.64,2.53-7.13,5.59-5.6,10.56S887.45,53,893,53Zm-.49,2.57c-2.47-.59-4.93-1-7.29-1.77-4.18-1.36-6.25-.19-5.72,4a21.79,21.79,0,0,0,3,7.74c1.29,2.27,3.11,2.45,5.86,1.21C893.84,64.24,893.37,60.14,892.46,55.52Z"/><path d="M929.16,69.74c-9.27,5.93-6.36,6.69-15.22.16.52-2.43,1.43-4.73,1.45-7,.12-15.82.16-31.65,0-47.47,0-3.27-1.09-6.54-1.85-10.79L928.25,0C925.25,17.32,926,65.49,929.16,69.74Z"/><path d="M554.82,32.52c11.19-7.67,8.61-6.59,14.9,1l8.74-5.36c1.65,2.25,3.26,4.46,4.8,6.59-2.52,4.68-10.85,5.63-7.55,13.32-3.31-2-3.31-2-.68-7.77l-4.22-4.86L569,36c.93,11-1.91,22.09,2,33.34-8.93,6.84-6.59,7.24-15.71-.86C558.81,63.34,558.54,36.89,554.82,32.52Z"/><path d="M360.4,26.52l8.67,15.6c-4.19,2.75-8.25,5-11.81,7.93a9.55,9.55,0,0,0-3.3,5.86c-.53,5.74-1.35,12,7.77,14.49-4,1.91-6.87,4.53-9,4-3.53-.82-6.67-3.56-9.78-5.76-.65-.47-.59-2.15-.59-3.27-.05-8.15-.12-16.3.07-24.44a5.7,5.7,0,0,1,2-4C349.43,33.43,354.66,30.23,360.4,26.52Zm.57,19-6.73-10.83V49.78Z"/><path d="M831.61,26.62l8.66,15.61c-4.17,2.72-8.45,5.2-12.34,8.2a7.76,7.76,0,0,0-2.74,5.14C824.88,61.4,823.36,68,832,70c-6.52,5.39-13.08,4.81-17.72-1.14a5.58,5.58,0,0,1-.8-3.22c-.07-8.14-.1-16.28,0-24.42,0-1.31.54-3.16,1.49-3.82C820.26,33.75,825.75,30.38,831.61,26.62ZM825.31,50l6.84-4.53-6.84-10.93Z"/><path d="M128.35,26.54c3,5.42,5.74,10.29,8.71,15.6-4,2.6-7.63,5.17-11.47,7.39-2.73,1.58-4,3.47-3.86,6.77.2,5.64-1.23,11.76,6.86,13.57-6.15,5.36-13.48,4.69-17.67-1.09a5.08,5.08,0,0,1-.62-2.8c0-8.31-.14-16.62.08-24.92a6.31,6.31,0,0,1,2.34-4.36C117.58,33.26,122.7,30.17,128.35,26.54Zm.59,18.9L122.17,34.6V49.88Z"/><path d="M857.13,36.11c1,10.86-1.89,21.93,2,33.18-9.66,7.78-6.5,6.44-15.68-.63,3.59-5.57,3.31-31.77-.37-35.74,8.12-7.41,8.38-7.4,14.86.51,1.37-.83,2.77-1.66,4.17-2.52l4.53-2.84,5,7L864,41.65l-5-6.21Z"/><path d="M626.71,31.8l7.78-5.17c5,1.91,6,5.48,5.86,10.31-.32,8.64-.28,17.31,0,26,.08,2.26,1.81,4.47,3.09,7.41L635,74.75c-4.47-2.67-6.34-6.09-6.07-11.24.43-8.14.26-16.32,0-24.47C628.91,36.86,627.66,34.72,626.71,31.8Z"/><path d="M773.75,16.77c0,9.93-.12,20,0,30.06.11,7.29-3.81,11.65-10.61,15.33,0-3.43,0-6.31,0-9.18-.1-5.46-1.2-6.45-6.61-5.39a53.94,53.94,0,0,0-6.94,2.34c-1.64-5.22.71-9.57,7.57-10.92,5-1,6.15-3.2,6.26-7.88C763.62,23.76,769.67,20.39,773.75,16.77Z"/><path d="M762.57,91.09c-.57.86-1.68,3.77-2.62,3.72-2.7-.15-6.93-.82-7.66-2.53a23.07,23.07,0,0,1-1.72-12.36c1.9-10.91,14.18-18.86,25.18-17.23,5.18.77,8.71,3.75,11.87,8.23-2.59,1.91-4.92,4.14-7.68,5.44-1.16.54-3.53-.52-4.87-1.5-10-7.4-22.07-3.25-23.53,8.48-.3,2.46.62,6.26,2.35,7.46S759.25,91.09,762.57,91.09Z"/><path d="M466,61.21c-.44,12.65-4.54,16.28-15.13,13.92-1-.21-1.91-.57-2.88-.75-4-.72-8.09-1.64-10.19,3.37a9.43,9.43,0,0,0,4,11.66c4.29,2.47,10.3,1.86,12.69-1.67,1-1.46,1-3.61,1.43-5.37a4.41,4.41,0,0,1,.09,8,17.9,17.9,0,0,1-10.27,2.27c-7.82-1-12.33-9.69-10.42-18.62,1.44-6.71,6.86-9.62,15.13-8.11C460.34,67.71,460.34,67.71,466,61.21Z"/><path d="M743.16,16c-.44-7.48,5.18-12.72,13.91-11.21,6.94,1.2,13.74,3.25,21,5-5.8,4.73-11.4,9.21-19.62,6.4A19.86,19.86,0,0,0,752.09,15,78.88,78.88,0,0,0,743.16,16Z"/><path d="M468.69,7.34c-4.93,4.64-9.46,8.07-16.48,6.3-8-2-10.51-.65-12.49,5.73-2.49-3.66-1.89-7,.58-10.08,4.4-5.45,10.28-7.19,17-5.69C460.94,4.43,464.46,5.93,468.69,7.34Z"/><path d="M641.57,15l-6.91,4.82-5.81-5.26,6.76-5.24Z"/><path d="M98.64,91.16c-2.29-.36-5.42,0-6.64-1.3-1.4-1.53-1.09-4.61-.67-7.3-.11,5.29,3.13,6.6,7.71,6.57Z"/></svg>