<svg width="171" height="166" viewBox="0 0 171 166" fill="none" xmlns="http://www.w3.org/2000/svg">
<path d="M43.568 12.4588C19.4761 26.1772 3.21979 52.3027 0.419627 79.8847C-1.78339 101.673 4.64812 125.006 20.5937 140.04C27.4045 146.467 35.6597 151.188 44.2055 155.025C76.0806 169.353 115.541 171.068 144.596 151.62C168.785 135.428 174.76 106.611 167.167 79.4409C151.419 23.1027 101.79 -20.6872 43.568 12.4588Z" fill="#D9CCA7"/>
<path d="M90.2124 50.2866C88.2937 57.6524 87.7923 65.1059 96.2518 68.3942C104.711 71.6825 106.521 64.6893 107.001 56.7755C107.393 50.0235 104.406 43.973 100.351 42.4166C96.2954 40.8601 91.8476 44.0169 90.2124 50.2866Z" fill="#73A641"/>
<path d="M78.7876 50.2866C80.7063 57.6524 81.2077 65.1059 72.7482 68.3942C64.2886 71.6825 62.4789 64.6893 61.9993 56.7755C61.6068 50.0235 64.5938 43.973 68.5402 42.4166C72.4865 40.8601 77.1524 44.0169 78.7876 50.2866Z" fill="#73A641"/>
<path d="M113.563 70.7178C110.707 77.2944 109.203 83.871 116.79 87.2689C124.378 90.6668 127.038 84.419 128.586 77.3163C129.916 71.2659 127.91 65.6757 124.225 64.1631C120.54 62.6505 115.984 65.0619 113.563 70.7178Z" fill="#73A641"/>
<path d="M55.4366 70.7178C58.2928 77.2944 59.7972 83.871 52.2097 87.2689C44.6223 90.6668 41.9623 84.419 40.4143 77.3163C39.0843 71.2659 41.0902 65.6757 44.7749 64.1631C48.4596 62.6505 53.0164 65.0619 55.4366 70.7178Z" fill="#73A641"/>
<path d="M84.5 71.6387C62.697 71.6387 46.4973 101.102 51.7955 117.061C57.0936 133.02 73.9255 127.036 84.5 127.036C95.0745 127.036 111.841 132.998 117.205 117.061C122.568 101.124 106.303 71.6387 84.5 71.6387ZM101.332 106.714H89.7546V118.354H79.2455V106.714H67.6681V96.1255H79.2455V84.5069H89.7546V96.1255H101.332V106.714Z" fill="#73A641"/>
</svg>
