<svg id="Layer_1" data-name="Layer 1" xmlns="http://www.w3.org/2000/svg" viewBox="0 0 2518.52 463.62"><defs><style>.cls-1{fill:#37aac7;}.cls-2{fill:#36a9c6;}.cls-3{fill:#37aac6;}</style></defs><path class="cls-1" d="M2105.81,210.8V8.39h107.65V462c-1.37.1-2.66.27-3.95.27-38.27-.2-76.54-.46-114.8-.58-3.44,0-5.25-.75-6.09-4.49-9.92-44.21-20.34-88.31-29.9-132.6-3.81-17.64-5.81-35.67-8.66-53.51a11.49,11.49,0,0,0-2.13-5.55V462H1944.62V8.48h118.82c14,67.63,33.14,133.85,40.68,202.49Z"/><path class="cls-1" d="M1775.88,462.11h-121c-.08-1.72-.21-3.29-.21-4.86q.24-192,.67-384.07A69.94,69.94,0,0,1,1669.05,32c9-12.4,22.41-17.35,36.64-20.85,20.85-5.13,42.08-4.68,63.27-4.57,25.51.13,51,.18,76.51,1.29a121.79,121.79,0,0,1,33.1,5.72c23.18,7.8,36.81,24.64,40.52,48.95,1.4,9.2,2.71,18.54,2.74,27.82q.7,183.8,1,367.6c0,1.29-.15,2.58-.25,4.08H1801.65v-4.76c-.08-23.74.16-47.48-.36-71.21-.26-12,1.56-11.63-11.75-11.61-4.23,0-9.83-.9-12.29,1.35-2.16,2-.94,7.79-1,11.92q-.27,34.49-.4,69C1775.87,458.37,1775.88,460,1775.88,462.11ZM1801,292.26c0-2.09,0-3.27,0-4.44q-.09-87.85-.22-175.71a91.93,91.93,0,0,0-.87-14.18,12.78,12.78,0,0,0-3.57-6.8c-6.75-6.41-16.79-3.21-19.76,6.63-1.42,4.69-1.5,9.93-1.48,14.91q.38,78.3,1,156.58c0,6.22.53,12.44.66,18.67.06,2.63.91,4.32,3.76,4.34C1787.19,292.28,1793.83,292.26,1801,292.26Z"/><path class="cls-2" d="M2360.32,141.76c1.27-7.22,2.88-14.39,3.75-21.65,4.4-37,15.22-72.73,23.17-109,.54-2.45,1.61-3.08,3.9-3.07q56.28.38,112.57.65a34,34,0,0,1,3.93.51c-2.5,7.28-4.82,14.24-7.29,21.15q-20.91,58.56-41.83,117.11c-1,2.91-2.49,4.65-5.6,5.48-5.55,1.48-11,3.43-17.16,5.41,3.87,2.34,7.16,4.29,10.41,6.31,5.48,3.39,5.69,7.57.23,11.23-3.93,2.62-8.23,4.69-12.4,6.94-3.91,2.11-7.87,4.13-11.8,6.2-.26.13-.47.34-.33.23,4.77,5.1,9.59,10.23,14.39,15.39a89.63,89.63,0,0,1,6.57,7.23c2.93,3.93,2.18,6.67-2.44,8.12-8.9,2.78-17.93,5.12-26.88,7.73-6.75,2-13.47,4.07-20.2,6.11,0,.45,0,.89-.08,1.33,1.34.66,2.64,1.41,4,2,8.23,3.34,16.52,6.54,24.71,10,5.38,2.25,5.7,3.76,1.32,7.75-5.58,5.1-11.45,9.88-17.27,14.7a28.8,28.8,0,0,1-4.15,2.41c.4.68.8,1.36,1.19,2l36.77,5.88.48,1.73-38.64,24.74,37.57,13.21.33,2c-4.83,3.24-9.68,6.45-14.49,9.73s-9.33,6.48-14,9.72c.18.49.36,1,.53,1.46l49.49,10.73.32,1.69c-2.62,1.71-5.2,3.49-7.88,5.11-7.35,4.42-14.76,8.76-22.11,13.19a29.86,29.86,0,0,0-3.29,2.68c.05.43.1.85.14,1.28l41.12,7.27c-6.5,5.07-12.14,9.28-17.52,13.8-1.67,1.4-2.63,3.65-3.91,5.51,2.26.84,4.51,2.34,6.79,2.41,9.93.31,19.87.19,29.81.26,7.26.06,8,.8,5.92,7.73-1.21,4-3.54,7.7-5.32,11.56-.59,1.27-1.73,2.93-1.33,3.84s2.39,1.67,3.7,1.69c6.22.13,12.46.13,18.68-.12,2.69-.12,4,.65,4.7,3.31,2.08,7.56,4.43,15,6.64,22.58.36,1.23.54,2.51,1,4.58H2397.41c-12.79-65.72-25.62-131.62-38.62-198.44V462.07H2237.62V8.45h121V141.6Z"/><path class="cls-3" d="M727.43,462.88H624.57c0-1.68,0-3.59,0-5.5-.15-24.83-.26-49.67-.5-74.5-.06-6.93-.69-7.43-7.41-7.6-3.79-.1-7.59,0-12.17,0v87.8H500.32v-5.5q.38-184.24.91-368.49a216.5,216.5,0,0,1,3.59-37.68c4.48-24.47,20.34-38.29,44.31-42.68C560.39,6.65,571.92,5,583.33,5c27.15,0,54.33.43,81.44,1.75,16.7.82,32.46,5.39,44.61,18.34C720,36.48,724,50.48,725,65.27c1.46,21.27,2.62,42.6,2.67,63.9q.36,164.25.07,328.5C727.72,459.14,727.56,460.6,727.43,462.88ZM624,292.69c0-1.86,0-3.16,0-4.47q.13-73.47.27-146.93c0-12.66-.16-25.32-.37-38-.08-5.06-.84-10-5-13.61-3.37-2.93-6.54-3.31-10.14-.18-3.79,3.29-4.71,7.48-4.72,12.11q-.33,81.7-.59,163.4c0,9.13.73,18.25,1.13,27.66Z"/><path class="cls-1" d="M752.61,6.77c1.24-.09,2.07-.2,2.89-.2,49.16.33,98.32.33,147.46,1.22a155,155,0,0,1,36.42,5.37c22.59,6,34.55,22,37.5,44.84a435.77,435.77,0,0,1,.43,106.69C974.93,185,965.5,201.6,946.3,212a29.5,29.5,0,0,0,3.1,2.85c17.13,11.49,26.9,27.5,28.62,48,1.12,13.42,1.76,26.93,1.83,40.4.27,51.82.24,103.65.31,155.48,0,1.31-.12,2.63-.2,4.28H877c-.11-1.91-.31-3.83-.32-5.74-.26-48.33-.42-96.66-.8-145-.1-13.83-.46-27.67-1.37-41.46-.66-9.89-2.67-11.22-12.54-11.37-1.48,0-3,0-5.41,0V463.08h-104ZM876,128.46h-.65c0-9.3.43-18.63-.11-27.89-.6-10.13-3.1-12-13.18-13.3-4.28-.56-5.75.86-5.7,4.92q.39,35.64.65,71.28c0,3.58,1.83,4.59,5.07,4.37,8.66-.6,13.36-5.11,13.83-14.46C876.32,145.09,876,136.77,876,128.46Z"/><path class="cls-1" d="M251.61,6.82H353.24c0,2.22,0,4.18,0,6.13q.35,62.25.73,124.48c.07,8.14.41,8.24,8.64,8.31,3.64,0,7.29,0,11.88,0V6.85h104V463H375.05v-5.94q-.12-101-.26-202c0-7.5-.55-15-.66-22.49-.05-3.05-1.23-4.81-4.31-4.86-5.12-.09-10.23,0-16.16,0V462.86H251.61Z"/><path class="cls-1" d="M.09,272.92H102.42c0,2.23,0,4.18,0,6.14.52,27.66.83,55.32,1.78,83,.17,4.86,2.67,9.79,4.78,14.37,1.31,2.85,4.35,3.56,6.32.43,2.25-3.57,5.41-7.49,5.52-11.33.77-26.45,1-52.92,1-79.38,0-6.37-3.42-11.41-9.12-14.59-16.13-9-32.41-17.73-48.37-27-10.92-6.36-21.47-13.35-32.07-20.25-20.25-13.17-30.63-32-31-56.08C.74,136,.15,103.88.28,71.74c0-9.21,1.91-18.56,4-27.6C9.08,23.5,21.68,10.38,42.75,5.42,61.23,1.07,79.93-.25,98.79,0c21.66.34,43.34.48,65,1.67,9.17.51,18.44,2.74,27.24,5.53,13.62,4.31,23.37,13.76,27.93,27.27,3.09,9.19,5.63,19,6,28.58,1.28,30.46,1.44,61,2,91.46,0,.8-.08,1.61-.15,2.72H123.07c0-1.59,0-3.34,0-5.09-.32-16.82-.34-33.66-1.14-50.46-.26-5.51-2.23-11-4.09-16.32-.69-2-3.46-4.75-5-4.58-2,.23-4.8,2.62-5.53,4.7-1.81,5.1-3.48,10.52-3.71,15.87a416.74,416.74,0,0,0-.15,42c.27,4.6,3.53,10,7.07,13.24a136.76,136.76,0,0,0,23.1,17.09c12.79,7.42,26.39,13.43,39.31,20.65a280,280,0,0,1,24.69,16c19,13.37,28.05,32,28.15,55.07.18,42,.35,84,.12,126a102.21,102.21,0,0,1-3.19,23.7c-6.3,25.62-23.53,39.87-49.12,43.08-41.14,5.17-82.38,5.71-123.54-.53-27.59-4.19-45.94-24.61-47.84-52.79C.86,384.93.45,364.92.17,344.94-.16,321.12.09,297.28.09,272.92Z"/><path class="cls-3" d="M1005.86,463V6.89h102.58V133.22l.66,0L1131.78,6.81h102.1c-1.24,5.05-2.17,9.72-3.53,14.27q-25.8,86.28-51.61,172.57a19.11,19.11,0,0,0-.36,9.58q31.45,126.14,63.22,252.2c.48,1.92.87,3.87,1.29,5.76-5.29,2.69-84.43,3.42-102.43.79-10.46-62.34-21-125.11-31.71-188.91V463Z"/><path class="cls-1" d="M1579.68,86.85V461.94H1457.17V456.5q-.12-159.53-.25-319c0-14.83-.62-29.66-.5-44.49,0-4.69-1.87-5.93-5.94-5.94-15,0-30-.16-44.94-.24-1.17,0-2.35,0-3.9,0V8.34H1635V86.85Z"/></svg>