<svg id="Layer_1" data-name="Layer 1" xmlns="http://www.w3.org/2000/svg" viewBox="0 0 5000 879.98"><defs><style>.cls-1{fill:#00417b;}.cls-2{fill:#b2c9d9;}.cls-3{fill:#9aafbd;}.cls-4{fill:#00417a;}.cls-5{fill:#b1c8d8;}.cls-6{fill:#5c6870;}.cls-7{fill:#80909b;}.cls-8{fill:#566168;}.cls-9{fill:#011e39;}.cls-10{fill:#47525a;}.cls-11{fill:#353e44;}</style></defs><path class="cls-1" d="M5000,669.42c-4-.1-8-.28-12-.28q-114,0-228,0H4747c-2.68-8.43-1.46-16.09-1.46-23.58,0-18.15-2.15-14.52,13.61-22.39,9.53-4.76,19-9.69,28.84-13.81,6.55-2.75,8.59-6.81,8.54-13.76-.3-40.66-.14-81.32-.15-122,0-44-.2-88,0-132,.1-17.41-6.44-31.14-20.74-40.89-10.75-7.32-23.2-10.23-35.92-11a159.13,159.13,0,0,0-60.06,7.87c-9.63,3.19-9.69,3.23-9.7,13.24q-.06,53.49,0,107c0,58.65.17,117.31-.19,176-.05,8.18,2.24,12.78,10,15.8,9.6,3.75,18.57,9.1,28.12,13,6.64,2.69,8.86,6.72,8.51,13.69-.53,10.57-.13,21.18-.13,31.44-8.86,2.49-239.69,2.73-250.67.26,0-8.87-.24-18.08-.09-27.29.24-15.5-2.72-13.48,13.49-19.9,9.91-3.92,19.73-8.09,29.72-11.79,5.05-1.88,7.86-4.7,7.18-10.33a41.68,41.68,0,0,1,0-5c0-96.64-.11-193.29.2-289.94,0-8.48-2.1-13.35-10.22-16.68-12.92-5.3-25.26-12-38.06-17.68-5.67-2.52-8.06-6-7.68-12.25.47-7.63.29-15.33.08-23-.13-5.12,1.45-7.82,7.05-8.68,38.16-5.84,76.28-12,114.41-18q35.51-5.62,71-11.18c3.86-.6,7.78-.75,13.12-1.23v63.12c2.33-.75,3.41-.79,4-1.34,29.91-27.14,65.22-43.36,104.42-51.71,28.88-6.14,58.08-8.65,87.33-4.06,45.55,7.13,72.5,35,84.52,78.61,3.57,13,4.51,26.18,4.5,39.57q-.12,131.48,0,263a145.88,145.88,0,0,0,1,18.93c.33,2.55,2,6.15,4,7,14,6.17,28.27,11.77,42.46,17.49.54.22,1.3-.12,1.95-.2Z"/><path class="cls-2" d="M202,681.59c-13.27-.37-26.78.7-39.78-1.39-37.11-5.94-62.3-28.08-78.17-61.44A113.51,113.51,0,0,1,73,568.58c.53-90.21.62-180.43.85-270.65,0-3.64,0-7.28,0-12.21l-69.74-.8L0,281.41v-64c12.47-1.59,25-3,37.42-4.81,11.13-1.6,22.21-3.59,34.19-5.55V122.6L223.3,100v109.6c8.84,0,17.34.08,25.84.1,8.33,0,16.66,0,25,0h51.41v77.11h-98.9c-.19,3.45-.47,6-.46,8.6q.33,110.93.74,221.86.06,18,.53,36c.72,26.86,22,46.7,48.92,45.79,14.65-.5,29.29-1,43.94-1.51,3.92-.13,7.85,0,12.58,0V615c0,11-.3,22,.13,33,.2,5.42-1.52,9-6.31,11.19-6.35,2.85-12.57,6.2-19.18,8.24-23.28,7.18-47.5,9.11-71.53,12.07l-6,.2-20,1.69Z"/><path class="cls-3" d="M0,281.41l4.08,3.51L0,285.41Z"/><path class="cls-4" d="M1747.92,265.48c4.53,5.29,9.14,10.51,13.57,15.88,23.7,28.71,33.6,61.23,28.92,98.54-4,32.08-16.81,59.41-40.29,81.53-17.45,16.44-38,28-60.41,36.36-31.17,11.63-63.48,18.16-96.66,18.59-25.69.34-51.13-3.5-76.06-10-4.2-1.09-7.84-1.22-11.23,1.68-10.5,8.95-14.32,20.37-12.83,33.92,1.53,13.85,9.39,22.54,22.17,26.76a48.33,48.33,0,0,0,14.8,2c57,.13,114,.79,171-.28,19.51-.37,38.59,0,57.43,4.75,49.22,12.28,78.59,46.62,85.59,97.75a192.74,192.74,0,0,1-5.22,79.18c-12.09,43-39.61,73.24-78.47,93.84-27.08,14.36-56.28,22.15-86.29,27.48-40.3,7.15-81,7.53-121.56,5.43-43-2.22-85.48-8.65-126.3-23.34-18.29-6.57-35.42-15.25-50.8-27.36-39-30.68-33.09-78.56-7-104.33,18.13-17.89,39.83-28.69,63.56-36.29,6.83-2.19,13.81-3.92,21.46-6.07-10.71-5.53-20.72-10-30-15.63-18.26-11.22-31.6-26.61-36.12-48.19-3.44-16.45-1.37-32.45,5.52-47.83,9.86-22,24.72-40.24,42.79-55.92,9.28-8,19-15.57,29.77-24.35-3.37-2.35-6.13-4.4-9-6.26-30.15-19.52-52-45.68-62.66-80.24-19.08-61.62-.94-137.38,67.24-175.78,28.27-15.93,58.82-24.52,90.58-30,40.53-7,79.52.22,118.24,11.22,5.12,1.46,10.49,2.42,15.29,4.61,11.55,5.27,23,4.48,35.12,2.09,33.64-6.66,67.39-12.7,101.12-18.91,2.2-.41,4.51-.27,7.89-.45v89c-2.88-.54-5.71-.87-8.44-1.6-20.92-5.56-41.8-11.27-62.74-16.77-3.16-.82-6.53-.82-9.81-1.19l-1-.77Zm-161.45,444v.14c-28.62,0-57.24.13-85.86-.11-5.87,0-10.2,1.79-13.88,6.19-18.12,21.71-22.6,59.86,7.18,83.72,13,10.45,28.09,16.48,44.22,19.81,31,6.39,62.17,6,93.3,1.56,15.84-2.28,31.18-6.77,45.29-14.79,19.08-10.83,31.11-26.63,34.78-48.5,4.11-24.53-5.66-40.29-29.34-46.7a45.82,45.82,0,0,0-11.82-1.26C1642.39,709.43,1614.43,709.48,1586.47,709.48Zm-52.51-353h.07c0,14.33-.7,28.7.24,43a117,117,0,0,0,5.73,28.19c3.42,10.51,11.12,17.91,21.27,22.69,10.6,5,21.81,5.55,33.21,5.36,18-.3,31-8.81,39.63-24.31,6.76-12.2,9.75-25.52,9.86-39.34.2-24.66.6-49.34-.42-74a132.77,132.77,0,0,0-6.49-34.16c-8.73-27.44-33.24-37.06-58.58-33.57-14.3,2-25.26,9.82-32.75,22.28s-11.14,26.4-11.66,40.88C1533.56,327.85,1534,342.19,1534,356.51Z"/><path class="cls-2" d="M694,199.27l46,0,4,.25c15.57,2.56,30.61,6.7,43.86,15.66,25.31,17.11,37,42,40.21,71.51a111.38,111.38,0,0,1,.26,12q0,146.49,0,293v12.11l51.5,25.36V669H628.89v-41.6l46-20.65V596.26q0-127.69,0-255.38c0-26.73-13.43-43.7-39.6-49.52-17.6-3.92-35.17-2-52.6,1-11.73,2-23.44,4.46-34.42,10V606.08L598,627.81v41.26H346.75V627.18l50.92-20.26c0-3.66,0-7,0-10.28q-.42-247.41-.7-494.83c0-6.78-2.06-10-8.31-12.55C373.25,83,358.21,75.82,342.54,68.8V29.53L547.23,0V258.45c3.65-2.41,6-3.8,8.2-5.43,30.72-23.06,64.13-40.53,102-48.41,10.75-2.23,21.7-3.46,32.56-5.14Z"/><path class="cls-4" d="M3708.12,657.62c-66.08,8.38-131.24,16.15-197.75,24.23V637.54c-2.52,1.06-3.92,1.23-4.67,2-22.22,23.34-50.88,33.45-81.46,39.13-39.23,7.28-77,2.32-112.78-15.56-46.47-23.2-75.59-61-91.63-109.66-9.26-28.06-13.18-57-13.93-86.48-1-38.49,2.06-76.54,12.26-113.81,10-36.6,26.67-69.56,53.78-96.7,23.89-23.93,52.59-39.33,84.8-48.85,21.93-6.49,44.44-9,67.07-9.53,24.83-.57,49,4.35,72.43,12.71,2.7,1,5.47,1.78,9.91,3.22V203c0-29.66-.13-59.32.23-89,.07-6.55-1.67-10.26-8-13-11.93-5.11-23.3-11.52-35.17-16.8-5.77-2.57-7.75-6.16-7.5-12.29.42-10.26.12-20.54.12-32.1l203.93-32c.14,5.19.36,9.37.36,13.56q.08,211.46.12,422.92c0,46.66.23,93.32,0,140,0,7.25,1.9,11.61,8.77,14.65,10.95,4.85,21.37,10.92,32.23,16,5.33,2.49,7.22,5.93,7,11.7C3707.83,636.56,3708.12,646.51,3708.12,657.62Zm-202-223.45c0-49-.17-97.91.17-146.86.05-7.84-2.47-12.87-9.56-15.45-9.34-3.41-18.58-7.91-28.27-9.44-29.38-4.63-55.85,4.72-72.08,33a143.58,143.58,0,0,0-9.26,19.88c-10.82,28.29-14.74,58-16.66,87.95-1.8,28.19-3.57,56.44-.61,84.76,2.23,21.32,5.82,42.22,14.82,61.82,11.55,25.15,30,42.35,57.95,47.06a122.6,122.6,0,0,0,53.37-3.13c10.09-2.8,10.1-2.93,10.11-13.75Q3506.11,507.09,3506.1,434.17Z"/><path class="cls-4" d="M2325.4,199.48c.18,5,.46,9.21.46,13.43q0,180.44,0,360.88a68.64,68.64,0,0,1-.05,8c-.86,7.2,2,11.6,8.54,15,12.09,6.32,23.58,13.78,35.57,20.32,4.7,2.57,6.75,5.65,6.54,11-.35,9.27-.09,18.56-.09,29.17-33.46,5-66.41,8.3-99.28,12.22-32.56,3.89-65.1,8-99.27,12.22v-67c-3.54,3.31-5.19,4.69-6.66,6.25-31.07,33-69.16,52.65-113.77,59.64-23.24,3.64-46.43,3.2-69.35-2.9-29.79-7.92-52.83-25-68.37-51.53-14.22-24.3-21.74-50.64-21.71-79,.07-80.31-.1-160.62.21-240.93,0-8.14-2.28-12.75-9.88-16-12.56-5.32-24.62-11.82-37-17.47-5-2.24-7-5.38-6.77-10.8.34-7,0-14,.08-21,.07-11.4.33-11.69,11.26-13.38q26.14-4,52.29-8.07,68.09-10.54,136.16-21.08c1.89-.29,3.84-.2,7-.35,0,7.75.1,15,0,22.22-.12,7-.68,14-.68,21q-.08,143.45-.09,286.91c0,11.77-.17,23.13,8.46,32.86,10.17,11.47,21.33,21.43,36.68,24.51a103.22,103.22,0,0,0,25.75,1.55,146.43,146.43,0,0,0,44.71-9.74c6.07-2.33,8.53-6,8.51-12.76q-.33-130,0-259.92c0-6.18-2-9.68-7.59-12.34-13.23-6.3-26-13.5-39.29-19.74-5.25-2.47-7.77-5.38-7.44-11.32.42-7.64,0-15.33.15-23,.15-7.46.47-7.78,7.71-8.92q50.79-8,101.6-16,42.9-6.72,85.81-13.4C2318.43,199.73,2321.39,199.75,2325.4,199.48Z"/><path class="cls-4" d="M2418.69,352.68c-.19-4.29-.44-7.25-.44-10.2q0-48.5.15-97c0-2,.15-4,.08-6-.22-6.1,2.29-9.63,8.45-11.61,44.15-14.2,88.84-25.81,135.12-30.74,44.59-4.76,88.52-1.62,131.53,11,26.77,7.84,51.69,19.63,71.93,39.64s30.59,44.13,30.63,72.53q.17,113,.07,226c0,15.66.39,31.34-.19,47-.26,7.15,2.44,10.8,8.6,13.76,11.7,5.63,22.94,12.2,34.59,17.94,5.1,2.52,7.74,5.6,7.28,11.54a114.81,114.81,0,0,0,0,18c.53,6.5-2.34,10-8.22,11.68-14.37,4.11-28.55,9.23-43.16,12.14-24,4.78-48.31,5-72.36-.9a104.92,104.92,0,0,1-40.3-19.17c-13.49-10.58-21-24.59-23.19-43.21-2.7,2.78-4.87,4.27-6,6.33-17.95,31.59-46.18,48-80.85,54.73-32.69,6.33-65.47,7.46-98.08-.66-27.93-6.95-50.8-21.58-66.73-45.88-10.59-16.14-16.44-34.2-18.59-53.33-2.84-25.16-1.5-50,8.83-73.55,12.4-28.33,33.37-48.19,62.32-58.49,15.89-5.65,32.65-9.25,49.28-12.43,41.18-7.87,82.5-15.06,123.81-22.28,5.5-1,7.11-3.56,7.07-8.71-.21-28.32,1.38-56.78-.78-84.94-2-26.48-20.44-58.92-60.7-58.1-12,.24-24,.75-35.94,1.17-8.91.31-9,.32-12.08,8.76q-13.8,37.51-27.5,75.06c-3.81,10.45-3.77,10.49-14.72,10.5q-29.49,0-59,0C2426.32,353.15,2423.06,352.88,2418.69,352.68Zm224.95,104.56c-1.39-.79-1.94-1.36-2.52-1.39-26.24-1.58-51.14,2.73-73.32,17.74-11.38,7.7-19.72,18.16-23.21,31.54-5.16,19.76-5,39.7,2.13,59,7.36,19.85,21.88,31.15,43.17,33.68,16.65,2,31.45-3.34,46-10.46,6-2.94,8.61-6.84,8.53-14-.4-35.64-.17-71.29-.21-106.93C2644.17,463.18,2643.81,460,2643.64,457.24Z"/><path class="cls-1" d="M4264.9,615c-2.48,2.76-4.55,4.41-5.77,6.54-19.31,33.81-50.33,49.43-87.13,55.2-28.76,4.52-57.69,5.21-86.44-.9-49.68-10.56-82-45.07-89.48-95.28-3.82-25.8-2.78-51.12,7.08-75.64,12.77-31.73,36.09-52.55,68.05-63.11,16.36-5.4,33.51-8.65,50.49-11.86,38.6-7.29,77.32-13.94,116-20.88,8.59-1.54,9.83-3,9.71-11.92-.35-27-.56-54-1.23-80.93a60,60,0,0,0-59.9-58.79c-12-.05-24,.06-36,.22-9.37.12-9.55.14-12.92,9.2-8.58,23.11-16.8,46.35-25.55,69.4-7,18.4-2.92,15.48-22.19,15.66-18.32.18-36.65.07-55,0a83.29,83.29,0,0,1-8.51-.94c-.25-3.65-.67-6.87-.67-10.09q0-50.49.17-101c0-10,.07-10.05,9.7-13.21,39-12.79,78.65-23.21,119.36-28.5,53.47-6.95,106.36-4.45,157.8,13.64,17.42,6.13,33.76,14.38,48.33,25.69,26.54,20.59,41.47,47.46,41.54,81.5.2,86,.11,172,.19,258,0,5.32.78,10.66.48,16-.39,6.94,2.52,10.88,8.75,13.84,11.14,5.27,21.73,11.68,32.87,16.94,6.65,3.14,9.55,7.45,8.89,14.78a105.23,105.23,0,0,0,0,16c.35,5.56-2,8.95-7.16,10.45-15.65,4.53-31.1,10-47,13.22a156.86,156.86,0,0,1-75.17-2.7c-13.64-3.93-26.13-10-36.93-19.28-9.85-8.42-17.13-18.55-19.73-31.58C4266.93,621.78,4266,619.05,4264.9,615ZM4250,455.65c-27.24-1.85-51.95,1.91-74.36,16.5-11.91,7.75-20.56,18.32-24.35,31.82-6.31,22.43-5.41,44.81,4.85,66.11,8.61,17.9,23.76,26.19,43.13,27.48,15.48,1,29.35-4.11,42.95-10.88,6.18-3.08,8.49-7,8.42-14-.34-35.58-.15-71.17-.18-106.76C4250.45,463,4250.19,460,4250,455.65Z"/><path class="cls-5" d="M1316,411.41l-.06,18-.21,9.95v12.27c-18.85,0-37,.11-55.21.13q-28,0-56,0h-166.9c.92,8,1.32,15,2.53,21.72,7.12,39.75,24.62,73,60.32,94.5,21.34,12.82,45,17.94,69.53,19.32h26c34-1.62,67.3-7.27,101.68-16.54,0,10.07-.89,19.29.21,28.26,1.52,12.33-3.7,20.55-12.37,28.42-27.34,24.84-59.73,39.35-95.19,47.67-11.3,2.65-22.89,4.06-34.34,6l-4,.29-52,0-4-.21c-6.53-.68-13.07-1.33-19.6-2-28.87-3.14-56.75-10.19-83.15-22.31C947.59,636,917,601,900,554.07c-12.46-34.39-18.38-69.93-18.59-106.6-.12-22,.88-44.05,5.14-65.29,10.82-53.87,31.62-102.95,77.2-137.72,23.65-18,50.24-29.89,79-36.82a335.85,335.85,0,0,1,108.75-8c30.16,2.65,59,10.22,85,26.5,33.08,20.76,53.84,51,65.5,87.67,4.11,12.94,6.46,26.44,9.61,39.68l.45,3.94,1.56,10.06c.15,2.65.31,5.3.46,7.94l1.66,20.05Zm-266-14.07,4-.08,40-1.89,8-.2,63.53-2.78a501.68,501.68,0,0,0-2.71-76.06,248.45,248.45,0,0,0-5.67-33.37c-5-20.1-18.17-32.18-38.9-34.86-30.53-3.94-54.74,5.42-66.75,38.57a107.16,107.16,0,0,0-3.34,10.43c-6.61,26.25-9.29,53-10.12,80-.22,6.82,0,13.65,0,20.88Z"/><path class="cls-4" d="M3060,287.38c12.75-23.24,27.81-44.59,48.61-61.54s44.5-26.61,71.32-27.79c7.47-.33,15,1.27,22,1.93,2.37,8.94,2.75,123.14.68,134.43-6.08-.51-12.28-.89-18.44-1.56-36.15-4-71.82-2.27-106.75,8.67-1.91.6-3.84,1.1-5.74,1.73-9.65,3.21-9.75,3.27-9.77,13.29q-.09,39.49-.07,79-.06,79-.12,158c0,10.41.07,10.39,9.92,14.37,14.82,6,29.53,12.27,44.5,17.89,6.33,2.37,8.78,5.92,8.38,12.65-.53,9.18-.19,18.41-.23,28.24H2860.62c-1.49-12.22-.89-24.13-.32-36,.11-2.12,3.34-4.71,5.71-6,11.11-6.07,22.26-12.12,33.73-17.44,6.38-3,8.46-6.93,8.41-13.88-.3-42-.15-84-.15-126,0-55-.16-110,.18-165,0-7.77-2.1-12.13-9.46-15.18-12-5-23.44-11.19-35.3-16.5-5.17-2.31-7.78-5.24-7.54-11.28.45-10.95.13-21.92.13-32.46,7.07-3.64,186.14-32.36,200.34-32.39v97l1.39.4Q3058.85,289.68,3060,287.38Z"/><path class="cls-4" d="M3930,195.8v13.58l-.3,378.93a58.17,58.17,0,0,1,0,7c-.84,6.85,1.54,10.92,8.33,13.73,11.06,4.58,21.57,10.47,32.4,15.64,4,1.89,6.37,4.32,6.29,9.1-.19,11.23-.06,22.48-.06,33.62-8,2.27-240.21,2.48-250.68,0V630c0-4.26,3.44-5.33,6.42-6.71,11.19-5.18,22.15-11,33.7-15.17,8.24-3,10-7.74,9.93-15.7-.24-79.65-.14-159.31-.14-239,0-17.66-.22-35.33.11-53,.12-6.14-1.85-9.7-7.54-12.31-13.32-6.11-26.25-13.07-39.55-19.23-5.89-2.72-8.81-6.29-8.41-13,.46-7.64,0-15.33.15-23,.14-7.4.83-8.3,7.56-9.24,39.55-5.56,79.12-11,118.67-16.54,24.72-3.47,49.42-7.09,74.13-10.6C3923.5,196.24,3926.06,196.14,3930,195.8Z"/><path class="cls-4" d="M3765.67,83.75C3764.88,43.09,3797,.92,3848.83.4c48.08-.49,84.71,37.27,84.6,84.17-.11,46.67-36.53,84.54-84.9,83.84C3796.5,167.66,3764.26,125.05,3765.67,83.75Z"/><path class="cls-6" d="M1196,587.32h0Z"/><path class="cls-7" d="M1316,411.41l-.27-15.94Z"/><path class="cls-7" d="M1315.71,439.38l.21-9.95Z"/><path class="cls-7" d="M1314.05,375.42c-.15-2.64-.31-5.29-.46-7.94C1313.74,370.13,1313.9,372.78,1314.05,375.42Z"/><path class="cls-8" d="M202,681.59l8-.29Z"/><path class="cls-8" d="M230,679.61l6-.2Z"/><path class="cls-9" d="M3060,287.38q-1.12,2.3-2.23,4.58l-1.39-.4v-4.39Z"/><path class="cls-10" d="M694,199.27l-4,.2Z"/><path class="cls-10" d="M744,199.48l-4-.25Z"/><path class="cls-6" d="M1096,681.29l4,.21Z"/><path class="cls-6" d="M1152,681.46l4-.29Z"/><path class="cls-7" d="M1312,357.42l-.45-3.94Z"/><path d="M1747.92,265.48l-.78-1,1,.77Z"/><path class="cls-11" d="M1094,395.37l8-.2Z"/><path class="cls-11" d="M1050,397.34l4-.08Z"/></svg>