<svg width="165" height="165" viewBox="0 0 165 165" fill="none" xmlns="http://www.w3.org/2000/svg">
<path d="M0.153774 73.5098C-1.27105 96.6063 7.27793 120.037 22.7939 137.206C37.7064 153.716 63.7894 161.545 85.2176 164.258C103.34 166.565 122.74 163.68 137.526 152.981C190.888 114.419 158.234 5.35125 93.1936 0.331392C46.0373 -3.30927 3.27724 23.1743 0.153774 73.5098Z" fill="#D9CCA7"/>
<path d="M132.968 101.29C132.832 93.7952 131.264 83.9825 124.937 77.5591C120.846 73.4069 116.702 72.6601 116.529 72.6295C116.449 72.6161 116.368 72.6093 116.287 72.6091H114.478C114.54 71.708 114.291 70.8129 113.774 70.0744C113.281 69.4161 112.608 68.9171 111.837 68.6389C111.733 67.7601 111.449 66.9124 111.004 66.1493C109.735 63.9378 107.16 62.7745 104.601 63.2594C104.176 63.3396 103.761 63.467 103.363 63.6394C103.315 63.5142 103.265 63.3875 103.205 63.2594C102.373 61.457 100.72 60.3782 98.5509 60.2224C95.9746 60.0404 94.3715 61.3129 93.4693 62.6974C92.373 61.9083 90.9075 61.406 88.98 61.5763C88.7932 61.5924 88.6121 61.6157 88.4354 61.6419C88.1183 59.8774 86.9872 57.6848 84.0909 57.1388C81.1019 56.5768 79.3322 57.7372 78.375 58.8102C77.9682 59.2693 77.6337 59.7882 77.383 60.349C76.5966 60.2371 75.7955 60.2942 75.0326 60.5165C73.6142 60.9237 72.3949 61.8422 71.6077 63.0963C70.035 61.8413 67.3949 60.6694 63.7875 62.2636C61.133 63.4355 60.2974 65.6485 60.0353 67.0301C59.1114 67.3475 57.8529 67.9954 57.0766 69.2809C56.6523 69.9841 56.2715 71.0818 56.4974 72.6032H54.719C54.638 72.6035 54.5571 72.6103 54.4772 72.6236C54.302 72.6542 50.1602 73.4011 46.0691 77.5533C39.7406 83.9752 38.1737 93.7879 38.0375 101.284C36.0434 102.113 35.0051 104.838 35.0051 107.545C35.0051 107.931 35.1576 108.301 35.4292 108.574C35.7008 108.847 36.0692 109 36.4532 109H134.567C134.951 109 135.319 108.847 135.591 108.574C135.863 108.301 136.015 107.931 136.015 107.545C136.001 104.844 134.961 102.118 132.968 101.29ZM59.5458 70.8111C60.0078 70.0336 61.159 69.7061 61.5544 69.6464C61.9108 69.5989 62.2369 69.4198 62.4693 69.1439C62.7016 68.8681 62.8235 68.5153 62.8114 68.1541C62.8114 68.1322 62.768 65.9062 64.9446 64.9511C67.7685 63.7049 69.5788 64.9103 70.6302 66.2177C70.6126 66.6412 70.6397 67.0652 70.7112 67.4829C70.769 67.8218 70.9442 68.1291 71.2058 68.3506C71.4674 68.572 71.7986 68.6932 72.1406 68.6927C72.2251 68.6929 72.3095 68.6851 72.3926 68.6695C72.5806 68.6369 72.7603 68.5674 72.9215 68.4648C73.0827 68.3622 73.2222 68.2286 73.3318 68.0716C73.4415 67.9147 73.5192 67.7375 73.5606 67.5503C73.6019 67.3631 73.6061 67.1695 73.5728 66.9806C73.3324 65.6004 74.1188 63.8184 75.8088 63.3409C77.8029 62.7833 78.8746 64.4809 78.9948 64.6847C79.1857 65.0212 79.5017 65.2677 79.8734 65.3699C80.245 65.4722 80.6419 65.4218 80.9766 65.2299C81.3113 65.038 81.5565 64.7203 81.6582 64.3467C81.7599 63.973 81.7099 63.574 81.519 63.2375C81.131 62.5796 80.6229 62.0012 80.0215 61.5327C80.3488 60.7611 81.2365 59.5862 83.5507 60.0215C85.3754 60.3651 85.6086 62.0015 85.626 62.6668C84.7258 63.2474 83.9876 64.0491 83.4812 64.9962C83.3899 65.1646 83.3325 65.3494 83.3123 65.54C83.292 65.7307 83.3093 65.9234 83.3632 66.1074C83.4171 66.2913 83.5064 66.4627 83.6262 66.612C83.7459 66.7612 83.8937 66.8852 84.0612 66.977C84.2286 67.0688 84.4124 67.1265 84.6021 67.1468C84.7917 67.1672 84.9835 67.1498 85.1665 67.0957C85.3494 67.0415 85.52 66.9517 85.6684 66.8313C85.8168 66.7109 85.9402 66.5622 86.0314 66.3939C86.6397 65.2714 87.7157 64.6337 89.229 64.5012C92.4787 64.2188 93.1767 66.9675 93.2839 67.528C93.3447 67.864 93.5211 68.1678 93.7821 68.3863C94.0431 68.6047 94.3722 68.7241 94.7119 68.7233C94.7977 68.7232 94.8834 68.7159 94.9681 68.7015C95.1562 68.6683 95.3359 68.5981 95.4969 68.4948C95.6579 68.3915 95.7969 68.2573 95.906 68.0998C96.0152 67.9423 96.0923 67.7646 96.1329 67.5771C96.1735 67.3895 96.1768 67.1957 96.1426 67.0068C96.0103 66.3178 95.7754 65.6528 95.4461 65.0341C95.6966 64.2945 96.4221 62.9274 98.3424 63.0628C100.554 63.223 100.898 64.8448 100.938 65.599C100.295 66.5006 99.8782 67.5442 99.7211 68.6418C99.6635 69.0246 99.7595 69.4148 99.988 69.7265C100.217 70.0381 100.559 70.2458 100.94 70.3037C101.321 70.3616 101.709 70.2651 102.019 70.0353C102.329 69.8056 102.535 69.4614 102.593 69.0785C102.839 67.464 103.764 66.3895 105.13 66.1318C106.458 65.8829 107.837 66.49 108.481 67.611C108.933 68.3987 108.965 69.0057 109.013 69.8735C109.035 70.2196 109.178 70.5468 109.416 70.7977C109.655 71.0487 109.973 71.2075 110.316 71.2464C110.517 71.2697 111.154 71.4211 111.422 71.8025C111.556 71.9903 111.603 72.2626 111.567 72.612H59.4473C59.2576 71.8608 59.288 71.2566 59.5588 70.8111H59.5458ZM38.0303 106.106C38.275 104.886 38.7949 103.94 39.3206 103.94H47.8836C48.0833 103.957 48.2843 103.932 48.4739 103.866C48.6634 103.801 48.8375 103.697 48.985 103.561C49.1325 103.424 49.2502 103.259 49.3307 103.074C49.4113 102.89 49.4529 102.69 49.4529 102.489C49.4529 102.288 49.4113 102.088 49.3307 101.904C49.2502 101.719 49.1325 101.554 48.985 101.417C48.8375 101.281 48.6634 101.177 48.4739 101.112C48.2843 101.046 48.0833 101.021 47.8836 101.038H40.9237C41.0251 96.4726 41.6246 92.7164 42.5254 89.627C42.904 89.9981 43.2499 90.4014 43.5594 90.8325C43.5823 90.8729 43.6145 90.9072 43.6533 90.9325C43.6921 90.9578 43.7364 90.9735 43.7824 90.9781C43.8285 90.9817 43.8747 90.9742 43.9173 90.9562C43.9599 90.9382 43.9975 90.9102 44.0272 90.8747C44.0344 90.8645 44.9829 89.8555 47.0176 88.7826C48.2848 88.1099 50.3774 87.1054 50.4614 84.5183C50.515 82.8265 49.1725 81.3794 47.4043 81.2236C47.1447 81.2011 46.8834 81.2123 46.6267 81.2571C50.1443 76.7191 54.118 75.6795 54.8537 75.5209H116.143C116.843 75.6781 121.111 76.8312 124.744 81.8438C124.555 81.9268 124.375 82.0292 124.207 82.1495C122.759 83.1861 122.337 85.1181 123.238 86.5478C124.533 88.6006 126.648 88.5467 128.086 88.4768C129.2 91.7729 129.96 95.9018 130.076 101.04H53.966C53.6041 101.07 53.2669 101.236 53.0211 101.505C52.7753 101.774 52.6389 102.125 52.6389 102.49C52.6389 102.856 52.7753 103.207 53.0211 103.476C53.2669 103.745 53.6041 103.911 53.966 103.941H131.678C132.205 103.941 132.725 104.888 132.968 106.108L38.0303 106.106Z" fill="#302718"/>
<path d="M99.9622 81.9483H108.217C108.577 81.9158 108.912 81.7489 109.156 81.4806C109.4 81.2122 109.536 80.8618 109.536 80.4982C109.536 80.1346 109.4 79.7841 109.156 79.5158C108.912 79.2474 108.577 79.0806 108.217 79.0481H99.9622C99.602 79.0806 99.2669 79.2474 99.0228 79.5158C98.7787 79.7841 98.6434 80.1346 98.6434 80.4982C98.6434 80.8618 98.7787 81.2122 99.0228 81.4806C99.2669 81.7489 99.602 81.9158 99.9622 81.9483Z" fill="#302718"/>
<path d="M113.285 81.9482H115.602C115.803 81.9663 116.005 81.9422 116.195 81.8776C116.386 81.8129 116.561 81.709 116.709 81.5726C116.857 81.4362 116.976 81.2702 117.057 81.0852C117.138 80.9002 117.18 80.7003 117.18 80.4982C117.18 80.296 117.138 80.096 117.057 79.911C116.976 79.726 116.857 79.5601 116.709 79.4237C116.561 79.2872 116.386 79.1834 116.195 79.1188C116.005 79.0541 115.803 79.03 115.602 79.0481H113.285C113.085 79.03 112.883 79.0541 112.693 79.1188C112.502 79.1834 112.327 79.2872 112.179 79.4237C112.03 79.5601 111.912 79.726 111.831 79.911C111.75 80.096 111.708 80.296 111.708 80.4982C111.708 80.7003 111.75 80.9002 111.831 81.0852C111.912 81.2702 112.03 81.4362 112.179 81.5726C112.327 81.709 112.502 81.8129 112.693 81.8776C112.883 81.9422 113.085 81.9663 113.285 81.9482Z" fill="#302718"/>
<path d="M62.9859 94.0945C65.1785 94.7977 66.2877 95.6159 66.2964 95.6247C66.3321 95.6537 66.3741 95.6737 66.419 95.6832C66.4638 95.6927 66.5103 95.6914 66.5546 95.6793C66.5989 95.6672 66.6396 95.6448 66.6735 95.6138C66.7075 95.5827 66.7336 95.544 66.7498 95.5009C66.7498 95.4893 67.3001 94.2197 68.8409 92.5018C69.7996 91.4317 71.4215 89.7647 70.6134 87.3072C70.0849 85.7057 68.3282 84.8045 66.6151 85.2689C66.1206 85.4056 65.6681 85.6647 65.299 86.0225C64.9299 86.3804 64.656 86.8256 64.5022 87.3173C64.4619 87.4423 64.4295 87.5697 64.4052 87.6988C64.3195 87.5998 64.2281 87.506 64.1315 87.4178C63.752 87.0713 63.2921 86.826 62.7939 86.7044C62.2958 86.5828 61.7753 86.5889 61.28 86.7219C59.5668 87.1878 58.4981 88.8504 58.8485 90.5072C59.3843 93.0405 61.6203 93.6578 62.9859 94.0945Z" fill="#302718"/>
<path d="M83.0707 88.2914C84.8519 89.756 85.5818 90.928 85.5876 90.9382C85.6103 90.9782 85.642 91.0123 85.6803 91.0376C85.7185 91.0629 85.7622 91.0788 85.8077 91.0838C85.8536 91.0882 85.8999 91.0815 85.9427 91.0643C85.9856 91.0471 86.0237 91.0198 86.0539 90.9848C86.0626 90.976 87.0358 89.9992 89.0951 88.9713C90.3781 88.3322 92.4954 87.3814 92.6446 84.7972C92.7431 83.107 91.4368 81.6249 89.6743 81.4254C89.1646 81.3688 88.6488 81.4417 88.1744 81.6376C87.7 81.8335 87.2821 82.146 86.959 82.5464C86.9758 82.5828 86.9826 82.623 86.9788 82.6629C86.975 82.7028 86.9607 82.7409 86.9374 82.7734C86.914 82.8059 86.8825 82.8315 86.846 82.8477C86.8096 82.8639 86.7695 82.8701 86.7299 82.8655C86.6903 82.861 86.6526 82.8459 86.6207 82.8219C86.5888 82.7978 86.5639 82.7657 86.5485 82.7288C86.533 82.6918 86.5276 82.6515 86.5328 82.6117C86.5381 82.572 86.5537 82.5344 86.5782 82.5028C86.352 82.0402 86.0142 81.6419 85.5955 81.3443C85.1768 81.0468 84.6906 80.8594 84.1814 80.7994C82.4175 80.5985 80.8159 81.7486 80.5349 83.42C80.1077 85.9765 81.9613 87.3785 83.0707 88.2914Z" fill="#302718"/>
<path d="M109.627 87.993C109.602 87.4782 109.448 86.9781 109.18 86.5386C108.913 86.099 108.54 85.7341 108.095 85.4772C106.553 84.5934 104.63 85.0142 103.716 86.4366C102.32 88.6117 103.471 90.6354 104.131 91.9122C105.193 93.965 105.404 95.3321 105.406 95.3438C105.41 95.3903 105.426 95.4351 105.451 95.4744C105.476 95.5137 105.51 95.5463 105.551 95.5694C105.591 95.5922 105.637 95.6049 105.683 95.6064C105.729 95.6079 105.775 95.5982 105.817 95.5781C105.827 95.5781 107.105 95.0613 109.403 94.9346C110.834 94.8575 113.152 94.824 114.303 92.5091C115.058 90.995 114.44 89.1154 112.899 88.2317C112.452 87.9773 111.95 87.8397 111.437 87.8316C110.924 87.8234 110.417 87.945 109.963 88.1851C109.848 88.2447 109.736 88.3119 109.629 88.386C109.636 88.2551 109.636 88.1238 109.627 87.993Z" fill="#302718"/>
</svg>
