<svg width="168" height="165" viewBox="0 0 168 165" fill="none" xmlns="http://www.w3.org/2000/svg">
<path d="M94.0758 0.212984C79.6508 -1.03116 65.2797 3.31384 52.0923 9.24161C23.4192 22.1359 -0.541756 44.6028 0.0117202 77.841C0.349956 98.3142 9.29401 117.943 21.7549 134.284C49.4287 170.559 82.9986 171.845 121.688 152.981C148.547 139.877 169.13 123.871 166.835 91.2451C165.421 71.08 156.726 46.646 145.215 29.8519C133.173 12.3006 115.327 2.05448 94.0758 0.212984Z" fill="#D9CCA7"/>
<path d="M115.463 92.4032C115.415 91.51 116.077 90.1304 116.237 89.1917C116.45 87.9649 116.561 86.7229 116.57 85.478C116.584 83.0393 116.189 80.5438 115.111 78.3346C112.954 73.9118 107.963 72.0617 103.755 70.0753C101.1 68.823 98.417 67.6139 95.8188 66.2479C93.7525 65.1615 91.9374 64.2819 90.6338 62.2728C87.3666 57.209 87.1839 51.493 91.0333 46.7201C99.5951 38.879 111.924 41.3791 111.924 41.3791C122.589 44.1632 128.639 52.3907 132.701 62.9706C134.847 68.5639 135.146 74.9004 134.404 80.7869C132.961 92.2282 127.708 104.015 117.762 110.604C117.637 110.688 116.486 111.286 116.49 111.381L115.463 92.4032Z" fill="#302718" stroke="#302718" stroke-miterlimit="10"/>
<path d="M75.1654 114.563C75.2704 114.701 73.6859 116.295 73.5786 116.404C72.4472 117.546 71.2018 118.571 69.8616 119.463C66.2629 121.845 62.1193 123.286 57.8134 123.654C45.9935 124.702 39.3198 118.426 39.3198 118.426C33.8288 113.263 31.863 105.072 33.6302 97.885C35.4385 90.5371 39.0755 82.93 45.2971 78.3049C52.7653 72.7548 61.7244 69.7001 70.9758 69.0751C72.6745 68.9615 74.3777 68.9047 76.0786 68.8797C83.3071 68.7728 90.6635 70.057 97.2298 73.1366C100.833 74.8253 104.168 77.4344 107.173 80.0163C109.723 82.2096 112.05 84.6983 113.867 87.5324C116.223 91.2098 117.404 95.5622 117.785 99.9123C118.066 103.094 118.66 106.563 117.751 109.706C116.938 112.517 114.899 114.851 113.066 117.063C108.956 121.649 101.734 123.654 95.7138 123.654C91.9283 123.654 88.0743 123.29 84.5263 121.897C80.7409 120.413 77.6243 117.751 75.1654 114.563Z" fill="#F2E0D4" stroke="#302718" stroke-miterlimit="10"/>
<path d="M95.5996 106.835C96.5453 106.835 97.312 106.072 97.312 105.131C97.312 104.189 96.5453 103.426 95.5996 103.426C94.6539 103.426 93.8872 104.189 93.8872 105.131C93.8872 106.072 94.6539 106.835 95.5996 106.835Z" fill="#302718" stroke="#302718" stroke-miterlimit="10"/>
<path d="M100.623 113.426C101.568 113.426 102.335 112.663 102.335 111.722C102.335 110.78 101.568 110.017 100.623 110.017C99.6768 110.017 98.9102 110.78 98.9102 111.722C98.9102 112.663 99.6768 113.426 100.623 113.426Z" fill="#302718" stroke="#302718" stroke-miterlimit="10"/>
<path d="M91.0333 114.79C91.979 114.79 92.7457 114.027 92.7457 113.085C92.7457 112.144 91.979 111.381 91.0333 111.381C90.0876 111.381 89.321 112.144 89.321 113.085C89.321 114.027 90.0876 114.79 91.0333 114.79Z" fill="#302718" stroke="#302718" stroke-miterlimit="10"/>
<path d="M55.4161 106.835C56.3618 106.835 57.1284 106.072 57.1284 105.131C57.1284 104.189 56.3618 103.426 55.4161 103.426C54.4704 103.426 53.7037 104.189 53.7037 105.131C53.7037 106.072 54.4704 106.835 55.4161 106.835Z" fill="#302718" stroke="#302718" stroke-miterlimit="10"/>
<path d="M59.7541 114.79C60.6998 114.79 61.4664 114.027 61.4664 113.085C61.4664 112.144 60.6998 111.381 59.7541 111.381C58.8084 111.381 58.0417 112.144 58.0417 113.085C58.0417 114.027 58.8084 114.79 59.7541 114.79Z" fill="#302718" stroke="#302718" stroke-miterlimit="10"/>
<path d="M50.1648 113.426C51.1105 113.426 51.8772 112.663 51.8772 111.722C51.8772 110.78 51.1105 110.017 50.1648 110.017C49.2191 110.017 48.4525 110.78 48.4525 111.722C48.4525 112.663 49.2191 113.426 50.1648 113.426Z" fill="#302718" stroke="#302718" stroke-miterlimit="10"/>
<path d="M67.8159 101.04C71.1402 102.276 74.8229 102.938 78.3938 102.367C81.8025 101.824 85.0149 100.27 87.9123 98.4626C90.9009 96.599 94.111 94.5148 96.2092 91.6443C97.6887 89.6147 99.1134 86.26 98.4582 83.7327C98.0198 82.0395 96.5426 80.8804 95.1293 79.9826C93.5311 78.9667 91.805 77.9121 90.0059 77.2984C85.6359 75.8052 80.8368 74.7984 74.9371 75.0257C70.7977 75.187 66.6355 75.6166 62.6331 76.8803C60.1833 77.6507 57.7403 78.6167 55.6649 80.1531C54.1558 81.2713 52.521 82.7645 52.1603 84.6986C51.7767 86.7646 53.0553 89.0579 54.0371 90.7897C56.9047 95.8126 62.4939 99.0604 67.8159 101.04Z" fill="#302718" stroke="#302718" stroke-miterlimit="10"/>
<path d="M50.1648 53.9931C51.8772 54.3431 57.5851 56.8432 59.1833 57.525C60.7815 58.2068 60.6719 61.616 59.1833 61.616C56.6718 61.616 52.0918 61.991 52.0918 61.991C49.7379 62.1865 47.6054 63.2956 45.4547 64.1683H45.4227C45.0704 64.3188 44.7099 64.4493 44.3428 64.5593C42.288 65.1275 40.4614 62.5138 41.603 61.3774C42.1899 60.8477 42.8582 60.4149 43.5825 60.0955C44.4797 59.66 45.4048 59.2841 46.352 58.9705C46.6693 58.8637 46.989 58.7614 47.3086 58.6682C47.6081 58.6022 47.9038 58.5203 48.1945 58.4227C48.1488 58.4409 47.8452 58.1409 47.7972 58.1C47.667 57.9825 47.5457 57.8557 47.4342 57.7204C47.208 57.4452 47.0227 57.139 46.8839 56.8113C46.732 56.4944 46.6507 56.1486 46.6456 55.7975C46.6405 55.4464 46.7117 55.0983 46.8543 54.7772C47.0826 54.334 48.4525 53.6317 50.1648 53.9931Z" fill="#302718" stroke="#302718" stroke-miterlimit="10"/>
</svg>
