<svg width="571" height="596" viewBox="0 0 571 596" fill="none" xmlns="http://www.w3.org/2000/svg">
<path d="M440.76 489.852C428.548 465.252 395.941 424.129 378.721 411.369C377.521 410.484 376.048 409.958 374.688 409.296C368.885 406.44 362.837 405.755 357.554 409.781C351.568 414.351 346.182 419.685 339.454 425.642C332.737 424.374 325.597 422.564 318.35 421.793C312.118 421.136 306.172 423.038 302.454 428.561C298.256 434.804 295.915 443.12 290.357 447.466C276.935 457.981 276.169 469.244 283.132 483.529C285.645 488.669 287.17 495.797 285.788 501.143C280.905 520.06 285.993 537.166 292.447 554.444C293.989 558.585 293.767 563.382 294.43 568.409C290.511 572.704 286.325 576.919 282.606 581.511C280.202 584.481 283.098 591.015 286.919 592.631C300.849 598.503 313.855 596.767 325.106 586.891C330.607 582.059 334.781 575.725 340.23 569.271C344.325 571.333 348.598 572.698 351.893 575.303C360.164 581.819 368.423 582.122 376.967 576.445C385.346 570.882 387.899 563.571 385.323 552.787C384.284 548.447 382.724 544.22 381.588 540.553C387.328 529.182 397.552 525.503 407.804 523.647C419.575 521.517 426.652 514.509 432.364 505.227C435.545 500.104 438.178 494.649 440.76 489.852Z" fill="#EB8B31"/>
<path d="M480.713 478.181C508.985 479.101 526.634 464.222 538.64 440.656C542.168 433.903 545.309 426.954 548.047 419.843C553.564 405.027 553.952 389.892 547.932 375.19C543.886 365.351 539.155 355.809 533.773 346.632C530.687 341.38 526.614 336.773 521.779 333.067C503.154 319.028 482.112 310.638 458.752 308.707C445.712 307.634 435.14 312.557 426.482 322.415C406.982 344.69 401.151 370.821 406.125 399.133C408.462 412.458 413.031 425.76 418.817 438.023C426.887 455.158 441.886 466.307 458.483 474.411C464.943 477.599 473.242 477.045 480.713 478.181ZM457.684 389.852C458.078 390.994 458.883 392.136 458.758 393.199C458.632 394.261 457.615 395.375 456.981 396.454C456.119 395.58 454.845 394.844 454.52 393.804C454.194 392.765 454.565 391.291 455.119 390.28C455.377 389.812 456.793 389.972 457.684 389.852V389.852Z" fill="#EB8B31"/>
<path d="M42.0413 91.9492C38.6772 92.2234 31.018 92.2976 23.5758 93.5941C13.9004 95.3076 7.09821 101.659 3.47707 110.432C-1.37776 122.186 -1.37787 134.472 4.93341 145.712C10.1195 154.959 15.7395 164.246 22.719 172.151C51.0199 204.222 82.0108 233.088 119.816 254.158C146.363 268.939 171.888 285.571 198.007 301.113C218.986 313.61 237.903 328.854 256.882 344.064C260.378 346.868 264.713 348.501 269.293 346.417C270.487 345.846 272.218 344.132 272.023 343.355C271.304 340.448 270.453 337.267 268.648 334.988C249.588 310.897 226.719 291.157 200.68 274.777C172.379 256.951 144.513 238.428 116.526 220.1C82.782 197.996 58.2109 167.136 35.3475 134.677C34.5022 133.478 33.7198 131.924 33.7027 130.525C33.6627 127.601 33.0741 123.671 34.6676 121.958C37.5234 118.925 41.9671 115.104 45.4911 115.344C68.6059 116.909 91.275 123.529 109.701 136.511C140.623 158.301 172.374 179.348 199.229 206.603C229.347 237.183 254.963 270.813 274.051 309.326C279.443 320.178 285.189 330.893 291.328 341.345C292.574 343.464 296.201 344.606 298.959 345.303C302.164 346.114 306.207 339.877 305.573 335.491C304.928 331.018 305.002 326.226 303.334 322.148C284.812 276.644 259.852 235.395 225.166 200.012C197.345 171.631 167.41 145.986 134.66 123.654C123.356 115.943 111.486 109.097 99.1514 103.172C78.7954 93.3885 70.0223 92.0806 42.0413 91.9492Z" fill="#EB8B31"/>
<path d="M328.174 307.332C330.03 271.35 323.25 236.555 315.128 201.629C304.379 155.365 287.713 111.631 267.243 68.9716C255.957 45.4228 238.685 26.9629 220.562 9.03432C215.955 4.5616 210.097 1.59562 203.765 0.529853C185.528 -2.83426 171.483 10.4395 168.387 22.8564C164.532 38.3234 166.457 53.1276 176.041 66.4356C177.908 69.0286 180.096 69.5599 182.54 67.9721C183.551 67.3153 184.973 66.7441 185.396 65.7845C186.835 62.3176 188.566 58.7822 189.012 55.1268C190.234 45.0744 190.725 34.9307 191.804 24.8555C192.296 20.3662 200.521 17.5503 204.284 20.1719C214.709 27.4893 223.826 36.5103 231.254 46.8563C238.719 57.1371 246.07 67.6922 251.959 78.9154C260.817 95.7931 269.305 112.991 276.267 130.714C293.088 173.51 306.196 217.644 310.285 263.49C313.781 302.689 316.905 342.31 307.692 381.423C306.784 385.278 309.617 389.83 312.644 389.842C317.293 389.842 319.378 386.415 320.526 382.897C324.85 369.526 328.277 355.949 328.208 341.733C328.134 330.27 328.174 318.801 328.174 307.332Z" fill="#EB8B31"/>
<path d="M382.44 195.428C383.851 201.528 384.279 211.101 388.254 218.846C395.148 232.268 404.115 244.645 412.466 257.29C416.207 262.962 424.7 267.337 427.453 265.052C430.93 262.255 433.888 258.868 436.191 255.046C440.035 248.357 442.091 240.767 440.464 233.142C436.98 216.75 431.976 200.797 422.187 186.878C419.622 183.223 416.144 180.144 412.774 177.134C405.103 170.28 389.522 174.124 385.844 183.725C384.776 186.553 384.142 189.534 382.44 195.428Z" fill="#EB8B31"/>
<path d="M501.257 279.088C503.993 282.887 505.895 287.279 509.253 289.752C514.394 293.573 521.014 292.95 526.611 290.712C532.193 288.423 537.403 285.318 542.072 281.499C553.975 271.835 562.382 259.361 568.996 245.607C572.652 238.005 570.202 226.645 563.525 220.825C556.34 214.542 545.676 213.645 538.302 218.066C528.901 223.709 522.036 231.717 517.415 241.295C511.515 253.478 506.717 266.175 501.257 279.088Z" fill="#EB8B31"/>
</svg>
